<svg width="40" height="40" viewBox="0 0 40 40" fill="none" xmlns="http://www.w3.org/2000/svg">
<rect width="40" height="40" rx="20" fill="#155EEF"/>
<path fill-rule="evenodd" clip-rule="evenodd" d="M16 12C14.9391 12 13.9217 12.4214 13.1716 13.1716C12.4214 13.9217 12 14.9391 12 16C12 17.0609 12.4214 18.0783 13.1716 18.8284C13.9217 19.5786 14.9391 20 16 20C17.0609 20 18.0783 19.5786 18.8284 18.8284C19.5786 18.0783 20 17.0609 20 16C20 14.9391 19.5786 13.9217 18.8284 13.1716C18.0783 12.4214 17.0609 12 16 12ZM14 21C12.9391 21 11.9217 21.4214 11.1716 22.1716C10.4214 22.9217 10 23.9391 10 25V26C10 26.5304 10.2107 27.0392 10.5858 27.4142C10.9609 27.7893 11.4696 28 12 28H20C20.5304 28 21.0391 27.7893 21.4142 27.4142C21.7893 27.0392 22 26.5304 22 26V25C22 23.9391 21.5786 22.9217 20.8284 22.1716C20.0783 21.4214 19.0609 21 18 21H14ZM21.25 18.905C21.728 18.045 22 17.055 22 16C22.0002 14.9835 21.7421 13.9835 21.25 13.094C21.8178 12.5567 22.5306 12.1976 23.3003 12.061C24.07 11.9245 24.8628 12.0164 25.5808 12.3255C26.2988 12.6346 26.9106 13.1473 27.3403 13.8003C27.7701 14.4532 27.9992 15.2178 27.9992 15.9995C27.9992 16.7812 27.7701 17.5458 27.3403 18.1988C26.9106 18.8517 26.2988 19.3644 25.5808 19.6735C24.8628 19.9826 24.07 20.0746 23.3003 19.938C22.5306 19.8014 21.8178 19.4423 21.25 18.905ZM23.466 28C23.806 27.412 24.001 26.729 24.001 26V25C24.0028 23.5238 23.4586 22.099 22.473 21H26C27.0609 21 28.0783 21.4214 28.8284 22.1716C29.5786 22.9217 30 23.9391 30 25V26C30 26.5304 29.7893 27.0392 29.4142 27.4142C29.0391 27.7893 28.5304 28 28 28H23.466Z" fill="white"/>
</svg>
