<svg width="40" height="40" viewBox="0 0 40 40" fill="none" xmlns="http://www.w3.org/2000/svg">
<rect width="40" height="40" rx="20" fill="#155EEF"/>
<path d="M20.0002 12.2007L9.0542 16.3055L20.0002 21.7785L25.2136 19.1718L20.3228 17.6765C20.2221 17.7248 20.1119 17.75 20.0002 17.7502C19.8013 17.7502 19.6105 17.6712 19.4698 17.5305C19.3292 17.3899 19.2502 17.1991 19.2502 17.0002C19.2502 16.8013 19.3292 16.6105 19.4698 16.4699C19.6105 16.3292 19.8013 16.2502 20.0002 16.2502L19.8761 16.6534L20.7451 16.9208L20.7454 16.9234L22.0277 17.3155L29.3283 19.5617V20.131C29.2273 20.1997 29.1446 20.2921 29.0875 20.4C29.0303 20.5079 29.0003 20.6281 29.0002 20.7503C29.0003 20.8752 29.0316 20.9981 29.0913 21.1079C29.151 21.2176 29.2372 21.3107 29.342 21.3787C29.0006 22.6689 29.0002 25.5963 29.0002 26.7502C29.7502 27.2375 29.7502 27.2553 30.5002 26.7502C30.5002 25.5964 30.4998 22.6696 30.1584 21.3791C30.2633 21.311 30.3495 21.2179 30.4092 21.108C30.4688 20.9982 30.5001 20.8752 30.5002 20.7502C30.5002 20.628 30.4702 20.5075 30.4131 20.3995C30.3559 20.2914 30.2731 20.199 30.172 20.1302V18.9386L27.3912 18.083L30.9461 16.3055L20.0002 12.2007ZM13.6075 19.6721L12.9924 23.363C14.2193 23.5235 15.687 24.2366 17.0363 25.0799C17.8036 25.5595 18.5223 26.086 19.1061 26.5968C19.4629 26.909 19.7612 27.2085 20.0002 27.5032C20.2391 27.2085 20.5374 26.909 20.8943 26.5968C21.478 26.086 22.1967 25.5595 22.9641 25.0799C24.3133 24.2366 25.781 23.5235 27.008 23.363L26.3927 19.6721H26.0998L20.0002 22.7219L13.9005 19.6721H13.6075Z" fill="white"/>
</svg>
