<svg width="112" height="135" viewBox="0 0 112 135" fill="none" xmlns="http://www.w3.org/2000/svg">
<path d="M49.5475 0.189317C53.6535 0.220584 57.4309 2.44004 59.4568 6.01161L71.0903 26.5213C71.0989 26.5363 71.118 26.5417 71.1331 26.5333C71.1483 26.5249 71.1673 26.5303 71.1759 26.5454L96.5698 71.3142C96.5783 71.3292 96.573 71.3482 96.5579 71.3565C96.5429 71.3649 96.5375 71.3839 96.546 71.3989L110.391 95.8061C112.417 99.3776 112.384 103.759 110.304 107.299L97.7317 128.697C95.6517 132.237 91.8411 134.398 87.7353 134.367L62.9189 134.179C58.8129 134.148 55.0354 131.928 53.0095 128.357L39.1629 103.947C39.1546 103.933 39.1359 103.928 39.1214 103.936C39.1069 103.945 39.0882 103.94 39.0799 103.925L13.6852 59.155C13.6769 59.1403 13.682 59.1218 13.6966 59.1134C13.7112 59.105 13.7162 59.0864 13.7079 59.0718L2.07387 38.5612C0.0480471 34.9898 0.0814338 30.6088 2.16145 27.0686L14.7336 5.67093C16.8137 2.13068 20.6244 -0.0309323 24.7304 0.000334657L49.5475 0.189317Z" fill="#1836B2"/>
</svg>
