<svg width="1441" height="656" viewBox="0 0 1441 656" fill="none" xmlns="http://www.w3.org/2000/svg">
<g clip-path="url(#clip0_1_2)">
<rect width="1441" height="656" fill="#DCEFF9"/>
<path opacity="0.1" d="M1318.3 109.374C1326.38 109.436 1333.8 113.824 1337.79 120.886L1360.67 161.444C1360.69 161.474 1360.72 161.484 1360.75 161.467C1360.78 161.45 1360.82 161.461 1360.84 161.491L1410.78 250.012C1410.79 250.041 1410.78 250.078 1410.75 250.094C1410.73 250.11 1410.72 250.147 1410.73 250.176L1437.96 298.439C1441.94 305.501 1441.88 314.164 1437.79 321.164L1413.06 363.473C1408.97 370.473 1401.48 374.748 1393.41 374.686L1344.6 374.313C1336.53 374.251 1329.1 369.863 1325.11 362.801L1297.89 314.538C1297.87 314.508 1297.83 314.498 1297.8 314.515C1297.77 314.532 1297.74 314.522 1297.72 314.492L1247.78 225.97C1247.76 225.941 1247.77 225.904 1247.8 225.888C1247.83 225.871 1247.84 225.835 1247.82 225.806L1224.94 185.247C1220.96 178.185 1221.02 169.522 1225.11 162.522L1249.84 120.213C1253.93 113.213 1261.42 108.939 1269.5 109.001L1318.3 109.374Z" fill="#1836B2"/>
</g>
<defs>
<clipPath id="clip0_1_2">
<rect width="1441" height="656" fill="white"/>
</clipPath>
</defs>
</svg>
