<svg width="40" height="40" viewBox="0 0 40 40" fill="none" xmlns="http://www.w3.org/2000/svg">
<rect width="40" height="40" rx="20" fill="#155EEF"/>
<path fill-rule="evenodd" clip-rule="evenodd" d="M12.172 11.172C11 12.343 11 14.229 11 18V22C11 25.771 11 27.657 12.172 28.828C13.344 29.999 15.229 30 19 30H21C24.771 30 26.657 30 27.828 28.828C28.999 27.656 29 25.771 29 22V18C29 14.229 29 12.343 27.828 11.172C26.656 10.001 24.771 10 21 10H19C15.229 10 13.343 10 12.172 11.172ZM16 17.25C15.8011 17.25 15.6103 17.329 15.4697 17.4697C15.329 17.6103 15.25 17.8011 15.25 18C15.25 18.1989 15.329 18.3897 15.4697 18.5303C15.6103 18.671 15.8011 18.75 16 18.75H24C24.1989 18.75 24.3897 18.671 24.5303 18.5303C24.671 18.3897 24.75 18.1989 24.75 18C24.75 17.8011 24.671 17.6103 24.5303 17.4697C24.3897 17.329 24.1989 17.25 24 17.25H16ZM16 21.25C15.8011 21.25 15.6103 21.329 15.4697 21.4697C15.329 21.6103 15.25 21.8011 15.25 22C15.25 22.1989 15.329 22.3897 15.4697 22.5303C15.6103 22.671 15.8011 22.75 16 22.75H21C21.1989 22.75 21.3897 22.671 21.5303 22.5303C21.671 22.3897 21.75 22.1989 21.75 22C21.75 21.8011 21.671 21.6103 21.5303 21.4697C21.3897 21.329 21.1989 21.25 21 21.25H16Z" fill="white"/>
</svg>
