<svg width="12" height="10" viewBox="0 0 12 10" fill="none" xmlns="http://www.w3.org/2000/svg">
<path d="M0.195365 8.49817L9.72424 1.47459H2.66695C2.49015 1.47459 2.32059 1.42282 2.19556 1.33066C2.07054 1.2385 2.00031 1.11351 2.00031 0.983176C2.00031 0.852844 2.07054 0.72785 2.19556 0.635692C2.32059 0.543533 2.49015 0.491759 2.66695 0.491759H11.3334C11.5102 0.491759 11.6797 0.543533 11.8047 0.635692C11.9298 0.72785 12 0.852844 12 0.983176V7.3716C12 7.50193 11.9298 7.62692 11.8047 7.71908C11.6797 7.81124 11.5102 7.86302 11.3334 7.86302C11.1565 7.86302 10.987 7.81124 10.862 7.71908C10.7369 7.62692 10.6667 7.50193 10.6667 7.3716V2.16933L1.13867 9.19353C1.07673 9.23918 1.0032 9.2754 0.922274 9.30011C0.841347 9.32482 0.754611 9.33754 0.667017 9.33754C0.579423 9.33754 0.492686 9.32482 0.41176 9.30011C0.330834 9.2754 0.257303 9.23918 0.195365 9.19353C0.133427 9.14787 0.0842953 9.09367 0.0507746 9.03401C0.0172539 8.97436 0 8.91042 0 8.84585C0 8.78128 0.0172539 8.71734 0.0507746 8.65769C0.0842953 8.59803 0.133427 8.54383 0.195365 8.49817Z" fill="white"/>
</svg>
