<?xml version="1.0" encoding="UTF-8"?>
<svg xmlns="http://www.w3.org/2000/svg" xmlns:xlink="http://www.w3.org/1999/xlink" width="1440px" height="791px" viewBox="0 0 1440 791" version="1.1">
<defs>
<filter id="alpha" filterUnits="objectBoundingBox" x="0%" y="0%" width="100%" height="100%">
  <feColorMatrix type="matrix" in="SourceGraphic" values="0 0 0 0 1 0 0 0 0 1 0 0 0 0 1 0 0 0 1 0"/>
</filter>
<mask id="mask0">
  <g filter="url(#alpha)">
<rect x="0" y="0" width="1440" height="791" style="fill:rgb(0%,0%,0%);fill-opacity:0.2;stroke:none;"/>
  </g>
</mask>
<clipPath id="clip1">
  <rect x="0" y="0" width="1440" height="791"/>
</clipPath>
<g id="surface5" clip-path="url(#clip1)">
<path style=" stroke:none;fill-rule:nonzero;fill:rgb(18.039216%,32.549021%,74.509805%);fill-opacity:1;" d="M 1281.851562 885.054688 L 1253.140625 836.191406 L 1281.101562 786.890625 L 1337.765625 786.457031 L 1366.476562 835.324219 L 1338.515625 884.628906 Z M 1281.851562 885.054688 "/>
</g>
<mask id="mask1">
  <g filter="url(#alpha)">
<rect x="0" y="0" width="1440" height="791" style="fill:rgb(0%,0%,0%);fill-opacity:0.101961;stroke:none;"/>
  </g>
</mask>
<clipPath id="clip2">
  <rect x="0" y="0" width="1440" height="791"/>
</clipPath>
<g id="surface8" clip-path="url(#clip2)">
<path style=" stroke:none;fill-rule:nonzero;fill:rgb(52.549022%,78.039217%,92.941177%);fill-opacity:1;" d="M 777.777344 181.984375 C 775.03125 177.203125 775.03125 171.3125 777.777344 166.53125 L 794.390625 137.632812 C 797.140625 132.851562 802.222656 129.90625 807.71875 129.90625 L 840.941406 129.90625 C 846.441406 129.90625 851.523438 132.851562 854.265625 137.632812 L 870.882812 166.53125 C 873.632812 171.3125 873.632812 177.203125 870.882812 181.984375 L 854.265625 210.878906 C 851.523438 215.660156 846.441406 218.605469 840.941406 218.605469 L 807.71875 218.605469 C 802.222656 218.605469 797.140625 215.660156 794.390625 210.878906 Z M 777.777344 181.984375 "/>
<path style=" stroke:none;fill-rule:nonzero;fill:rgb(9.411765%,21.176471%,69.803923%);fill-opacity:1;" d="M 890.542969 38.683594 C 896.042969 38.726562 901.101562 41.710938 903.808594 46.511719 L 919.390625 74.089844 C 919.398438 74.109375 919.425781 74.117188 919.441406 74.105469 C 919.464844 74.09375 919.492188 74.101562 919.5 74.121094 L 953.5 134.3125 C 953.507812 134.332031 953.507812 134.359375 953.484375 134.367188 C 953.464844 134.378906 953.457031 134.402344 953.464844 134.425781 L 972.007812 167.242188 C 974.714844 172.042969 974.675781 177.933594 971.890625 182.695312 L 955.058594 211.460938 C 952.273438 216.222656 947.175781 219.128906 941.675781 219.085938 L 908.449219 218.832031 C 902.949219 218.792969 897.890625 215.808594 895.183594 211.003906 L 876.648438 178.1875 C 876.632812 178.167969 876.609375 178.160156 876.589844 178.171875 C 876.566406 178.183594 876.542969 178.175781 876.535156 178.15625 L 842.535156 117.964844 C 842.523438 117.945312 842.535156 117.917969 842.550781 117.910156 C 842.566406 117.898438 842.574219 117.875 842.566406 117.851562 L 826.988281 90.273438 C 824.273438 85.472656 824.320312 79.582031 827.105469 74.824219 L 843.933594 46.054688 C 846.726562 41.292969 851.824219 38.386719 857.316406 38.429688 Z M 890.542969 38.683594 "/>
</g>
<mask id="mask2">
  <g filter="url(#alpha)">
<rect x="0" y="0" width="1440" height="791" style="fill:rgb(0%,0%,0%);fill-opacity:0.101961;stroke:none;"/>
  </g>
</mask>
<clipPath id="clip3">
  <rect x="0" y="0" width="1440" height="791"/>
</clipPath>
<g id="surface11" clip-path="url(#clip3)">
<path style=" stroke:none;fill-rule:nonzero;fill:rgb(52.549022%,78.039217%,92.941177%);fill-opacity:1;" d="M -22.058594 416.960938 C -25.421875 411.101562 -25.421875 403.878906 -22.058594 398.019531 L -1.722656 362.597656 C 1.640625 356.734375 7.859375 353.125 14.589844 353.125 L 55.257812 353.125 C 61.988281 353.125 68.207031 356.734375 71.570312 362.597656 L 91.90625 398.019531 C 95.269531 403.878906 95.269531 411.101562 91.90625 416.960938 L 71.570312 452.382812 C 68.207031 458.242188 61.988281 461.855469 55.257812 461.855469 L 14.589844 461.855469 C 7.859375 461.855469 1.640625 458.242188 -1.722656 452.382812 Z M -22.058594 416.960938 "/>
<path style=" stroke:none;fill-rule:nonzero;fill:rgb(9.411765%,21.176471%,69.803923%);fill-opacity:1;" d="M 115.976562 241.304688 C 122.703125 241.355469 128.894531 245.011719 132.214844 250.898438 L 151.28125 284.703125 C 151.296875 284.726562 151.328125 284.738281 151.351562 284.722656 C 151.375 284.710938 151.40625 284.71875 151.421875 284.742188 L 193.039062 358.527344 C 193.050781 358.550781 193.042969 358.582031 193.019531 358.59375 C 192.996094 358.609375 192.988281 358.640625 193 358.664062 L 215.691406 398.890625 C 219.011719 404.777344 218.957031 411.996094 215.546875 417.832031 L 194.945312 453.097656 C 191.535156 458.933594 185.289062 462.496094 178.5625 462.441406 L 137.890625 462.132812 C 131.164062 462.082031 124.972656 458.421875 121.652344 452.535156 L 98.960938 412.308594 C 98.949219 412.285156 98.917969 412.277344 98.894531 412.289062 C 98.867188 412.304688 98.835938 412.296875 98.824219 412.269531 L 57.207031 338.488281 C 57.191406 338.464844 57.203125 338.433594 57.226562 338.417969 C 57.25 338.40625 57.257812 338.375 57.242188 338.351562 L 38.175781 304.542969 C 34.855469 298.65625 34.910156 291.4375 38.320312 285.601562 L 58.921875 250.335938 C 62.332031 244.503906 68.578125 240.941406 75.304688 240.992188 Z M 115.976562 241.304688 "/>
</g>
<mask id="mask3">
  <g filter="url(#alpha)">
<rect x="0" y="0" width="1440" height="791" style="fill:rgb(0%,0%,0%);fill-opacity:0.2;stroke:none;"/>
  </g>
</mask>
<clipPath id="clip4">
  <rect x="0" y="0" width="1440" height="791"/>
</clipPath>
<g id="surface14" clip-path="url(#clip4)">
<path style=" stroke:none;fill-rule:nonzero;fill:rgb(52.549022%,78.039217%,92.941177%);fill-opacity:1;" d="M 1277.785156 753.769531 C 1275.035156 748.988281 1275.035156 743.097656 1277.785156 738.316406 L 1294.390625 709.421875 C 1297.140625 704.640625 1302.214844 701.695312 1307.714844 701.695312 L 1340.941406 701.695312 C 1346.441406 701.695312 1351.523438 704.640625 1354.265625 709.421875 L 1370.882812 738.316406 C 1373.632812 743.097656 1373.632812 748.988281 1370.882812 753.769531 L 1354.265625 782.667969 C 1351.523438 787.449219 1346.441406 790.394531 1340.941406 790.394531 L 1307.714844 790.394531 C 1302.214844 790.394531 1297.140625 787.449219 1294.390625 782.667969 Z M 1277.785156 753.769531 "/>
<path style=" stroke:none;fill-rule:nonzero;fill:rgb(9.411765%,21.176471%,69.803923%);fill-opacity:1;" d="M 1390.542969 610.46875 C 1396.042969 610.511719 1401.101562 613.496094 1403.808594 618.296875 L 1419.390625 645.875 C 1419.398438 645.894531 1419.425781 645.902344 1419.441406 645.890625 C 1419.464844 645.878906 1419.492188 645.886719 1419.5 645.90625 L 1453.5 706.101562 C 1453.515625 706.121094 1453.507812 706.144531 1453.484375 706.15625 C 1453.464844 706.167969 1453.457031 706.191406 1453.464844 706.210938 L 1472.007812 739.027344 C 1474.714844 743.832031 1474.675781 749.71875 1471.890625 754.480469 L 1455.058594 783.25 C 1452.273438 788.007812 1447.175781 790.914062 1441.675781 790.875 L 1408.449219 790.621094 C 1402.949219 790.578125 1397.890625 787.59375 1395.183594 782.792969 L 1376.648438 749.976562 C 1376.632812 749.957031 1376.609375 749.949219 1376.589844 749.960938 C 1376.566406 749.972656 1376.542969 749.964844 1376.535156 749.945312 L 1342.535156 689.753906 C 1342.523438 689.730469 1342.535156 689.707031 1342.550781 689.695312 C 1342.566406 689.683594 1342.574219 689.660156 1342.566406 689.640625 L 1326.984375 662.0625 C 1324.273438 657.257812 1324.316406 651.367188 1327.109375 646.609375 L 1343.933594 617.839844 C 1346.726562 613.082031 1351.824219 610.175781 1357.316406 610.21875 Z M 1390.542969 610.46875 "/>
</g>
</defs>
<g id="surface1">
<rect x="0" y="0" width="1440" height="791" style="fill:rgb(11.764706%,11.764706%,11.764706%);fill-opacity:1;stroke:none;"/>
<rect x="0" y="0" width="1440" height="791" style="fill:rgb(9.411765%,21.176471%,69.803923%);fill-opacity:1;stroke:none;"/>
<use xlink:href="#surface5" mask="url(#mask0)"/>
<use xlink:href="#surface8" mask="url(#mask1)"/>
<use xlink:href="#surface11" mask="url(#mask2)"/>
<use xlink:href="#surface14" mask="url(#mask3)"/>
</g>
</svg>
