<svg width="1647" height="897" viewBox="0 0 1647 897" fill="none" xmlns="http://www.w3.org/2000/svg">
<g clip-path="url(#clip0_25_2974)">
<mask id="mask0_25_2974" style="mask-type:alpha" maskUnits="userSpaceOnUse" x="104" y="-378" width="1440" height="1440">
<rect width="1440" height="1440" transform="translate(104 -378)" fill="url(#paint0_radial_25_2974)"/>
</mask>
<g mask="url(#mask0_25_2974)">
<g clip-path="url(#clip1_25_2974)">
<mask id="path-3-inside-1_25_2974" fill="white">
<path d="M56 -58H120V6H56V-58Z"/>
</mask>
<path d="M120 6V7H121V6H120ZM119 -58V6H121V-58H119ZM120 5H56V7H120V5Z" fill="#D0D5DD" mask="url(#path-3-inside-1_25_2974)"/>
<mask id="path-5-inside-2_25_2974" fill="white">
<path d="M120 -58H184V6H120V-58Z"/>
</mask>
<path d="M184 6V7H185V6H184ZM183 -58V6H185V-58H183ZM184 5H120V7H184V5Z" fill="#D0D5DD" mask="url(#path-5-inside-2_25_2974)"/>
<mask id="path-7-inside-3_25_2974" fill="white">
<path d="M184 -58H248V6H184V-58Z"/>
</mask>
<path d="M248 6V7H249V6H248ZM247 -58V6H249V-58H247ZM248 5H184V7H248V5Z" fill="#D0D5DD" mask="url(#path-7-inside-3_25_2974)"/>
<mask id="path-9-inside-4_25_2974" fill="white">
<path d="M248 -58H312V6H248V-58Z"/>
</mask>
<path d="M312 6V7H313V6H312ZM311 -58V6H313V-58H311ZM312 5H248V7H312V5Z" fill="#D0D5DD" mask="url(#path-9-inside-4_25_2974)"/>
<mask id="path-11-inside-5_25_2974" fill="white">
<path d="M312 -58H376V6H312V-58Z"/>
</mask>
<path d="M376 6V7H377V6H376ZM375 -58V6H377V-58H375ZM376 5H312V7H376V5Z" fill="#D0D5DD" mask="url(#path-11-inside-5_25_2974)"/>
<mask id="path-13-inside-6_25_2974" fill="white">
<path d="M376 -58H440V6H376V-58Z"/>
</mask>
<path d="M440 6V7H441V6H440ZM439 -58V6H441V-58H439ZM440 5H376V7H440V5Z" fill="#D0D5DD" mask="url(#path-13-inside-6_25_2974)"/>
<mask id="path-15-inside-7_25_2974" fill="white">
<path d="M440 -58H504V6H440V-58Z"/>
</mask>
<path d="M504 6V7H505V6H504ZM503 -58V6H505V-58H503ZM504 5H440V7H504V5Z" fill="#D0D5DD" mask="url(#path-15-inside-7_25_2974)"/>
<mask id="path-17-inside-8_25_2974" fill="white">
<path d="M504 -58H568V6H504V-58Z"/>
</mask>
<path d="M568 6V7H569V6H568ZM567 -58V6H569V-58H567ZM568 5H504V7H568V5Z" fill="#D0D5DD" mask="url(#path-17-inside-8_25_2974)"/>
<mask id="path-19-inside-9_25_2974" fill="white">
<path d="M568 -58H632V6H568V-58Z"/>
</mask>
<path d="M568 -58H632V6H568V-58Z" fill="#F2F4F7"/>
<path d="M632 6V7H633V6H632ZM631 -58V6H633V-58H631ZM632 5H568V7H632V5Z" fill="#D0D5DD" mask="url(#path-19-inside-9_25_2974)"/>
<mask id="path-21-inside-10_25_2974" fill="white">
<path d="M632 -58H696V6H632V-58Z"/>
</mask>
<path d="M696 6V7H697V6H696ZM695 -58V6H697V-58H695ZM696 5H632V7H696V5Z" fill="#D0D5DD" mask="url(#path-21-inside-10_25_2974)"/>
<mask id="path-23-inside-11_25_2974" fill="white">
<path d="M696 -58H760V6H696V-58Z"/>
</mask>
<path d="M760 6V7H761V6H760ZM759 -58V6H761V-58H759ZM760 5H696V7H760V5Z" fill="#D0D5DD" mask="url(#path-23-inside-11_25_2974)"/>
<mask id="path-25-inside-12_25_2974" fill="white">
<path d="M760 -58H824V6H760V-58Z"/>
</mask>
<path d="M824 6V7H825V6H824ZM823 -58V6H825V-58H823ZM824 5H760V7H824V5Z" fill="#D0D5DD" mask="url(#path-25-inside-12_25_2974)"/>
<mask id="path-27-inside-13_25_2974" fill="white">
<path d="M824 -58H888V6H824V-58Z"/>
</mask>
<path d="M888 6V7H889V6H888ZM887 -58V6H889V-58H887ZM888 5H824V7H888V5Z" fill="#D0D5DD" mask="url(#path-27-inside-13_25_2974)"/>
<mask id="path-29-inside-14_25_2974" fill="white">
<path d="M888 -58H952V6H888V-58Z"/>
</mask>
<path d="M952 6V7H953V6H952ZM951 -58V6H953V-58H951ZM952 5H888V7H952V5Z" fill="#D0D5DD" mask="url(#path-29-inside-14_25_2974)"/>
<mask id="path-31-inside-15_25_2974" fill="white">
<path d="M952 -58H1016V6H952V-58Z"/>
</mask>
<path d="M952 -58H1016V6H952V-58Z" fill="#F2F4F7"/>
<path d="M1016 6V7H1017V6H1016ZM1015 -58V6H1017V-58H1015ZM1016 5H952V7H1016V5Z" fill="#D0D5DD" mask="url(#path-31-inside-15_25_2974)"/>
<mask id="path-33-inside-16_25_2974" fill="white">
<path d="M1016 -58H1080V6H1016V-58Z"/>
</mask>
<path d="M1080 6V7H1081V6H1080ZM1079 -58V6H1081V-58H1079ZM1080 5H1016V7H1080V5Z" fill="#D0D5DD" mask="url(#path-33-inside-16_25_2974)"/>
<mask id="path-35-inside-17_25_2974" fill="white">
<path d="M1080 -58H1144V6H1080V-58Z"/>
</mask>
<path d="M1144 6V7H1145V6H1144ZM1143 -58V6H1145V-58H1143ZM1144 5H1080V7H1144V5Z" fill="#D0D5DD" mask="url(#path-35-inside-17_25_2974)"/>
<mask id="path-37-inside-18_25_2974" fill="white">
<path d="M1144 -58H1208V6H1144V-58Z"/>
</mask>
<path d="M1144 -58H1208V6H1144V-58Z" fill="#F2F4F7"/>
<path d="M1208 6V7H1209V6H1208ZM1207 -58V6H1209V-58H1207ZM1208 5H1144V7H1208V5Z" fill="#D0D5DD" mask="url(#path-37-inside-18_25_2974)"/>
<mask id="path-39-inside-19_25_2974" fill="white">
<path d="M1208 -58H1272V6H1208V-58Z"/>
</mask>
<path d="M1272 6V7H1273V6H1272ZM1271 -58V6H1273V-58H1271ZM1272 5H1208V7H1272V5Z" fill="#D0D5DD" mask="url(#path-39-inside-19_25_2974)"/>
<mask id="path-41-inside-20_25_2974" fill="white">
<path d="M1272 -58H1336V6H1272V-58Z"/>
</mask>
<path d="M1336 6V7H1337V6H1336ZM1335 -58V6H1337V-58H1335ZM1336 5H1272V7H1336V5Z" fill="#D0D5DD" mask="url(#path-41-inside-20_25_2974)"/>
<mask id="path-43-inside-21_25_2974" fill="white">
<path d="M1336 -58H1400V6H1336V-58Z"/>
</mask>
<path d="M1400 6V7H1401V6H1400ZM1399 -58V6H1401V-58H1399ZM1400 5H1336V7H1400V5Z" fill="#D0D5DD" mask="url(#path-43-inside-21_25_2974)"/>
<mask id="path-45-inside-22_25_2974" fill="white">
<path d="M1400 -58H1464V6H1400V-58Z"/>
</mask>
<path d="M1464 6V7H1465V6H1464ZM1463 -58V6H1465V-58H1463ZM1464 5H1400V7H1464V5Z" fill="#D0D5DD" mask="url(#path-45-inside-22_25_2974)"/>
<mask id="path-47-inside-23_25_2974" fill="white">
<path d="M1464 -58H1528V6H1464V-58Z"/>
</mask>
<path d="M1528 6V7H1529V6H1528ZM1527 -58V6H1529V-58H1527ZM1528 5H1464V7H1528V5Z" fill="#D0D5DD" mask="url(#path-47-inside-23_25_2974)"/>
<mask id="path-49-inside-24_25_2974" fill="white">
<path d="M1528 -58H1592V6H1528V-58Z"/>
</mask>
<path d="M1592 6V7H1593V6H1592ZM1591 -58V6H1593V-58H1591ZM1592 5H1528V7H1592V5Z" fill="#D0D5DD" mask="url(#path-49-inside-24_25_2974)"/>
<mask id="path-51-inside-25_25_2974" fill="white">
<path d="M56 6H120V70H56V6Z"/>
</mask>
<path d="M120 70V71H121V70H120ZM119 6V70H121V6H119ZM120 69H56V71H120V69Z" fill="#D0D5DD" mask="url(#path-51-inside-25_25_2974)"/>
<mask id="path-53-inside-26_25_2974" fill="white">
<path d="M120 6H184V70H120V6Z"/>
</mask>
<path d="M184 70V71H185V70H184ZM183 6V70H185V6H183ZM184 69H120V71H184V69Z" fill="#D0D5DD" mask="url(#path-53-inside-26_25_2974)"/>
<mask id="path-55-inside-27_25_2974" fill="white">
<path d="M184 6H248V70H184V6Z"/>
</mask>
<path d="M248 70V71H249V70H248ZM247 6V70H249V6H247ZM248 69H184V71H248V69Z" fill="#D0D5DD" mask="url(#path-55-inside-27_25_2974)"/>
<mask id="path-57-inside-28_25_2974" fill="white">
<path d="M248 6H312V70H248V6Z"/>
</mask>
<path d="M312 70V71H313V70H312ZM311 6V70H313V6H311ZM312 69H248V71H312V69Z" fill="#D0D5DD" mask="url(#path-57-inside-28_25_2974)"/>
<mask id="path-59-inside-29_25_2974" fill="white">
<path d="M312 6H376V70H312V6Z"/>
</mask>
<path d="M312 6H376V70H312V6Z" fill="#F2F4F7"/>
<path d="M376 70V71H377V70H376ZM375 6V70H377V6H375ZM376 69H312V71H376V69Z" fill="#D0D5DD" mask="url(#path-59-inside-29_25_2974)"/>
<mask id="path-61-inside-30_25_2974" fill="white">
<path d="M376 6H440V70H376V6Z"/>
</mask>
<path d="M440 70V71H441V70H440ZM439 6V70H441V6H439ZM440 69H376V71H440V69Z" fill="#D0D5DD" mask="url(#path-61-inside-30_25_2974)"/>
<mask id="path-63-inside-31_25_2974" fill="white">
<path d="M440 6H504V70H440V6Z"/>
</mask>
<path d="M504 70V71H505V70H504ZM503 6V70H505V6H503ZM504 69H440V71H504V69Z" fill="#D0D5DD" mask="url(#path-63-inside-31_25_2974)"/>
<mask id="path-65-inside-32_25_2974" fill="white">
<path d="M504 6H568V70H504V6Z"/>
</mask>
<path d="M568 70V71H569V70H568ZM567 6V70H569V6H567ZM568 69H504V71H568V69Z" fill="#D0D5DD" mask="url(#path-65-inside-32_25_2974)"/>
<mask id="path-67-inside-33_25_2974" fill="white">
<path d="M568 6H632V70H568V6Z"/>
</mask>
<path d="M632 70V71H633V70H632ZM631 6V70H633V6H631ZM632 69H568V71H632V69Z" fill="#D0D5DD" mask="url(#path-67-inside-33_25_2974)"/>
<mask id="path-69-inside-34_25_2974" fill="white">
<path d="M632 6H696V70H632V6Z"/>
</mask>
<path d="M696 70V71H697V70H696ZM695 6V70H697V6H695ZM696 69H632V71H696V69Z" fill="#D0D5DD" mask="url(#path-69-inside-34_25_2974)"/>
<mask id="path-71-inside-35_25_2974" fill="white">
<path d="M696 6H760V70H696V6Z"/>
</mask>
<path d="M760 70V71H761V70H760ZM759 6V70H761V6H759ZM760 69H696V71H760V69Z" fill="#D0D5DD" mask="url(#path-71-inside-35_25_2974)"/>
<mask id="path-73-inside-36_25_2974" fill="white">
<path d="M760 6H824V70H760V6Z"/>
</mask>
<path d="M760 6H824V70H760V6Z" fill="#F2F4F7"/>
<path d="M824 70V71H825V70H824ZM823 6V70H825V6H823ZM824 69H760V71H824V69Z" fill="#D0D5DD" mask="url(#path-73-inside-36_25_2974)"/>
<mask id="path-75-inside-37_25_2974" fill="white">
<path d="M824 6H888V70H824V6Z"/>
</mask>
<path d="M888 70V71H889V70H888ZM887 6V70H889V6H887ZM888 69H824V71H888V69Z" fill="#D0D5DD" mask="url(#path-75-inside-37_25_2974)"/>
<mask id="path-77-inside-38_25_2974" fill="white">
<path d="M888 6H952V70H888V6Z"/>
</mask>
<path d="M952 70V71H953V70H952ZM951 6V70H953V6H951ZM952 69H888V71H952V69Z" fill="#D0D5DD" mask="url(#path-77-inside-38_25_2974)"/>
<mask id="path-79-inside-39_25_2974" fill="white">
<path d="M952 6H1016V70H952V6Z"/>
</mask>
<path d="M1016 70V71H1017V70H1016ZM1015 6V70H1017V6H1015ZM1016 69H952V71H1016V69Z" fill="#D0D5DD" mask="url(#path-79-inside-39_25_2974)"/>
<mask id="path-81-inside-40_25_2974" fill="white">
<path d="M1016 6H1080V70H1016V6Z"/>
</mask>
<path d="M1080 70V71H1081V70H1080ZM1079 6V70H1081V6H1079ZM1080 69H1016V71H1080V69Z" fill="#D0D5DD" mask="url(#path-81-inside-40_25_2974)"/>
<mask id="path-83-inside-41_25_2974" fill="white">
<path d="M1080 6H1144V70H1080V6Z"/>
</mask>
<path d="M1144 70V71H1145V70H1144ZM1143 6V70H1145V6H1143ZM1144 69H1080V71H1144V69Z" fill="#D0D5DD" mask="url(#path-83-inside-41_25_2974)"/>
<mask id="path-85-inside-42_25_2974" fill="white">
<path d="M1144 6H1208V70H1144V6Z"/>
</mask>
<path d="M1208 70V71H1209V70H1208ZM1207 6V70H1209V6H1207ZM1208 69H1144V71H1208V69Z" fill="#D0D5DD" mask="url(#path-85-inside-42_25_2974)"/>
<mask id="path-87-inside-43_25_2974" fill="white">
<path d="M1208 6H1272V70H1208V6Z"/>
</mask>
<path d="M1272 70V71H1273V70H1272ZM1271 6V70H1273V6H1271ZM1272 69H1208V71H1272V69Z" fill="#D0D5DD" mask="url(#path-87-inside-43_25_2974)"/>
<mask id="path-89-inside-44_25_2974" fill="white">
<path d="M1272 6H1336V70H1272V6Z"/>
</mask>
<path d="M1336 70V71H1337V70H1336ZM1335 6V70H1337V6H1335ZM1336 69H1272V71H1336V69Z" fill="#D0D5DD" mask="url(#path-89-inside-44_25_2974)"/>
<mask id="path-91-inside-45_25_2974" fill="white">
<path d="M1336 6H1400V70H1336V6Z"/>
</mask>
<path d="M1336 6H1400V70H1336V6Z" fill="#F2F4F7"/>
<path d="M1400 70V71H1401V70H1400ZM1399 6V70H1401V6H1399ZM1400 69H1336V71H1400V69Z" fill="#D0D5DD" mask="url(#path-91-inside-45_25_2974)"/>
<mask id="path-93-inside-46_25_2974" fill="white">
<path d="M1400 6H1464V70H1400V6Z"/>
</mask>
<path d="M1464 70V71H1465V70H1464ZM1463 6V70H1465V6H1463ZM1464 69H1400V71H1464V69Z" fill="#D0D5DD" mask="url(#path-93-inside-46_25_2974)"/>
<mask id="path-95-inside-47_25_2974" fill="white">
<path d="M1464 6H1528V70H1464V6Z"/>
</mask>
<path d="M1528 70V71H1529V70H1528ZM1527 6V70H1529V6H1527ZM1528 69H1464V71H1528V69Z" fill="#D0D5DD" mask="url(#path-95-inside-47_25_2974)"/>
<mask id="path-97-inside-48_25_2974" fill="white">
<path d="M1528 6H1592V70H1528V6Z"/>
</mask>
<path d="M1592 70V71H1593V70H1592ZM1591 6V70H1593V6H1591ZM1592 69H1528V71H1592V69Z" fill="#D0D5DD" mask="url(#path-97-inside-48_25_2974)"/>
<mask id="path-99-inside-49_25_2974" fill="white">
<path d="M56 70H120V134H56V70Z"/>
</mask>
<path d="M120 134V135H121V134H120ZM119 70V134H121V70H119ZM120 133H56V135H120V133Z" fill="#D0D5DD" mask="url(#path-99-inside-49_25_2974)"/>
<mask id="path-101-inside-50_25_2974" fill="white">
<path d="M120 70H184V134H120V70Z"/>
</mask>
<path d="M184 134V135H185V134H184ZM183 70V134H185V70H183ZM184 133H120V135H184V133Z" fill="#D0D5DD" mask="url(#path-101-inside-50_25_2974)"/>
<mask id="path-103-inside-51_25_2974" fill="white">
<path d="M184 70H248V134H184V70Z"/>
</mask>
<path d="M248 134V135H249V134H248ZM247 70V134H249V70H247ZM248 133H184V135H248V133Z" fill="#D0D5DD" mask="url(#path-103-inside-51_25_2974)"/>
<mask id="path-105-inside-52_25_2974" fill="white">
<path d="M248 70H312V134H248V70Z"/>
</mask>
<path d="M312 134V135H313V134H312ZM311 70V134H313V70H311ZM312 133H248V135H312V133Z" fill="#D0D5DD" mask="url(#path-105-inside-52_25_2974)"/>
<mask id="path-107-inside-53_25_2974" fill="white">
<path d="M312 70H376V134H312V70Z"/>
</mask>
<path d="M376 134V135H377V134H376ZM375 70V134H377V70H375ZM376 133H312V135H376V133Z" fill="#D0D5DD" mask="url(#path-107-inside-53_25_2974)"/>
<mask id="path-109-inside-54_25_2974" fill="white">
<path d="M376 70H440V134H376V70Z"/>
</mask>
<path d="M440 134V135H441V134H440ZM439 70V134H441V70H439ZM440 133H376V135H440V133Z" fill="#D0D5DD" mask="url(#path-109-inside-54_25_2974)"/>
<mask id="path-111-inside-55_25_2974" fill="white">
<path d="M440 70H504V134H440V70Z"/>
</mask>
<path d="M504 134V135H505V134H504ZM503 70V134H505V70H503ZM504 133H440V135H504V133Z" fill="#D0D5DD" mask="url(#path-111-inside-55_25_2974)"/>
<mask id="path-113-inside-56_25_2974" fill="white">
<path d="M504 70H568V134H504V70Z"/>
</mask>
<path d="M568 134V135H569V134H568ZM567 70V134H569V70H567ZM568 133H504V135H568V133Z" fill="#D0D5DD" mask="url(#path-113-inside-56_25_2974)"/>
<mask id="path-115-inside-57_25_2974" fill="white">
<path d="M568 70H632V134H568V70Z"/>
</mask>
<path d="M632 134V135H633V134H632ZM631 70V134H633V70H631ZM632 133H568V135H632V133Z" fill="#D0D5DD" mask="url(#path-115-inside-57_25_2974)"/>
<mask id="path-117-inside-58_25_2974" fill="white">
<path d="M632 70H696V134H632V70Z"/>
</mask>
<path d="M632 70H696V134H632V70Z" fill="#F2F4F7"/>
<path d="M696 134V135H697V134H696ZM695 70V134H697V70H695ZM696 133H632V135H696V133Z" fill="#D0D5DD" mask="url(#path-117-inside-58_25_2974)"/>
<mask id="path-119-inside-59_25_2974" fill="white">
<path d="M696 70H760V134H696V70Z"/>
</mask>
<path d="M760 134V135H761V134H760ZM759 70V134H761V70H759ZM760 133H696V135H760V133Z" fill="#D0D5DD" mask="url(#path-119-inside-59_25_2974)"/>
<mask id="path-121-inside-60_25_2974" fill="white">
<path d="M760 70H824V134H760V70Z"/>
</mask>
<path d="M824 134V135H825V134H824ZM823 70V134H825V70H823ZM824 133H760V135H824V133Z" fill="#D0D5DD" mask="url(#path-121-inside-60_25_2974)"/>
<mask id="path-123-inside-61_25_2974" fill="white">
<path d="M824 70H888V134H824V70Z"/>
</mask>
<path d="M888 134V135H889V134H888ZM887 70V134H889V70H887ZM888 133H824V135H888V133Z" fill="#D0D5DD" mask="url(#path-123-inside-61_25_2974)"/>
<mask id="path-125-inside-62_25_2974" fill="white">
<path d="M888 70H952V134H888V70Z"/>
</mask>
<path d="M952 134V135H953V134H952ZM951 70V134H953V70H951ZM952 133H888V135H952V133Z" fill="#D0D5DD" mask="url(#path-125-inside-62_25_2974)"/>
<mask id="path-127-inside-63_25_2974" fill="white">
<path d="M952 70H1016V134H952V70Z"/>
</mask>
<path d="M1016 134V135H1017V134H1016ZM1015 70V134H1017V70H1015ZM1016 133H952V135H1016V133Z" fill="#D0D5DD" mask="url(#path-127-inside-63_25_2974)"/>
<mask id="path-129-inside-64_25_2974" fill="white">
<path d="M1016 70H1080V134H1016V70Z"/>
</mask>
<path d="M1016 70H1080V134H1016V70Z" fill="#F2F4F7"/>
<path d="M1080 134V135H1081V134H1080ZM1079 70V134H1081V70H1079ZM1080 133H1016V135H1080V133Z" fill="#D0D5DD" mask="url(#path-129-inside-64_25_2974)"/>
<mask id="path-131-inside-65_25_2974" fill="white">
<path d="M1080 70H1144V134H1080V70Z"/>
</mask>
<path d="M1144 134V135H1145V134H1144ZM1143 70V134H1145V70H1143ZM1144 133H1080V135H1144V133Z" fill="#D0D5DD" mask="url(#path-131-inside-65_25_2974)"/>
<mask id="path-133-inside-66_25_2974" fill="white">
<path d="M1144 70H1208V134H1144V70Z"/>
</mask>
<path d="M1208 134V135H1209V134H1208ZM1207 70V134H1209V70H1207ZM1208 133H1144V135H1208V133Z" fill="#D0D5DD" mask="url(#path-133-inside-66_25_2974)"/>
<mask id="path-135-inside-67_25_2974" fill="white">
<path d="M1208 70H1272V134H1208V70Z"/>
</mask>
<path d="M1272 134V135H1273V134H1272ZM1271 70V134H1273V70H1271ZM1272 133H1208V135H1272V133Z" fill="#D0D5DD" mask="url(#path-135-inside-67_25_2974)"/>
<mask id="path-137-inside-68_25_2974" fill="white">
<path d="M1272 70H1336V134H1272V70Z"/>
</mask>
<path d="M1336 134V135H1337V134H1336ZM1335 70V134H1337V70H1335ZM1336 133H1272V135H1336V133Z" fill="#D0D5DD" mask="url(#path-137-inside-68_25_2974)"/>
<mask id="path-139-inside-69_25_2974" fill="white">
<path d="M1336 70H1400V134H1336V70Z"/>
</mask>
<path d="M1400 134V135H1401V134H1400ZM1399 70V134H1401V70H1399ZM1400 133H1336V135H1400V133Z" fill="#D0D5DD" mask="url(#path-139-inside-69_25_2974)"/>
<mask id="path-141-inside-70_25_2974" fill="white">
<path d="M1400 70H1464V134H1400V70Z"/>
</mask>
<path d="M1464 134V135H1465V134H1464ZM1463 70V134H1465V70H1463ZM1464 133H1400V135H1464V133Z" fill="#D0D5DD" mask="url(#path-141-inside-70_25_2974)"/>
<mask id="path-143-inside-71_25_2974" fill="white">
<path d="M1464 70H1528V134H1464V70Z"/>
</mask>
<path d="M1528 134V135H1529V134H1528ZM1527 70V134H1529V70H1527ZM1528 133H1464V135H1528V133Z" fill="#D0D5DD" mask="url(#path-143-inside-71_25_2974)"/>
<mask id="path-145-inside-72_25_2974" fill="white">
<path d="M1528 70H1592V134H1528V70Z"/>
</mask>
<path d="M1528 70H1592V134H1528V70Z" fill="#F2F4F7"/>
<path d="M1592 134V135H1593V134H1592ZM1591 70V134H1593V70H1591ZM1592 133H1528V135H1592V133Z" fill="#D0D5DD" mask="url(#path-145-inside-72_25_2974)"/>
<mask id="path-147-inside-73_25_2974" fill="white">
<path d="M56 134H120V198H56V134Z"/>
</mask>
<path d="M120 198V199H121V198H120ZM119 134V198H121V134H119ZM120 197H56V199H120V197Z" fill="#D0D5DD" mask="url(#path-147-inside-73_25_2974)"/>
<mask id="path-149-inside-74_25_2974" fill="white">
<path d="M120 134H184V198H120V134Z"/>
</mask>
<path d="M184 198V199H185V198H184ZM183 134V198H185V134H183ZM184 197H120V199H184V197Z" fill="#D0D5DD" mask="url(#path-149-inside-74_25_2974)"/>
<mask id="path-151-inside-75_25_2974" fill="white">
<path d="M184 134H248V198H184V134Z"/>
</mask>
<path d="M184 134H248V198H184V134Z" fill="#F2F4F7"/>
<path d="M248 198V199H249V198H248ZM247 134V198H249V134H247ZM248 197H184V199H248V197Z" fill="#D0D5DD" mask="url(#path-151-inside-75_25_2974)"/>
<mask id="path-153-inside-76_25_2974" fill="white">
<path d="M248 134H312V198H248V134Z"/>
</mask>
<path d="M312 198V199H313V198H312ZM311 134V198H313V134H311ZM312 197H248V199H312V197Z" fill="#D0D5DD" mask="url(#path-153-inside-76_25_2974)"/>
<mask id="path-155-inside-77_25_2974" fill="white">
<path d="M312 134H376V198H312V134Z"/>
</mask>
<path d="M376 198V199H377V198H376ZM375 134V198H377V134H375ZM376 197H312V199H376V197Z" fill="#D0D5DD" mask="url(#path-155-inside-77_25_2974)"/>
<mask id="path-157-inside-78_25_2974" fill="white">
<path d="M376 134H440V198H376V134Z"/>
</mask>
<path d="M440 198V199H441V198H440ZM439 134V198H441V134H439ZM440 197H376V199H440V197Z" fill="#D0D5DD" mask="url(#path-157-inside-78_25_2974)"/>
<mask id="path-159-inside-79_25_2974" fill="white">
<path d="M440 134H504V198H440V134Z"/>
</mask>
<path d="M504 198V199H505V198H504ZM503 134V198H505V134H503ZM504 197H440V199H504V197Z" fill="#D0D5DD" mask="url(#path-159-inside-79_25_2974)"/>
<mask id="path-161-inside-80_25_2974" fill="white">
<path d="M504 134H568V198H504V134Z"/>
</mask>
<path d="M504 134H568V198H504V134Z" fill="#F2F4F7"/>
<path d="M568 198V199H569V198H568ZM567 134V198H569V134H567ZM568 197H504V199H568V197Z" fill="#D0D5DD" mask="url(#path-161-inside-80_25_2974)"/>
<mask id="path-163-inside-81_25_2974" fill="white">
<path d="M568 134H632V198H568V134Z"/>
</mask>
<path d="M632 198V199H633V198H632ZM631 134V198H633V134H631ZM632 197H568V199H632V197Z" fill="#D0D5DD" mask="url(#path-163-inside-81_25_2974)"/>
<mask id="path-165-inside-82_25_2974" fill="white">
<path d="M632 134H696V198H632V134Z"/>
</mask>
<path d="M696 198V199H697V198H696ZM695 134V198H697V134H695ZM696 197H632V199H696V197Z" fill="#D0D5DD" mask="url(#path-165-inside-82_25_2974)"/>
<mask id="path-167-inside-83_25_2974" fill="white">
<path d="M696 134H760V198H696V134Z"/>
</mask>
<path d="M760 198V199H761V198H760ZM759 134V198H761V134H759ZM760 197H696V199H760V197Z" fill="#D0D5DD" mask="url(#path-167-inside-83_25_2974)"/>
<mask id="path-169-inside-84_25_2974" fill="white">
<path d="M760 134H824V198H760V134Z"/>
</mask>
<path d="M824 198V199H825V198H824ZM823 134V198H825V134H823ZM824 197H760V199H824V197Z" fill="#D0D5DD" mask="url(#path-169-inside-84_25_2974)"/>
<mask id="path-171-inside-85_25_2974" fill="white">
<path d="M824 134H888V198H824V134Z"/>
</mask>
<path d="M888 198V199H889V198H888ZM887 134V198H889V134H887ZM888 197H824V199H888V197Z" fill="#D0D5DD" mask="url(#path-171-inside-85_25_2974)"/>
<mask id="path-173-inside-86_25_2974" fill="white">
<path d="M888 134H952V198H888V134Z"/>
</mask>
<path d="M952 198V199H953V198H952ZM951 134V198H953V134H951ZM952 197H888V199H952V197Z" fill="#D0D5DD" mask="url(#path-173-inside-86_25_2974)"/>
<mask id="path-175-inside-87_25_2974" fill="white">
<path d="M952 134H1016V198H952V134Z"/>
</mask>
<path d="M1016 198V199H1017V198H1016ZM1015 134V198H1017V134H1015ZM1016 197H952V199H1016V197Z" fill="#D0D5DD" mask="url(#path-175-inside-87_25_2974)"/>
<mask id="path-177-inside-88_25_2974" fill="white">
<path d="M1016 134H1080V198H1016V134Z"/>
</mask>
<path d="M1080 198V199H1081V198H1080ZM1079 134V198H1081V134H1079ZM1080 197H1016V199H1080V197Z" fill="#D0D5DD" mask="url(#path-177-inside-88_25_2974)"/>
<mask id="path-179-inside-89_25_2974" fill="white">
<path d="M1080 134H1144V198H1080V134Z"/>
</mask>
<path d="M1144 198V199H1145V198H1144ZM1143 134V198H1145V134H1143ZM1144 197H1080V199H1144V197Z" fill="#D0D5DD" mask="url(#path-179-inside-89_25_2974)"/>
<mask id="path-181-inside-90_25_2974" fill="white">
<path d="M1144 134H1208V198H1144V134Z"/>
</mask>
<path d="M1208 198V199H1209V198H1208ZM1207 134V198H1209V134H1207ZM1208 197H1144V199H1208V197Z" fill="#D0D5DD" mask="url(#path-181-inside-90_25_2974)"/>
<mask id="path-183-inside-91_25_2974" fill="white">
<path d="M1208 134H1272V198H1208V134Z"/>
</mask>
<path d="M1208 134H1272V198H1208V134Z" fill="#F2F4F7"/>
<path d="M1272 198V199H1273V198H1272ZM1271 134V198H1273V134H1271ZM1272 197H1208V199H1272V197Z" fill="#D0D5DD" mask="url(#path-183-inside-91_25_2974)"/>
<mask id="path-185-inside-92_25_2974" fill="white">
<path d="M1272 134H1336V198H1272V134Z"/>
</mask>
<path d="M1336 198V199H1337V198H1336ZM1335 134V198H1337V134H1335ZM1336 197H1272V199H1336V197Z" fill="#D0D5DD" mask="url(#path-185-inside-92_25_2974)"/>
<mask id="path-187-inside-93_25_2974" fill="white">
<path d="M1336 134H1400V198H1336V134Z"/>
</mask>
<path d="M1400 198V199H1401V198H1400ZM1399 134V198H1401V134H1399ZM1400 197H1336V199H1400V197Z" fill="#D0D5DD" mask="url(#path-187-inside-93_25_2974)"/>
<mask id="path-189-inside-94_25_2974" fill="white">
<path d="M1400 134H1464V198H1400V134Z"/>
</mask>
<path d="M1464 198V199H1465V198H1464ZM1463 134V198H1465V134H1463ZM1464 197H1400V199H1464V197Z" fill="#D0D5DD" mask="url(#path-189-inside-94_25_2974)"/>
<mask id="path-191-inside-95_25_2974" fill="white">
<path d="M1464 134H1528V198H1464V134Z"/>
</mask>
<path d="M1528 198V199H1529V198H1528ZM1527 134V198H1529V134H1527ZM1528 197H1464V199H1528V197Z" fill="#D0D5DD" mask="url(#path-191-inside-95_25_2974)"/>
<mask id="path-193-inside-96_25_2974" fill="white">
<path d="M1528 134H1592V198H1528V134Z"/>
</mask>
<path d="M1592 198V199H1593V198H1592ZM1591 134V198H1593V134H1591ZM1592 197H1528V199H1592V197Z" fill="#D0D5DD" mask="url(#path-193-inside-96_25_2974)"/>
<mask id="path-195-inside-97_25_2974" fill="white">
<path d="M56 198H120V262H56V198Z"/>
</mask>
<path d="M120 262V263H121V262H120ZM119 198V262H121V198H119ZM120 261H56V263H120V261Z" fill="#D0D5DD" mask="url(#path-195-inside-97_25_2974)"/>
<mask id="path-197-inside-98_25_2974" fill="white">
<path d="M120 198H184V262H120V198Z"/>
</mask>
<path d="M184 262V263H185V262H184ZM183 198V262H185V198H183ZM184 261H120V263H184V261Z" fill="#D0D5DD" mask="url(#path-197-inside-98_25_2974)"/>
<mask id="path-199-inside-99_25_2974" fill="white">
<path d="M184 198H248V262H184V198Z"/>
</mask>
<path d="M248 262V263H249V262H248ZM247 198V262H249V198H247ZM248 261H184V263H248V261Z" fill="#D0D5DD" mask="url(#path-199-inside-99_25_2974)"/>
<mask id="path-201-inside-100_25_2974" fill="white">
<path d="M248 198H312V262H248V198Z"/>
</mask>
<path d="M312 262V263H313V262H312ZM311 198V262H313V198H311ZM312 261H248V263H312V261Z" fill="#D0D5DD" mask="url(#path-201-inside-100_25_2974)"/>
<mask id="path-203-inside-101_25_2974" fill="white">
<path d="M312 198H376V262H312V198Z"/>
</mask>
<path d="M312 198H376V262H312V198Z" fill="#F2F4F7"/>
<path d="M376 262V263H377V262H376ZM375 198V262H377V198H375ZM376 261H312V263H376V261Z" fill="#D0D5DD" mask="url(#path-203-inside-101_25_2974)"/>
<mask id="path-205-inside-102_25_2974" fill="white">
<path d="M376 198H440V262H376V198Z"/>
</mask>
<path d="M440 262V263H441V262H440ZM439 198V262H441V198H439ZM440 261H376V263H440V261Z" fill="#D0D5DD" mask="url(#path-205-inside-102_25_2974)"/>
<mask id="path-207-inside-103_25_2974" fill="white">
<path d="M440 198H504V262H440V198Z"/>
</mask>
<path d="M504 262V263H505V262H504ZM503 198V262H505V198H503ZM504 261H440V263H504V261Z" fill="#D0D5DD" mask="url(#path-207-inside-103_25_2974)"/>
<mask id="path-209-inside-104_25_2974" fill="white">
<path d="M504 198H568V262H504V198Z"/>
</mask>
<path d="M568 262V263H569V262H568ZM567 198V262H569V198H567ZM568 261H504V263H568V261Z" fill="#D0D5DD" mask="url(#path-209-inside-104_25_2974)"/>
<mask id="path-211-inside-105_25_2974" fill="white">
<path d="M568 198H632V262H568V198Z"/>
</mask>
<path d="M632 262V263H633V262H632ZM631 198V262H633V198H631ZM632 261H568V263H632V261Z" fill="#D0D5DD" mask="url(#path-211-inside-105_25_2974)"/>
<mask id="path-213-inside-106_25_2974" fill="white">
<path d="M632 198H696V262H632V198Z"/>
</mask>
<path d="M696 262V263H697V262H696ZM695 198V262H697V198H695ZM696 261H632V263H696V261Z" fill="#D0D5DD" mask="url(#path-213-inside-106_25_2974)"/>
<mask id="path-215-inside-107_25_2974" fill="white">
<path d="M696 198H760V262H696V198Z"/>
</mask>
<path d="M760 262V263H761V262H760ZM759 198V262H761V198H759ZM760 261H696V263H760V261Z" fill="#D0D5DD" mask="url(#path-215-inside-107_25_2974)"/>
<mask id="path-217-inside-108_25_2974" fill="white">
<path d="M760 198H824V262H760V198Z"/>
</mask>
<path d="M760 198H824V262H760V198Z" fill="#F2F4F7"/>
<path d="M824 262V263H825V262H824ZM823 198V262H825V198H823ZM824 261H760V263H824V261Z" fill="#D0D5DD" mask="url(#path-217-inside-108_25_2974)"/>
<mask id="path-219-inside-109_25_2974" fill="white">
<path d="M824 198H888V262H824V198Z"/>
</mask>
<path d="M888 262V263H889V262H888ZM887 198V262H889V198H887ZM888 261H824V263H888V261Z" fill="#D0D5DD" mask="url(#path-219-inside-109_25_2974)"/>
<mask id="path-221-inside-110_25_2974" fill="white">
<path d="M888 198H952V262H888V198Z"/>
</mask>
<path d="M952 262V263H953V262H952ZM951 198V262H953V198H951ZM952 261H888V263H952V261Z" fill="#D0D5DD" mask="url(#path-221-inside-110_25_2974)"/>
<mask id="path-223-inside-111_25_2974" fill="white">
<path d="M952 198H1016V262H952V198Z"/>
</mask>
<path d="M1016 262V263H1017V262H1016ZM1015 198V262H1017V198H1015ZM1016 261H952V263H1016V261Z" fill="#D0D5DD" mask="url(#path-223-inside-111_25_2974)"/>
<mask id="path-225-inside-112_25_2974" fill="white">
<path d="M1016 198H1080V262H1016V198Z"/>
</mask>
<path d="M1080 262V263H1081V262H1080ZM1079 198V262H1081V198H1079ZM1080 261H1016V263H1080V261Z" fill="#D0D5DD" mask="url(#path-225-inside-112_25_2974)"/>
<mask id="path-227-inside-113_25_2974" fill="white">
<path d="M1080 198H1144V262H1080V198Z"/>
</mask>
<path d="M1144 262V263H1145V262H1144ZM1143 198V262H1145V198H1143ZM1144 261H1080V263H1144V261Z" fill="#D0D5DD" mask="url(#path-227-inside-113_25_2974)"/>
<mask id="path-229-inside-114_25_2974" fill="white">
<path d="M1144 198H1208V262H1144V198Z"/>
</mask>
<path d="M1208 262V263H1209V262H1208ZM1207 198V262H1209V198H1207ZM1208 261H1144V263H1208V261Z" fill="#D0D5DD" mask="url(#path-229-inside-114_25_2974)"/>
<mask id="path-231-inside-115_25_2974" fill="white">
<path d="M1208 198H1272V262H1208V198Z"/>
</mask>
<path d="M1272 262V263H1273V262H1272ZM1271 198V262H1273V198H1271ZM1272 261H1208V263H1272V261Z" fill="#D0D5DD" mask="url(#path-231-inside-115_25_2974)"/>
<mask id="path-233-inside-116_25_2974" fill="white">
<path d="M1272 198H1336V262H1272V198Z"/>
</mask>
<path d="M1336 262V263H1337V262H1336ZM1335 198V262H1337V198H1335ZM1336 261H1272V263H1336V261Z" fill="#D0D5DD" mask="url(#path-233-inside-116_25_2974)"/>
<mask id="path-235-inside-117_25_2974" fill="white">
<path d="M1336 198H1400V262H1336V198Z"/>
</mask>
<path d="M1400 262V263H1401V262H1400ZM1399 198V262H1401V198H1399ZM1400 261H1336V263H1400V261Z" fill="#D0D5DD" mask="url(#path-235-inside-117_25_2974)"/>
<mask id="path-237-inside-118_25_2974" fill="white">
<path d="M1400 198H1464V262H1400V198Z"/>
</mask>
<path d="M1464 262V263H1465V262H1464ZM1463 198V262H1465V198H1463ZM1464 261H1400V263H1464V261Z" fill="#D0D5DD" mask="url(#path-237-inside-118_25_2974)"/>
<mask id="path-239-inside-119_25_2974" fill="white">
<path d="M1464 198H1528V262H1464V198Z"/>
</mask>
<path d="M1464 198H1528V262H1464V198Z" fill="#F2F4F7"/>
<path d="M1528 262V263H1529V262H1528ZM1527 198V262H1529V198H1527ZM1528 261H1464V263H1528V261Z" fill="#D0D5DD" mask="url(#path-239-inside-119_25_2974)"/>
<mask id="path-241-inside-120_25_2974" fill="white">
<path d="M1528 198H1592V262H1528V198Z"/>
</mask>
<path d="M1592 262V263H1593V262H1592ZM1591 198V262H1593V198H1591ZM1592 261H1528V263H1592V261Z" fill="#D0D5DD" mask="url(#path-241-inside-120_25_2974)"/>
<mask id="path-243-inside-121_25_2974" fill="white">
<path d="M56 262H120V326H56V262Z"/>
</mask>
<path d="M56 262H120V326H56V262Z" fill="#F2F4F7"/>
<path d="M120 326V327H121V326H120ZM119 262V326H121V262H119ZM120 325H56V327H120V325Z" fill="#D0D5DD" mask="url(#path-243-inside-121_25_2974)"/>
<mask id="path-245-inside-122_25_2974" fill="white">
<path d="M120 262H184V326H120V262Z"/>
</mask>
<path d="M184 326V327H185V326H184ZM183 262V326H185V262H183ZM184 325H120V327H184V325Z" fill="#D0D5DD" mask="url(#path-245-inside-122_25_2974)"/>
<mask id="path-247-inside-123_25_2974" fill="white">
<path d="M184 262H248V326H184V262Z"/>
</mask>
<path d="M248 326V327H249V326H248ZM247 262V326H249V262H247ZM248 325H184V327H248V325Z" fill="#D0D5DD" mask="url(#path-247-inside-123_25_2974)"/>
<mask id="path-249-inside-124_25_2974" fill="white">
<path d="M248 262H312V326H248V262Z"/>
</mask>
<path d="M312 326V327H313V326H312ZM311 262V326H313V262H311ZM312 325H248V327H312V325Z" fill="#D0D5DD" mask="url(#path-249-inside-124_25_2974)"/>
<mask id="path-251-inside-125_25_2974" fill="white">
<path d="M312 262H376V326H312V262Z"/>
</mask>
<path d="M376 326V327H377V326H376ZM375 262V326H377V262H375ZM376 325H312V327H376V325Z" fill="#D0D5DD" mask="url(#path-251-inside-125_25_2974)"/>
<mask id="path-253-inside-126_25_2974" fill="white">
<path d="M376 262H440V326H376V262Z"/>
</mask>
<path d="M440 326V327H441V326H440ZM439 262V326H441V262H439ZM440 325H376V327H440V325Z" fill="#D0D5DD" mask="url(#path-253-inside-126_25_2974)"/>
<mask id="path-255-inside-127_25_2974" fill="white">
<path d="M440 262H504V326H440V262Z"/>
</mask>
<path d="M504 326V327H505V326H504ZM503 262V326H505V262H503ZM504 325H440V327H504V325Z" fill="#D0D5DD" mask="url(#path-255-inside-127_25_2974)"/>
<mask id="path-257-inside-128_25_2974" fill="white">
<path d="M504 262H568V326H504V262Z"/>
</mask>
<path d="M568 326V327H569V326H568ZM567 262V326H569V262H567ZM568 325H504V327H568V325Z" fill="#D0D5DD" mask="url(#path-257-inside-128_25_2974)"/>
<mask id="path-259-inside-129_25_2974" fill="white">
<path d="M568 262H632V326H568V262Z"/>
</mask>
<path d="M632 326V327H633V326H632ZM631 262V326H633V262H631ZM632 325H568V327H632V325Z" fill="#D0D5DD" mask="url(#path-259-inside-129_25_2974)"/>
<mask id="path-261-inside-130_25_2974" fill="white">
<path d="M632 262H696V326H632V262Z"/>
</mask>
<path d="M632 262H696V326H632V262Z" fill="#F2F4F7"/>
<path d="M696 326V327H697V326H696ZM695 262V326H697V262H695ZM696 325H632V327H696V325Z" fill="#D0D5DD" mask="url(#path-261-inside-130_25_2974)"/>
<mask id="path-263-inside-131_25_2974" fill="white">
<path d="M696 262H760V326H696V262Z"/>
</mask>
<path d="M760 326V327H761V326H760ZM759 262V326H761V262H759ZM760 325H696V327H760V325Z" fill="#D0D5DD" mask="url(#path-263-inside-131_25_2974)"/>
<mask id="path-265-inside-132_25_2974" fill="white">
<path d="M760 262H824V326H760V262Z"/>
</mask>
<path d="M824 326V327H825V326H824ZM823 262V326H825V262H823ZM824 325H760V327H824V325Z" fill="#D0D5DD" mask="url(#path-265-inside-132_25_2974)"/>
<mask id="path-267-inside-133_25_2974" fill="white">
<path d="M824 262H888V326H824V262Z"/>
</mask>
<path d="M888 326V327H889V326H888ZM887 262V326H889V262H887ZM888 325H824V327H888V325Z" fill="#D0D5DD" mask="url(#path-267-inside-133_25_2974)"/>
<mask id="path-269-inside-134_25_2974" fill="white">
<path d="M888 262H952V326H888V262Z"/>
</mask>
<path d="M952 326V327H953V326H952ZM951 262V326H953V262H951ZM952 325H888V327H952V325Z" fill="#D0D5DD" mask="url(#path-269-inside-134_25_2974)"/>
<mask id="path-271-inside-135_25_2974" fill="white">
<path d="M952 262H1016V326H952V262Z"/>
</mask>
<path d="M1016 326V327H1017V326H1016ZM1015 262V326H1017V262H1015ZM1016 325H952V327H1016V325Z" fill="#D0D5DD" mask="url(#path-271-inside-135_25_2974)"/>
<mask id="path-273-inside-136_25_2974" fill="white">
<path d="M1016 262H1080V326H1016V262Z"/>
</mask>
<path d="M1080 326V327H1081V326H1080ZM1079 262V326H1081V262H1079ZM1080 325H1016V327H1080V325Z" fill="#D0D5DD" mask="url(#path-273-inside-136_25_2974)"/>
<mask id="path-275-inside-137_25_2974" fill="white">
<path d="M1080 262H1144V326H1080V262Z"/>
</mask>
<path d="M1080 262H1144V326H1080V262Z" fill="#F2F4F7"/>
<path d="M1144 326V327H1145V326H1144ZM1143 262V326H1145V262H1143ZM1144 325H1080V327H1144V325Z" fill="#D0D5DD" mask="url(#path-275-inside-137_25_2974)"/>
<mask id="path-277-inside-138_25_2974" fill="white">
<path d="M1144 262H1208V326H1144V262Z"/>
</mask>
<path d="M1208 326V327H1209V326H1208ZM1207 262V326H1209V262H1207ZM1208 325H1144V327H1208V325Z" fill="#D0D5DD" mask="url(#path-277-inside-138_25_2974)"/>
<mask id="path-279-inside-139_25_2974" fill="white">
<path d="M1208 262H1272V326H1208V262Z"/>
</mask>
<path d="M1272 326V327H1273V326H1272ZM1271 262V326H1273V262H1271ZM1272 325H1208V327H1272V325Z" fill="#D0D5DD" mask="url(#path-279-inside-139_25_2974)"/>
<mask id="path-281-inside-140_25_2974" fill="white">
<path d="M1272 262H1336V326H1272V262Z"/>
</mask>
<path d="M1336 326V327H1337V326H1336ZM1335 262V326H1337V262H1335ZM1336 325H1272V327H1336V325Z" fill="#D0D5DD" mask="url(#path-281-inside-140_25_2974)"/>
<mask id="path-283-inside-141_25_2974" fill="white">
<path d="M1336 262H1400V326H1336V262Z"/>
</mask>
<path d="M1400 326V327H1401V326H1400ZM1399 262V326H1401V262H1399ZM1400 325H1336V327H1400V325Z" fill="#D0D5DD" mask="url(#path-283-inside-141_25_2974)"/>
<mask id="path-285-inside-142_25_2974" fill="white">
<path d="M1400 262H1464V326H1400V262Z"/>
</mask>
<path d="M1464 326V327H1465V326H1464ZM1463 262V326H1465V262H1463ZM1464 325H1400V327H1464V325Z" fill="#D0D5DD" mask="url(#path-285-inside-142_25_2974)"/>
<mask id="path-287-inside-143_25_2974" fill="white">
<path d="M1464 262H1528V326H1464V262Z"/>
</mask>
<path d="M1528 326V327H1529V326H1528ZM1527 262V326H1529V262H1527ZM1528 325H1464V327H1528V325Z" fill="#D0D5DD" mask="url(#path-287-inside-143_25_2974)"/>
<mask id="path-289-inside-144_25_2974" fill="white">
<path d="M1528 262H1592V326H1528V262Z"/>
</mask>
<path d="M1592 326V327H1593V326H1592ZM1591 262V326H1593V262H1591ZM1592 325H1528V327H1592V325Z" fill="#D0D5DD" mask="url(#path-289-inside-144_25_2974)"/>
<mask id="path-291-inside-145_25_2974" fill="white">
<path d="M56 326H120V390H56V326Z"/>
</mask>
<path d="M120 390V391H121V390H120ZM119 326V390H121V326H119ZM120 389H56V391H120V389Z" fill="#D0D5DD" mask="url(#path-291-inside-145_25_2974)"/>
<mask id="path-293-inside-146_25_2974" fill="white">
<path d="M120 326H184V390H120V326Z"/>
</mask>
<path d="M184 390V391H185V390H184ZM183 326V390H185V326H183ZM184 389H120V391H184V389Z" fill="#D0D5DD" mask="url(#path-293-inside-146_25_2974)"/>
<mask id="path-295-inside-147_25_2974" fill="white">
<path d="M184 326H248V390H184V326Z"/>
</mask>
<path d="M248 390V391H249V390H248ZM247 326V390H249V326H247ZM248 389H184V391H248V389Z" fill="#D0D5DD" mask="url(#path-295-inside-147_25_2974)"/>
<mask id="path-297-inside-148_25_2974" fill="white">
<path d="M248 326H312V390H248V326Z"/>
</mask>
<path d="M248 326H312V390H248V326Z" fill="#F2F4F7"/>
<path d="M312 390V391H313V390H312ZM311 326V390H313V326H311ZM312 389H248V391H312V389Z" fill="#D0D5DD" mask="url(#path-297-inside-148_25_2974)"/>
<mask id="path-299-inside-149_25_2974" fill="white">
<path d="M312 326H376V390H312V326Z"/>
</mask>
<path d="M376 390V391H377V390H376ZM375 326V390H377V326H375ZM376 389H312V391H376V389Z" fill="#D0D5DD" mask="url(#path-299-inside-149_25_2974)"/>
<mask id="path-301-inside-150_25_2974" fill="white">
<path d="M376 326H440V390H376V326Z"/>
</mask>
<path d="M440 390V391H441V390H440ZM439 326V390H441V326H439ZM440 389H376V391H440V389Z" fill="#D0D5DD" mask="url(#path-301-inside-150_25_2974)"/>
<mask id="path-303-inside-151_25_2974" fill="white">
<path d="M440 326H504V390H440V326Z"/>
</mask>
<path d="M504 390V391H505V390H504ZM503 326V390H505V326H503ZM504 389H440V391H504V389Z" fill="#D0D5DD" mask="url(#path-303-inside-151_25_2974)"/>
<mask id="path-305-inside-152_25_2974" fill="white">
<path d="M504 326H568V390H504V326Z"/>
</mask>
<path d="M568 390V391H569V390H568ZM567 326V390H569V326H567ZM568 389H504V391H568V389Z" fill="#D0D5DD" mask="url(#path-305-inside-152_25_2974)"/>
<mask id="path-307-inside-153_25_2974" fill="white">
<path d="M568 326H632V390H568V326Z"/>
</mask>
<path d="M632 390V391H633V390H632ZM631 326V390H633V326H631ZM632 389H568V391H632V389Z" fill="#D0D5DD" mask="url(#path-307-inside-153_25_2974)"/>
<mask id="path-309-inside-154_25_2974" fill="white">
<path d="M632 326H696V390H632V326Z"/>
</mask>
<path d="M696 390V391H697V390H696ZM695 326V390H697V326H695ZM696 389H632V391H696V389Z" fill="#D0D5DD" mask="url(#path-309-inside-154_25_2974)"/>
<mask id="path-311-inside-155_25_2974" fill="white">
<path d="M696 326H760V390H696V326Z"/>
</mask>
<path d="M760 390V391H761V390H760ZM759 326V390H761V326H759ZM760 389H696V391H760V389Z" fill="#D0D5DD" mask="url(#path-311-inside-155_25_2974)"/>
<mask id="path-313-inside-156_25_2974" fill="white">
<path d="M760 326H824V390H760V326Z"/>
</mask>
<path d="M824 390V391H825V390H824ZM823 326V390H825V326H823ZM824 389H760V391H824V389Z" fill="#D0D5DD" mask="url(#path-313-inside-156_25_2974)"/>
<mask id="path-315-inside-157_25_2974" fill="white">
<path d="M824 326H888V390H824V326Z"/>
</mask>
<path d="M888 390V391H889V390H888ZM887 326V390H889V326H887ZM888 389H824V391H888V389Z" fill="#D0D5DD" mask="url(#path-315-inside-157_25_2974)"/>
<mask id="path-317-inside-158_25_2974" fill="white">
<path d="M888 326H952V390H888V326Z"/>
</mask>
<path d="M888 326H952V390H888V326Z" fill="#F2F4F7"/>
<path d="M952 390V391H953V390H952ZM951 326V390H953V326H951ZM952 389H888V391H952V389Z" fill="#D0D5DD" mask="url(#path-317-inside-158_25_2974)"/>
<mask id="path-319-inside-159_25_2974" fill="white">
<path d="M952 326H1016V390H952V326Z"/>
</mask>
<path d="M1016 390V391H1017V390H1016ZM1015 326V390H1017V326H1015ZM1016 389H952V391H1016V389Z" fill="#D0D5DD" mask="url(#path-319-inside-159_25_2974)"/>
<mask id="path-321-inside-160_25_2974" fill="white">
<path d="M1016 326H1080V390H1016V326Z"/>
</mask>
<path d="M1080 390V391H1081V390H1080ZM1079 326V390H1081V326H1079ZM1080 389H1016V391H1080V389Z" fill="#D0D5DD" mask="url(#path-321-inside-160_25_2974)"/>
<mask id="path-323-inside-161_25_2974" fill="white">
<path d="M1080 326H1144V390H1080V326Z"/>
</mask>
<path d="M1144 390V391H1145V390H1144ZM1143 326V390H1145V326H1143ZM1144 389H1080V391H1144V389Z" fill="#D0D5DD" mask="url(#path-323-inside-161_25_2974)"/>
<mask id="path-325-inside-162_25_2974" fill="white">
<path d="M1144 326H1208V390H1144V326Z"/>
</mask>
<path d="M1208 390V391H1209V390H1208ZM1207 326V390H1209V326H1207ZM1208 389H1144V391H1208V389Z" fill="#D0D5DD" mask="url(#path-325-inside-162_25_2974)"/>
<mask id="path-327-inside-163_25_2974" fill="white">
<path d="M1208 326H1272V390H1208V326Z"/>
</mask>
<path d="M1208 326H1272V390H1208V326Z" fill="#F2F4F7"/>
<path d="M1272 390V391H1273V390H1272ZM1271 326V390H1273V326H1271ZM1272 389H1208V391H1272V389Z" fill="#D0D5DD" mask="url(#path-327-inside-163_25_2974)"/>
<mask id="path-329-inside-164_25_2974" fill="white">
<path d="M1272 326H1336V390H1272V326Z"/>
</mask>
<path d="M1336 390V391H1337V390H1336ZM1335 326V390H1337V326H1335ZM1336 389H1272V391H1336V389Z" fill="#D0D5DD" mask="url(#path-329-inside-164_25_2974)"/>
<mask id="path-331-inside-165_25_2974" fill="white">
<path d="M1336 326H1400V390H1336V326Z"/>
</mask>
<path d="M1400 390V391H1401V390H1400ZM1399 326V390H1401V326H1399ZM1400 389H1336V391H1400V389Z" fill="#D0D5DD" mask="url(#path-331-inside-165_25_2974)"/>
<mask id="path-333-inside-166_25_2974" fill="white">
<path d="M1400 326H1464V390H1400V326Z"/>
</mask>
<path d="M1464 390V391H1465V390H1464ZM1463 326V390H1465V326H1463ZM1464 389H1400V391H1464V389Z" fill="#D0D5DD" mask="url(#path-333-inside-166_25_2974)"/>
<mask id="path-335-inside-167_25_2974" fill="white">
<path d="M1464 326H1528V390H1464V326Z"/>
</mask>
<path d="M1528 390V391H1529V390H1528ZM1527 326V390H1529V326H1527ZM1528 389H1464V391H1528V389Z" fill="#D0D5DD" mask="url(#path-335-inside-167_25_2974)"/>
<mask id="path-337-inside-168_25_2974" fill="white">
<path d="M1528 326H1592V390H1528V326Z"/>
</mask>
<path d="M1592 390V391H1593V390H1592ZM1591 326V390H1593V326H1591ZM1592 389H1528V391H1592V389Z" fill="#D0D5DD" mask="url(#path-337-inside-168_25_2974)"/>
<mask id="path-339-inside-169_25_2974" fill="white">
<path d="M56 390H120V454H56V390Z"/>
</mask>
<path d="M120 454V455H121V454H120ZM119 390V454H121V390H119ZM120 453H56V455H120V453Z" fill="#D0D5DD" mask="url(#path-339-inside-169_25_2974)"/>
<mask id="path-341-inside-170_25_2974" fill="white">
<path d="M120 390H184V454H120V390Z"/>
</mask>
<path d="M120 390H184V454H120V390Z" fill="#F2F4F7"/>
<path d="M184 454V455H185V454H184ZM183 390V454H185V390H183ZM184 453H120V455H184V453Z" fill="#D0D5DD" mask="url(#path-341-inside-170_25_2974)"/>
<mask id="path-343-inside-171_25_2974" fill="white">
<path d="M184 390H248V454H184V390Z"/>
</mask>
<path d="M248 454V455H249V454H248ZM247 390V454H249V390H247ZM248 453H184V455H248V453Z" fill="#D0D5DD" mask="url(#path-343-inside-171_25_2974)"/>
<mask id="path-345-inside-172_25_2974" fill="white">
<path d="M248 390H312V454H248V390Z"/>
</mask>
<path d="M312 454V455H313V454H312ZM311 390V454H313V390H311ZM312 453H248V455H312V453Z" fill="#D0D5DD" mask="url(#path-345-inside-172_25_2974)"/>
<mask id="path-347-inside-173_25_2974" fill="white">
<path d="M312 390H376V454H312V390Z"/>
</mask>
<path d="M376 454V455H377V454H376ZM375 390V454H377V390H375ZM376 453H312V455H376V453Z" fill="#D0D5DD" mask="url(#path-347-inside-173_25_2974)"/>
<mask id="path-349-inside-174_25_2974" fill="white">
<path d="M376 390H440V454H376V390Z"/>
</mask>
<path d="M440 454V455H441V454H440ZM439 390V454H441V390H439ZM440 453H376V455H440V453Z" fill="#D0D5DD" mask="url(#path-349-inside-174_25_2974)"/>
<mask id="path-351-inside-175_25_2974" fill="white">
<path d="M440 390H504V454H440V390Z"/>
</mask>
<path d="M504 454V455H505V454H504ZM503 390V454H505V390H503ZM504 453H440V455H504V453Z" fill="#D0D5DD" mask="url(#path-351-inside-175_25_2974)"/>
<mask id="path-353-inside-176_25_2974" fill="white">
<path d="M504 390H568V454H504V390Z"/>
</mask>
<path d="M568 454V455H569V454H568ZM567 390V454H569V390H567ZM568 453H504V455H568V453Z" fill="#D0D5DD" mask="url(#path-353-inside-176_25_2974)"/>
<mask id="path-355-inside-177_25_2974" fill="white">
<path d="M568 390H632V454H568V390Z"/>
</mask>
<path d="M632 454V455H633V454H632ZM631 390V454H633V390H631ZM632 453H568V455H632V453Z" fill="#D0D5DD" mask="url(#path-355-inside-177_25_2974)"/>
<mask id="path-357-inside-178_25_2974" fill="white">
<path d="M632 390H696V454H632V390Z"/>
</mask>
<path d="M632 390H696V454H632V390Z" fill="#F2F4F7"/>
<path d="M696 454V455H697V454H696ZM695 390V454H697V390H695ZM696 453H632V455H696V453Z" fill="#D0D5DD" mask="url(#path-357-inside-178_25_2974)"/>
<mask id="path-359-inside-179_25_2974" fill="white">
<path d="M696 390H760V454H696V390Z"/>
</mask>
<path d="M760 454V455H761V454H760ZM759 390V454H761V390H759ZM760 453H696V455H760V453Z" fill="#D0D5DD" mask="url(#path-359-inside-179_25_2974)"/>
<mask id="path-361-inside-180_25_2974" fill="white">
<path d="M760 390H824V454H760V390Z"/>
</mask>
<path d="M824 454V455H825V454H824ZM823 390V454H825V390H823ZM824 453H760V455H824V453Z" fill="#D0D5DD" mask="url(#path-361-inside-180_25_2974)"/>
<mask id="path-363-inside-181_25_2974" fill="white">
<path d="M824 390H888V454H824V390Z"/>
</mask>
<path d="M888 454V455H889V454H888ZM887 390V454H889V390H887ZM888 453H824V455H888V453Z" fill="#D0D5DD" mask="url(#path-363-inside-181_25_2974)"/>
<mask id="path-365-inside-182_25_2974" fill="white">
<path d="M888 390H952V454H888V390Z"/>
</mask>
<path d="M952 454V455H953V454H952ZM951 390V454H953V390H951ZM952 453H888V455H952V453Z" fill="#D0D5DD" mask="url(#path-365-inside-182_25_2974)"/>
<mask id="path-367-inside-183_25_2974" fill="white">
<path d="M952 390H1016V454H952V390Z"/>
</mask>
<path d="M1016 454V455H1017V454H1016ZM1015 390V454H1017V390H1015ZM1016 453H952V455H1016V453Z" fill="#D0D5DD" mask="url(#path-367-inside-183_25_2974)"/>
<mask id="path-369-inside-184_25_2974" fill="white">
<path d="M1016 390H1080V454H1016V390Z"/>
</mask>
<path d="M1080 454V455H1081V454H1080ZM1079 390V454H1081V390H1079ZM1080 453H1016V455H1080V453Z" fill="#D0D5DD" mask="url(#path-369-inside-184_25_2974)"/>
<mask id="path-371-inside-185_25_2974" fill="white">
<path d="M1080 390H1144V454H1080V390Z"/>
</mask>
<path d="M1144 454V455H1145V454H1144ZM1143 390V454H1145V390H1143ZM1144 453H1080V455H1144V453Z" fill="#D0D5DD" mask="url(#path-371-inside-185_25_2974)"/>
<mask id="path-373-inside-186_25_2974" fill="white">
<path d="M1144 390H1208V454H1144V390Z"/>
</mask>
<path d="M1208 454V455H1209V454H1208ZM1207 390V454H1209V390H1207ZM1208 453H1144V455H1208V453Z" fill="#D0D5DD" mask="url(#path-373-inside-186_25_2974)"/>
<mask id="path-375-inside-187_25_2974" fill="white">
<path d="M1208 390H1272V454H1208V390Z"/>
</mask>
<path d="M1272 454V455H1273V454H1272ZM1271 390V454H1273V390H1271ZM1272 453H1208V455H1272V453Z" fill="#D0D5DD" mask="url(#path-375-inside-187_25_2974)"/>
<mask id="path-377-inside-188_25_2974" fill="white">
<path d="M1272 390H1336V454H1272V390Z"/>
</mask>
<path d="M1336 454V455H1337V454H1336ZM1335 390V454H1337V390H1335ZM1336 453H1272V455H1336V453Z" fill="#D0D5DD" mask="url(#path-377-inside-188_25_2974)"/>
<mask id="path-379-inside-189_25_2974" fill="white">
<path d="M1336 390H1400V454H1336V390Z"/>
</mask>
<path d="M1400 454V455H1401V454H1400ZM1399 390V454H1401V390H1399ZM1400 453H1336V455H1400V453Z" fill="#D0D5DD" mask="url(#path-379-inside-189_25_2974)"/>
<mask id="path-381-inside-190_25_2974" fill="white">
<path d="M1400 390H1464V454H1400V390Z"/>
</mask>
<path d="M1400 390H1464V454H1400V390Z" fill="#F2F4F7"/>
<path d="M1464 454V455H1465V454H1464ZM1463 390V454H1465V390H1463ZM1464 453H1400V455H1464V453Z" fill="#D0D5DD" mask="url(#path-381-inside-190_25_2974)"/>
<mask id="path-383-inside-191_25_2974" fill="white">
<path d="M1464 390H1528V454H1464V390Z"/>
</mask>
<path d="M1528 454V455H1529V454H1528ZM1527 390V454H1529V390H1527ZM1528 453H1464V455H1528V453Z" fill="#D0D5DD" mask="url(#path-383-inside-191_25_2974)"/>
<mask id="path-385-inside-192_25_2974" fill="white">
<path d="M1528 390H1592V454H1528V390Z"/>
</mask>
<path d="M1592 454V455H1593V454H1592ZM1591 390V454H1593V390H1591ZM1592 453H1528V455H1592V453Z" fill="#D0D5DD" mask="url(#path-385-inside-192_25_2974)"/>
<mask id="path-387-inside-193_25_2974" fill="white">
<path d="M56 454H120V518H56V454Z"/>
</mask>
<path d="M120 518V519H121V518H120ZM119 454V518H121V454H119ZM120 517H56V519H120V517Z" fill="#D0D5DD" mask="url(#path-387-inside-193_25_2974)"/>
<mask id="path-389-inside-194_25_2974" fill="white">
<path d="M120 454H184V518H120V454Z"/>
</mask>
<path d="M184 518V519H185V518H184ZM183 454V518H185V454H183ZM184 517H120V519H184V517Z" fill="#D0D5DD" mask="url(#path-389-inside-194_25_2974)"/>
<mask id="path-391-inside-195_25_2974" fill="white">
<path d="M184 454H248V518H184V454Z"/>
</mask>
<path d="M248 518V519H249V518H248ZM247 454V518H249V454H247ZM248 517H184V519H248V517Z" fill="#D0D5DD" mask="url(#path-391-inside-195_25_2974)"/>
<mask id="path-393-inside-196_25_2974" fill="white">
<path d="M248 454H312V518H248V454Z"/>
</mask>
<path d="M312 518V519H313V518H312ZM311 454V518H313V454H311ZM312 517H248V519H312V517Z" fill="#D0D5DD" mask="url(#path-393-inside-196_25_2974)"/>
<mask id="path-395-inside-197_25_2974" fill="white">
<path d="M312 454H376V518H312V454Z"/>
</mask>
<path d="M376 518V519H377V518H376ZM375 454V518H377V454H375ZM376 517H312V519H376V517Z" fill="#D0D5DD" mask="url(#path-395-inside-197_25_2974)"/>
<mask id="path-397-inside-198_25_2974" fill="white">
<path d="M376 454H440V518H376V454Z"/>
</mask>
<path d="M440 518V519H441V518H440ZM439 454V518H441V454H439ZM440 517H376V519H440V517Z" fill="#D0D5DD" mask="url(#path-397-inside-198_25_2974)"/>
<mask id="path-399-inside-199_25_2974" fill="white">
<path d="M440 454H504V518H440V454Z"/>
</mask>
<path d="M440 454H504V518H440V454Z" fill="#F2F4F7"/>
<path d="M504 518V519H505V518H504ZM503 454V518H505V454H503ZM504 517H440V519H504V517Z" fill="#D0D5DD" mask="url(#path-399-inside-199_25_2974)"/>
<mask id="path-401-inside-200_25_2974" fill="white">
<path d="M504 454H568V518H504V454Z"/>
</mask>
<path d="M568 518V519H569V518H568ZM567 454V518H569V454H567ZM568 517H504V519H568V517Z" fill="#D0D5DD" mask="url(#path-401-inside-200_25_2974)"/>
<mask id="path-403-inside-201_25_2974" fill="white">
<path d="M568 454H632V518H568V454Z"/>
</mask>
<path d="M632 518V519H633V518H632ZM631 454V518H633V454H631ZM632 517H568V519H632V517Z" fill="#D0D5DD" mask="url(#path-403-inside-201_25_2974)"/>
<mask id="path-405-inside-202_25_2974" fill="white">
<path d="M632 454H696V518H632V454Z"/>
</mask>
<path d="M696 518V519H697V518H696ZM695 454V518H697V454H695ZM696 517H632V519H696V517Z" fill="#D0D5DD" mask="url(#path-405-inside-202_25_2974)"/>
<mask id="path-407-inside-203_25_2974" fill="white">
<path d="M696 454H760V518H696V454Z"/>
</mask>
<path d="M760 518V519H761V518H760ZM759 454V518H761V454H759ZM760 517H696V519H760V517Z" fill="#D0D5DD" mask="url(#path-407-inside-203_25_2974)"/>
<mask id="path-409-inside-204_25_2974" fill="white">
<path d="M760 454H824V518H760V454Z"/>
</mask>
<path d="M824 518V519H825V518H824ZM823 454V518H825V454H823ZM824 517H760V519H824V517Z" fill="#D0D5DD" mask="url(#path-409-inside-204_25_2974)"/>
<mask id="path-411-inside-205_25_2974" fill="white">
<path d="M824 454H888V518H824V454Z"/>
</mask>
<path d="M888 518V519H889V518H888ZM887 454V518H889V454H887ZM888 517H824V519H888V517Z" fill="#D0D5DD" mask="url(#path-411-inside-205_25_2974)"/>
<mask id="path-413-inside-206_25_2974" fill="white">
<path d="M888 454H952V518H888V454Z"/>
</mask>
<path d="M952 518V519H953V518H952ZM951 454V518H953V454H951ZM952 517H888V519H952V517Z" fill="#D0D5DD" mask="url(#path-413-inside-206_25_2974)"/>
<mask id="path-415-inside-207_25_2974" fill="white">
<path d="M952 454H1016V518H952V454Z"/>
</mask>
<path d="M1016 518V519H1017V518H1016ZM1015 454V518H1017V454H1015ZM1016 517H952V519H1016V517Z" fill="#D0D5DD" mask="url(#path-415-inside-207_25_2974)"/>
<mask id="path-417-inside-208_25_2974" fill="white">
<path d="M1016 454H1080V518H1016V454Z"/>
</mask>
<path d="M1016 454H1080V518H1016V454Z" fill="#F2F4F7"/>
<path d="M1080 518V519H1081V518H1080ZM1079 454V518H1081V454H1079ZM1080 517H1016V519H1080V517Z" fill="#D0D5DD" mask="url(#path-417-inside-208_25_2974)"/>
<mask id="path-419-inside-209_25_2974" fill="white">
<path d="M1080 454H1144V518H1080V454Z"/>
</mask>
<path d="M1144 518V519H1145V518H1144ZM1143 454V518H1145V454H1143ZM1144 517H1080V519H1144V517Z" fill="#D0D5DD" mask="url(#path-419-inside-209_25_2974)"/>
<mask id="path-421-inside-210_25_2974" fill="white">
<path d="M1144 454H1208V518H1144V454Z"/>
</mask>
<path d="M1208 518V519H1209V518H1208ZM1207 454V518H1209V454H1207ZM1208 517H1144V519H1208V517Z" fill="#D0D5DD" mask="url(#path-421-inside-210_25_2974)"/>
<mask id="path-423-inside-211_25_2974" fill="white">
<path d="M1208 454H1272V518H1208V454Z"/>
</mask>
<path d="M1272 518V519H1273V518H1272ZM1271 454V518H1273V454H1271ZM1272 517H1208V519H1272V517Z" fill="#D0D5DD" mask="url(#path-423-inside-211_25_2974)"/>
<mask id="path-425-inside-212_25_2974" fill="white">
<path d="M1272 454H1336V518H1272V454Z"/>
</mask>
<path d="M1336 518V519H1337V518H1336ZM1335 454V518H1337V454H1335ZM1336 517H1272V519H1336V517Z" fill="#D0D5DD" mask="url(#path-425-inside-212_25_2974)"/>
<mask id="path-427-inside-213_25_2974" fill="white">
<path d="M1336 454H1400V518H1336V454Z"/>
</mask>
<path d="M1400 518V519H1401V518H1400ZM1399 454V518H1401V454H1399ZM1400 517H1336V519H1400V517Z" fill="#D0D5DD" mask="url(#path-427-inside-213_25_2974)"/>
<mask id="path-429-inside-214_25_2974" fill="white">
<path d="M1400 454H1464V518H1400V454Z"/>
</mask>
<path d="M1464 518V519H1465V518H1464ZM1463 454V518H1465V454H1463ZM1464 517H1400V519H1464V517Z" fill="#D0D5DD" mask="url(#path-429-inside-214_25_2974)"/>
<mask id="path-431-inside-215_25_2974" fill="white">
<path d="M1464 454H1528V518H1464V454Z"/>
</mask>
<path d="M1528 518V519H1529V518H1528ZM1527 454V518H1529V454H1527ZM1528 517H1464V519H1528V517Z" fill="#D0D5DD" mask="url(#path-431-inside-215_25_2974)"/>
<mask id="path-433-inside-216_25_2974" fill="white">
<path d="M1528 454H1592V518H1528V454Z"/>
</mask>
<path d="M1528 454H1592V518H1528V454Z" fill="#F2F4F7"/>
<path d="M1592 518V519H1593V518H1592ZM1591 454V518H1593V454H1591ZM1592 517H1528V519H1592V517Z" fill="#D0D5DD" mask="url(#path-433-inside-216_25_2974)"/>
<mask id="path-435-inside-217_25_2974" fill="white">
<path d="M56 518H120V582H56V518Z"/>
</mask>
<path d="M120 582V583H121V582H120ZM119 518V582H121V518H119ZM120 581H56V583H120V581Z" fill="#D0D5DD" mask="url(#path-435-inside-217_25_2974)"/>
<mask id="path-437-inside-218_25_2974" fill="white">
<path d="M120 518H184V582H120V518Z"/>
</mask>
<path d="M184 582V583H185V582H184ZM183 518V582H185V518H183ZM184 581H120V583H184V581Z" fill="#D0D5DD" mask="url(#path-437-inside-218_25_2974)"/>
<mask id="path-439-inside-219_25_2974" fill="white">
<path d="M184 518H248V582H184V518Z"/>
</mask>
<path d="M248 582V583H249V582H248ZM247 518V582H249V518H247ZM248 581H184V583H248V581Z" fill="#D0D5DD" mask="url(#path-439-inside-219_25_2974)"/>
<mask id="path-441-inside-220_25_2974" fill="white">
<path d="M248 518H312V582H248V518Z"/>
</mask>
<path d="M248 518H312V582H248V518Z" fill="#F2F4F7"/>
<path d="M312 582V583H313V582H312ZM311 518V582H313V518H311ZM312 581H248V583H312V581Z" fill="#D0D5DD" mask="url(#path-441-inside-220_25_2974)"/>
<mask id="path-443-inside-221_25_2974" fill="white">
<path d="M312 518H376V582H312V518Z"/>
</mask>
<path d="M376 582V583H377V582H376ZM375 518V582H377V518H375ZM376 581H312V583H376V581Z" fill="#D0D5DD" mask="url(#path-443-inside-221_25_2974)"/>
<mask id="path-445-inside-222_25_2974" fill="white">
<path d="M376 518H440V582H376V518Z"/>
</mask>
<path d="M440 582V583H441V582H440ZM439 518V582H441V518H439ZM440 581H376V583H440V581Z" fill="#D0D5DD" mask="url(#path-445-inside-222_25_2974)"/>
<mask id="path-447-inside-223_25_2974" fill="white">
<path d="M440 518H504V582H440V518Z"/>
</mask>
<path d="M504 582V583H505V582H504ZM503 518V582H505V518H503ZM504 581H440V583H504V581Z" fill="#D0D5DD" mask="url(#path-447-inside-223_25_2974)"/>
<mask id="path-449-inside-224_25_2974" fill="white">
<path d="M504 518H568V582H504V518Z"/>
</mask>
<path d="M568 582V583H569V582H568ZM567 518V582H569V518H567ZM568 581H504V583H568V581Z" fill="#D0D5DD" mask="url(#path-449-inside-224_25_2974)"/>
<mask id="path-451-inside-225_25_2974" fill="white">
<path d="M568 518H632V582H568V518Z"/>
</mask>
<path d="M632 582V583H633V582H632ZM631 518V582H633V518H631ZM632 581H568V583H632V581Z" fill="#D0D5DD" mask="url(#path-451-inside-225_25_2974)"/>
<mask id="path-453-inside-226_25_2974" fill="white">
<path d="M632 518H696V582H632V518Z"/>
</mask>
<path d="M696 582V583H697V582H696ZM695 518V582H697V518H695ZM696 581H632V583H696V581Z" fill="#D0D5DD" mask="url(#path-453-inside-226_25_2974)"/>
<mask id="path-455-inside-227_25_2974" fill="white">
<path d="M696 518H760V582H696V518Z"/>
</mask>
<path d="M760 582V583H761V582H760ZM759 518V582H761V518H759ZM760 581H696V583H760V581Z" fill="#D0D5DD" mask="url(#path-455-inside-227_25_2974)"/>
<mask id="path-457-inside-228_25_2974" fill="white">
<path d="M760 518H824V582H760V518Z"/>
</mask>
<path d="M824 582V583H825V582H824ZM823 518V582H825V518H823ZM824 581H760V583H824V581Z" fill="#D0D5DD" mask="url(#path-457-inside-228_25_2974)"/>
<mask id="path-459-inside-229_25_2974" fill="white">
<path d="M824 518H888V582H824V518Z"/>
</mask>
<path d="M824 518H888V582H824V518Z" fill="#F2F4F7"/>
<path d="M888 582V583H889V582H888ZM887 518V582H889V518H887ZM888 581H824V583H888V581Z" fill="#D0D5DD" mask="url(#path-459-inside-229_25_2974)"/>
<mask id="path-461-inside-230_25_2974" fill="white">
<path d="M888 518H952V582H888V518Z"/>
</mask>
<path d="M952 582V583H953V582H952ZM951 518V582H953V518H951ZM952 581H888V583H952V581Z" fill="#D0D5DD" mask="url(#path-461-inside-230_25_2974)"/>
<mask id="path-463-inside-231_25_2974" fill="white">
<path d="M952 518H1016V582H952V518Z"/>
</mask>
<path d="M1016 582V583H1017V582H1016ZM1015 518V582H1017V518H1015ZM1016 581H952V583H1016V581Z" fill="#D0D5DD" mask="url(#path-463-inside-231_25_2974)"/>
<mask id="path-465-inside-232_25_2974" fill="white">
<path d="M1016 518H1080V582H1016V518Z"/>
</mask>
<path d="M1080 582V583H1081V582H1080ZM1079 518V582H1081V518H1079ZM1080 581H1016V583H1080V581Z" fill="#D0D5DD" mask="url(#path-465-inside-232_25_2974)"/>
<mask id="path-467-inside-233_25_2974" fill="white">
<path d="M1080 518H1144V582H1080V518Z"/>
</mask>
<path d="M1144 582V583H1145V582H1144ZM1143 518V582H1145V518H1143ZM1144 581H1080V583H1144V581Z" fill="#D0D5DD" mask="url(#path-467-inside-233_25_2974)"/>
<mask id="path-469-inside-234_25_2974" fill="white">
<path d="M1144 518H1208V582H1144V518Z"/>
</mask>
<path d="M1208 582V583H1209V582H1208ZM1207 518V582H1209V518H1207ZM1208 581H1144V583H1208V581Z" fill="#D0D5DD" mask="url(#path-469-inside-234_25_2974)"/>
<mask id="path-471-inside-235_25_2974" fill="white">
<path d="M1208 518H1272V582H1208V518Z"/>
</mask>
<path d="M1272 582V583H1273V582H1272ZM1271 518V582H1273V518H1271ZM1272 581H1208V583H1272V581Z" fill="#D0D5DD" mask="url(#path-471-inside-235_25_2974)"/>
<mask id="path-473-inside-236_25_2974" fill="white">
<path d="M1272 518H1336V582H1272V518Z"/>
</mask>
<path d="M1272 518H1336V582H1272V518Z" fill="#F2F4F7"/>
<path d="M1336 582V583H1337V582H1336ZM1335 518V582H1337V518H1335ZM1336 581H1272V583H1336V581Z" fill="#D0D5DD" mask="url(#path-473-inside-236_25_2974)"/>
<mask id="path-475-inside-237_25_2974" fill="white">
<path d="M1336 518H1400V582H1336V518Z"/>
</mask>
<path d="M1400 582V583H1401V582H1400ZM1399 518V582H1401V518H1399ZM1400 581H1336V583H1400V581Z" fill="#D0D5DD" mask="url(#path-475-inside-237_25_2974)"/>
<mask id="path-477-inside-238_25_2974" fill="white">
<path d="M1400 518H1464V582H1400V518Z"/>
</mask>
<path d="M1464 582V583H1465V582H1464ZM1463 518V582H1465V518H1463ZM1464 581H1400V583H1464V581Z" fill="#D0D5DD" mask="url(#path-477-inside-238_25_2974)"/>
<mask id="path-479-inside-239_25_2974" fill="white">
<path d="M1464 518H1528V582H1464V518Z"/>
</mask>
<path d="M1528 582V583H1529V582H1528ZM1527 518V582H1529V518H1527ZM1528 581H1464V583H1528V581Z" fill="#D0D5DD" mask="url(#path-479-inside-239_25_2974)"/>
<mask id="path-481-inside-240_25_2974" fill="white">
<path d="M1528 518H1592V582H1528V518Z"/>
</mask>
<path d="M1592 582V583H1593V582H1592ZM1591 518V582H1593V518H1591ZM1592 581H1528V583H1592V581Z" fill="#D0D5DD" mask="url(#path-481-inside-240_25_2974)"/>
<mask id="path-483-inside-241_25_2974" fill="white">
<path d="M56 582H120V646H56V582Z"/>
</mask>
<path d="M120 646V647H121V646H120ZM119 582V646H121V582H119ZM120 645H56V647H120V645Z" fill="#D0D5DD" mask="url(#path-483-inside-241_25_2974)"/>
<mask id="path-485-inside-242_25_2974" fill="white">
<path d="M120 582H184V646H120V582Z"/>
</mask>
<path d="M120 582H184V646H120V582Z" fill="#F2F4F7"/>
<path d="M184 646V647H185V646H184ZM183 582V646H185V582H183ZM184 645H120V647H184V645Z" fill="#D0D5DD" mask="url(#path-485-inside-242_25_2974)"/>
<mask id="path-487-inside-243_25_2974" fill="white">
<path d="M184 582H248V646H184V582Z"/>
</mask>
<path d="M248 646V647H249V646H248ZM247 582V646H249V582H247ZM248 645H184V647H248V645Z" fill="#D0D5DD" mask="url(#path-487-inside-243_25_2974)"/>
<mask id="path-489-inside-244_25_2974" fill="white">
<path d="M248 582H312V646H248V582Z"/>
</mask>
<path d="M312 646V647H313V646H312ZM311 582V646H313V582H311ZM312 645H248V647H312V645Z" fill="#D0D5DD" mask="url(#path-489-inside-244_25_2974)"/>
<mask id="path-491-inside-245_25_2974" fill="white">
<path d="M312 582H376V646H312V582Z"/>
</mask>
<path d="M376 646V647H377V646H376ZM375 582V646H377V582H375ZM376 645H312V647H376V645Z" fill="#D0D5DD" mask="url(#path-491-inside-245_25_2974)"/>
<mask id="path-493-inside-246_25_2974" fill="white">
<path d="M376 582H440V646H376V582Z"/>
</mask>
<path d="M440 646V647H441V646H440ZM439 582V646H441V582H439ZM440 645H376V647H440V645Z" fill="#D0D5DD" mask="url(#path-493-inside-246_25_2974)"/>
<mask id="path-495-inside-247_25_2974" fill="white">
<path d="M440 582H504V646H440V582Z"/>
</mask>
<path d="M504 646V647H505V646H504ZM503 582V646H505V582H503ZM504 645H440V647H504V645Z" fill="#D0D5DD" mask="url(#path-495-inside-247_25_2974)"/>
<mask id="path-497-inside-248_25_2974" fill="white">
<path d="M504 582H568V646H504V582Z"/>
</mask>
<path d="M568 646V647H569V646H568ZM567 582V646H569V582H567ZM568 645H504V647H568V645Z" fill="#D0D5DD" mask="url(#path-497-inside-248_25_2974)"/>
<mask id="path-499-inside-249_25_2974" fill="white">
<path d="M568 582H632V646H568V582Z"/>
</mask>
<path d="M568 582H632V646H568V582Z" fill="#F2F4F7"/>
<path d="M632 646V647H633V646H632ZM631 582V646H633V582H631ZM632 645H568V647H632V645Z" fill="#D0D5DD" mask="url(#path-499-inside-249_25_2974)"/>
<mask id="path-501-inside-250_25_2974" fill="white">
<path d="M632 582H696V646H632V582Z"/>
</mask>
<path d="M696 646V647H697V646H696ZM695 582V646H697V582H695ZM696 645H632V647H696V645Z" fill="#D0D5DD" mask="url(#path-501-inside-250_25_2974)"/>
<mask id="path-503-inside-251_25_2974" fill="white">
<path d="M696 582H760V646H696V582Z"/>
</mask>
<path d="M760 646V647H761V646H760ZM759 582V646H761V582H759ZM760 645H696V647H760V645Z" fill="#D0D5DD" mask="url(#path-503-inside-251_25_2974)"/>
<mask id="path-505-inside-252_25_2974" fill="white">
<path d="M760 582H824V646H760V582Z"/>
</mask>
<path d="M824 646V647H825V646H824ZM823 582V646H825V582H823ZM824 645H760V647H824V645Z" fill="#D0D5DD" mask="url(#path-505-inside-252_25_2974)"/>
<mask id="path-507-inside-253_25_2974" fill="white">
<path d="M824 582H888V646H824V582Z"/>
</mask>
<path d="M888 646V647H889V646H888ZM887 582V646H889V582H887ZM888 645H824V647H888V645Z" fill="#D0D5DD" mask="url(#path-507-inside-253_25_2974)"/>
<mask id="path-509-inside-254_25_2974" fill="white">
<path d="M888 582H952V646H888V582Z"/>
</mask>
<path d="M952 646V647H953V646H952ZM951 582V646H953V582H951ZM952 645H888V647H952V645Z" fill="#D0D5DD" mask="url(#path-509-inside-254_25_2974)"/>
<mask id="path-511-inside-255_25_2974" fill="white">
<path d="M952 582H1016V646H952V582Z"/>
</mask>
<path d="M1016 646V647H1017V646H1016ZM1015 582V646H1017V582H1015ZM1016 645H952V647H1016V645Z" fill="#D0D5DD" mask="url(#path-511-inside-255_25_2974)"/>
<mask id="path-513-inside-256_25_2974" fill="white">
<path d="M1016 582H1080V646H1016V582Z"/>
</mask>
<path d="M1080 646V647H1081V646H1080ZM1079 582V646H1081V582H1079ZM1080 645H1016V647H1080V645Z" fill="#D0D5DD" mask="url(#path-513-inside-256_25_2974)"/>
<mask id="path-515-inside-257_25_2974" fill="white">
<path d="M1080 582H1144V646H1080V582Z"/>
</mask>
<path d="M1080 582H1144V646H1080V582Z" fill="#F2F4F7"/>
<path d="M1144 646V647H1145V646H1144ZM1143 582V646H1145V582H1143ZM1144 645H1080V647H1144V645Z" fill="#D0D5DD" mask="url(#path-515-inside-257_25_2974)"/>
<mask id="path-517-inside-258_25_2974" fill="white">
<path d="M1144 582H1208V646H1144V582Z"/>
</mask>
<path d="M1208 646V647H1209V646H1208ZM1207 582V646H1209V582H1207ZM1208 645H1144V647H1208V645Z" fill="#D0D5DD" mask="url(#path-517-inside-258_25_2974)"/>
<mask id="path-519-inside-259_25_2974" fill="white">
<path d="M1208 582H1272V646H1208V582Z"/>
</mask>
<path d="M1272 646V647H1273V646H1272ZM1271 582V646H1273V582H1271ZM1272 645H1208V647H1272V645Z" fill="#D0D5DD" mask="url(#path-519-inside-259_25_2974)"/>
<mask id="path-521-inside-260_25_2974" fill="white">
<path d="M1272 582H1336V646H1272V582Z"/>
</mask>
<path d="M1336 646V647H1337V646H1336ZM1335 582V646H1337V582H1335ZM1336 645H1272V647H1336V645Z" fill="#D0D5DD" mask="url(#path-521-inside-260_25_2974)"/>
<mask id="path-523-inside-261_25_2974" fill="white">
<path d="M1336 582H1400V646H1336V582Z"/>
</mask>
<path d="M1400 646V647H1401V646H1400ZM1399 582V646H1401V582H1399ZM1400 645H1336V647H1400V645Z" fill="#D0D5DD" mask="url(#path-523-inside-261_25_2974)"/>
<mask id="path-525-inside-262_25_2974" fill="white">
<path d="M1400 582H1464V646H1400V582Z"/>
</mask>
<path d="M1464 646V647H1465V646H1464ZM1463 582V646H1465V582H1463ZM1464 645H1400V647H1464V645Z" fill="#D0D5DD" mask="url(#path-525-inside-262_25_2974)"/>
<mask id="path-527-inside-263_25_2974" fill="white">
<path d="M1464 582H1528V646H1464V582Z"/>
</mask>
<path d="M1528 646V647H1529V646H1528ZM1527 582V646H1529V582H1527ZM1528 645H1464V647H1528V645Z" fill="#D0D5DD" mask="url(#path-527-inside-263_25_2974)"/>
<mask id="path-529-inside-264_25_2974" fill="white">
<path d="M1528 582H1592V646H1528V582Z"/>
</mask>
<path d="M1592 646V647H1593V646H1592ZM1591 582V646H1593V582H1591ZM1592 645H1528V647H1592V645Z" fill="#D0D5DD" mask="url(#path-529-inside-264_25_2974)"/>
<mask id="path-531-inside-265_25_2974" fill="white">
<path d="M56 646H120V710H56V646Z"/>
</mask>
<path d="M120 710V711H121V710H120ZM119 646V710H121V646H119ZM120 709H56V711H120V709Z" fill="#D0D5DD" mask="url(#path-531-inside-265_25_2974)"/>
<mask id="path-533-inside-266_25_2974" fill="white">
<path d="M120 646H184V710H120V646Z"/>
</mask>
<path d="M184 710V711H185V710H184ZM183 646V710H185V646H183ZM184 709H120V711H184V709Z" fill="#D0D5DD" mask="url(#path-533-inside-266_25_2974)"/>
<mask id="path-535-inside-267_25_2974" fill="white">
<path d="M184 646H248V710H184V646Z"/>
</mask>
<path d="M248 710V711H249V710H248ZM247 646V710H249V646H247ZM248 709H184V711H248V709Z" fill="#D0D5DD" mask="url(#path-535-inside-267_25_2974)"/>
<mask id="path-537-inside-268_25_2974" fill="white">
<path d="M248 646H312V710H248V646Z"/>
</mask>
<path d="M312 710V711H313V710H312ZM311 646V710H313V646H311ZM312 709H248V711H312V709Z" fill="#D0D5DD" mask="url(#path-537-inside-268_25_2974)"/>
<mask id="path-539-inside-269_25_2974" fill="white">
<path d="M312 646H376V710H312V646Z"/>
</mask>
<path d="M312 646H376V710H312V646Z" fill="#F2F4F7"/>
<path d="M376 710V711H377V710H376ZM375 646V710H377V646H375ZM376 709H312V711H376V709Z" fill="#D0D5DD" mask="url(#path-539-inside-269_25_2974)"/>
<mask id="path-541-inside-270_25_2974" fill="white">
<path d="M376 646H440V710H376V646Z"/>
</mask>
<path d="M440 710V711H441V710H440ZM439 646V710H441V646H439ZM440 709H376V711H440V709Z" fill="#D0D5DD" mask="url(#path-541-inside-270_25_2974)"/>
<mask id="path-543-inside-271_25_2974" fill="white">
<path d="M440 646H504V710H440V646Z"/>
</mask>
<path d="M504 710V711H505V710H504ZM503 646V710H505V646H503ZM504 709H440V711H504V709Z" fill="#D0D5DD" mask="url(#path-543-inside-271_25_2974)"/>
<mask id="path-545-inside-272_25_2974" fill="white">
<path d="M504 646H568V710H504V646Z"/>
</mask>
<path d="M568 710V711H569V710H568ZM567 646V710H569V646H567ZM568 709H504V711H568V709Z" fill="#D0D5DD" mask="url(#path-545-inside-272_25_2974)"/>
<mask id="path-547-inside-273_25_2974" fill="white">
<path d="M568 646H632V710H568V646Z"/>
</mask>
<path d="M632 710V711H633V710H632ZM631 646V710H633V646H631ZM632 709H568V711H632V709Z" fill="#D0D5DD" mask="url(#path-547-inside-273_25_2974)"/>
<mask id="path-549-inside-274_25_2974" fill="white">
<path d="M632 646H696V710H632V646Z"/>
</mask>
<path d="M696 710V711H697V710H696ZM695 646V710H697V646H695ZM696 709H632V711H696V709Z" fill="#D0D5DD" mask="url(#path-549-inside-274_25_2974)"/>
<mask id="path-551-inside-275_25_2974" fill="white">
<path d="M696 646H760V710H696V646Z"/>
</mask>
<path d="M760 710V711H761V710H760ZM759 646V710H761V646H759ZM760 709H696V711H760V709Z" fill="#D0D5DD" mask="url(#path-551-inside-275_25_2974)"/>
<mask id="path-553-inside-276_25_2974" fill="white">
<path d="M760 646H824V710H760V646Z"/>
</mask>
<path d="M824 710V711H825V710H824ZM823 646V710H825V646H823ZM824 709H760V711H824V709Z" fill="#D0D5DD" mask="url(#path-553-inside-276_25_2974)"/>
<mask id="path-555-inside-277_25_2974" fill="white">
<path d="M824 646H888V710H824V646Z"/>
</mask>
<path d="M888 710V711H889V710H888ZM887 646V710H889V646H887ZM888 709H824V711H888V709Z" fill="#D0D5DD" mask="url(#path-555-inside-277_25_2974)"/>
<mask id="path-557-inside-278_25_2974" fill="white">
<path d="M888 646H952V710H888V646Z"/>
</mask>
<path d="M952 710V711H953V710H952ZM951 646V710H953V646H951ZM952 709H888V711H952V709Z" fill="#D0D5DD" mask="url(#path-557-inside-278_25_2974)"/>
<mask id="path-559-inside-279_25_2974" fill="white">
<path d="M952 646H1016V710H952V646Z"/>
</mask>
<path d="M1016 710V711H1017V710H1016ZM1015 646V710H1017V646H1015ZM1016 709H952V711H1016V709Z" fill="#D0D5DD" mask="url(#path-559-inside-279_25_2974)"/>
<mask id="path-561-inside-280_25_2974" fill="white">
<path d="M1016 646H1080V710H1016V646Z"/>
</mask>
<path d="M1080 710V711H1081V710H1080ZM1079 646V710H1081V646H1079ZM1080 709H1016V711H1080V709Z" fill="#D0D5DD" mask="url(#path-561-inside-280_25_2974)"/>
<mask id="path-563-inside-281_25_2974" fill="white">
<path d="M1080 646H1144V710H1080V646Z"/>
</mask>
<path d="M1144 710V711H1145V710H1144ZM1143 646V710H1145V646H1143ZM1144 709H1080V711H1144V709Z" fill="#D0D5DD" mask="url(#path-563-inside-281_25_2974)"/>
<mask id="path-565-inside-282_25_2974" fill="white">
<path d="M1144 646H1208V710H1144V646Z"/>
</mask>
<path d="M1208 710V711H1209V710H1208ZM1207 646V710H1209V646H1207ZM1208 709H1144V711H1208V709Z" fill="#D0D5DD" mask="url(#path-565-inside-282_25_2974)"/>
<mask id="path-567-inside-283_25_2974" fill="white">
<path d="M1208 646H1272V710H1208V646Z"/>
</mask>
<path d="M1272 710V711H1273V710H1272ZM1271 646V710H1273V646H1271ZM1272 709H1208V711H1272V709Z" fill="#D0D5DD" mask="url(#path-567-inside-283_25_2974)"/>
<mask id="path-569-inside-284_25_2974" fill="white">
<path d="M1272 646H1336V710H1272V646Z"/>
</mask>
<path d="M1272 646H1336V710H1272V646Z" fill="#F2F4F7"/>
<path d="M1336 710V711H1337V710H1336ZM1335 646V710H1337V646H1335ZM1336 709H1272V711H1336V709Z" fill="#D0D5DD" mask="url(#path-569-inside-284_25_2974)"/>
<mask id="path-571-inside-285_25_2974" fill="white">
<path d="M1336 646H1400V710H1336V646Z"/>
</mask>
<path d="M1400 710V711H1401V710H1400ZM1399 646V710H1401V646H1399ZM1400 709H1336V711H1400V709Z" fill="#D0D5DD" mask="url(#path-571-inside-285_25_2974)"/>
<mask id="path-573-inside-286_25_2974" fill="white">
<path d="M1400 646H1464V710H1400V646Z"/>
</mask>
<path d="M1464 710V711H1465V710H1464ZM1463 646V710H1465V646H1463ZM1464 709H1400V711H1464V709Z" fill="#D0D5DD" mask="url(#path-573-inside-286_25_2974)"/>
<mask id="path-575-inside-287_25_2974" fill="white">
<path d="M1464 646H1528V710H1464V646Z"/>
</mask>
<path d="M1528 710V711H1529V710H1528ZM1527 646V710H1529V646H1527ZM1528 709H1464V711H1528V709Z" fill="#D0D5DD" mask="url(#path-575-inside-287_25_2974)"/>
<mask id="path-577-inside-288_25_2974" fill="white">
<path d="M1528 646H1592V710H1528V646Z"/>
</mask>
<path d="M1592 710V711H1593V710H1592ZM1591 646V710H1593V646H1591ZM1592 709H1528V711H1592V709Z" fill="#D0D5DD" mask="url(#path-577-inside-288_25_2974)"/>
<mask id="path-579-inside-289_25_2974" fill="white">
<path d="M56 710H120V774H56V710Z"/>
</mask>
<path d="M120 774V775H121V774H120ZM119 710V774H121V710H119ZM120 773H56V775H120V773Z" fill="#D0D5DD" mask="url(#path-579-inside-289_25_2974)"/>
<mask id="path-581-inside-290_25_2974" fill="white">
<path d="M120 710H184V774H120V710Z"/>
</mask>
<path d="M184 774V775H185V774H184ZM183 710V774H185V710H183ZM184 773H120V775H184V773Z" fill="#D0D5DD" mask="url(#path-581-inside-290_25_2974)"/>
<mask id="path-583-inside-291_25_2974" fill="white">
<path d="M184 710H248V774H184V710Z"/>
</mask>
<path d="M248 774V775H249V774H248ZM247 710V774H249V710H247ZM248 773H184V775H248V773Z" fill="#D0D5DD" mask="url(#path-583-inside-291_25_2974)"/>
<mask id="path-585-inside-292_25_2974" fill="white">
<path d="M248 710H312V774H248V710Z"/>
</mask>
<path d="M312 774V775H313V774H312ZM311 710V774H313V710H311ZM312 773H248V775H312V773Z" fill="#D0D5DD" mask="url(#path-585-inside-292_25_2974)"/>
<mask id="path-587-inside-293_25_2974" fill="white">
<path d="M312 710H376V774H312V710Z"/>
</mask>
<path d="M376 774V775H377V774H376ZM375 710V774H377V710H375ZM376 773H312V775H376V773Z" fill="#D0D5DD" mask="url(#path-587-inside-293_25_2974)"/>
<mask id="path-589-inside-294_25_2974" fill="white">
<path d="M376 710H440V774H376V710Z"/>
</mask>
<path d="M440 774V775H441V774H440ZM439 710V774H441V710H439ZM440 773H376V775H440V773Z" fill="#D0D5DD" mask="url(#path-589-inside-294_25_2974)"/>
<mask id="path-591-inside-295_25_2974" fill="white">
<path d="M440 710H504V774H440V710Z"/>
</mask>
<path d="M504 774V775H505V774H504ZM503 710V774H505V710H503ZM504 773H440V775H504V773Z" fill="#D0D5DD" mask="url(#path-591-inside-295_25_2974)"/>
<mask id="path-593-inside-296_25_2974" fill="white">
<path d="M504 710H568V774H504V710Z"/>
</mask>
<path d="M568 774V775H569V774H568ZM567 710V774H569V710H567ZM568 773H504V775H568V773Z" fill="#D0D5DD" mask="url(#path-593-inside-296_25_2974)"/>
<mask id="path-595-inside-297_25_2974" fill="white">
<path d="M568 710H632V774H568V710Z"/>
</mask>
<path d="M632 774V775H633V774H632ZM631 710V774H633V710H631ZM632 773H568V775H632V773Z" fill="#D0D5DD" mask="url(#path-595-inside-297_25_2974)"/>
<mask id="path-597-inside-298_25_2974" fill="white">
<path d="M632 710H696V774H632V710Z"/>
</mask>
<path d="M632 710H696V774H632V710Z" fill="#F2F4F7"/>
<path d="M696 774V775H697V774H696ZM695 710V774H697V710H695ZM696 773H632V775H696V773Z" fill="#D0D5DD" mask="url(#path-597-inside-298_25_2974)"/>
<mask id="path-599-inside-299_25_2974" fill="white">
<path d="M696 710H760V774H696V710Z"/>
</mask>
<path d="M760 774V775H761V774H760ZM759 710V774H761V710H759ZM760 773H696V775H760V773Z" fill="#D0D5DD" mask="url(#path-599-inside-299_25_2974)"/>
<mask id="path-601-inside-300_25_2974" fill="white">
<path d="M760 710H824V774H760V710Z"/>
</mask>
<path d="M824 774V775H825V774H824ZM823 710V774H825V710H823ZM824 773H760V775H824V773Z" fill="#D0D5DD" mask="url(#path-601-inside-300_25_2974)"/>
<mask id="path-603-inside-301_25_2974" fill="white">
<path d="M824 710H888V774H824V710Z"/>
</mask>
<path d="M888 774V775H889V774H888ZM887 710V774H889V710H887ZM888 773H824V775H888V773Z" fill="#D0D5DD" mask="url(#path-603-inside-301_25_2974)"/>
<mask id="path-605-inside-302_25_2974" fill="white">
<path d="M888 710H952V774H888V710Z"/>
</mask>
<path d="M888 710H952V774H888V710Z" fill="#F2F4F7"/>
<path d="M952 774V775H953V774H952ZM951 710V774H953V710H951ZM952 773H888V775H952V773Z" fill="#D0D5DD" mask="url(#path-605-inside-302_25_2974)"/>
<mask id="path-607-inside-303_25_2974" fill="white">
<path d="M952 710H1016V774H952V710Z"/>
</mask>
<path d="M1016 774V775H1017V774H1016ZM1015 710V774H1017V710H1015ZM1016 773H952V775H1016V773Z" fill="#D0D5DD" mask="url(#path-607-inside-303_25_2974)"/>
<mask id="path-609-inside-304_25_2974" fill="white">
<path d="M1016 710H1080V774H1016V710Z"/>
</mask>
<path d="M1080 774V775H1081V774H1080ZM1079 710V774H1081V710H1079ZM1080 773H1016V775H1080V773Z" fill="#D0D5DD" mask="url(#path-609-inside-304_25_2974)"/>
<mask id="path-611-inside-305_25_2974" fill="white">
<path d="M1080 710H1144V774H1080V710Z"/>
</mask>
<path d="M1144 774V775H1145V774H1144ZM1143 710V774H1145V710H1143ZM1144 773H1080V775H1144V773Z" fill="#D0D5DD" mask="url(#path-611-inside-305_25_2974)"/>
<mask id="path-613-inside-306_25_2974" fill="white">
<path d="M1144 710H1208V774H1144V710Z"/>
</mask>
<path d="M1208 774V775H1209V774H1208ZM1207 710V774H1209V710H1207ZM1208 773H1144V775H1208V773Z" fill="#D0D5DD" mask="url(#path-613-inside-306_25_2974)"/>
<mask id="path-615-inside-307_25_2974" fill="white">
<path d="M1208 710H1272V774H1208V710Z"/>
</mask>
<path d="M1272 774V775H1273V774H1272ZM1271 710V774H1273V710H1271ZM1272 773H1208V775H1272V773Z" fill="#D0D5DD" mask="url(#path-615-inside-307_25_2974)"/>
<mask id="path-617-inside-308_25_2974" fill="white">
<path d="M1272 710H1336V774H1272V710Z"/>
</mask>
<path d="M1336 774V775H1337V774H1336ZM1335 710V774H1337V710H1335ZM1336 773H1272V775H1336V773Z" fill="#D0D5DD" mask="url(#path-617-inside-308_25_2974)"/>
<mask id="path-619-inside-309_25_2974" fill="white">
<path d="M1336 710H1400V774H1336V710Z"/>
</mask>
<path d="M1400 774V775H1401V774H1400ZM1399 710V774H1401V710H1399ZM1400 773H1336V775H1400V773Z" fill="#D0D5DD" mask="url(#path-619-inside-309_25_2974)"/>
<mask id="path-621-inside-310_25_2974" fill="white">
<path d="M1400 710H1464V774H1400V710Z"/>
</mask>
<path d="M1464 774V775H1465V774H1464ZM1463 710V774H1465V710H1463ZM1464 773H1400V775H1464V773Z" fill="#D0D5DD" mask="url(#path-621-inside-310_25_2974)"/>
<mask id="path-623-inside-311_25_2974" fill="white">
<path d="M1464 710H1528V774H1464V710Z"/>
</mask>
<path d="M1528 774V775H1529V774H1528ZM1527 710V774H1529V710H1527ZM1528 773H1464V775H1528V773Z" fill="#D0D5DD" mask="url(#path-623-inside-311_25_2974)"/>
<mask id="path-625-inside-312_25_2974" fill="white">
<path d="M1528 710H1592V774H1528V710Z"/>
</mask>
<path d="M1528 710H1592V774H1528V710Z" fill="#F2F4F7"/>
<path d="M1592 774V775H1593V774H1592ZM1591 710V774H1593V710H1591ZM1592 773H1528V775H1592V773Z" fill="#D0D5DD" mask="url(#path-625-inside-312_25_2974)"/>
<mask id="path-627-inside-313_25_2974" fill="white">
<path d="M56 774H120V838H56V774Z"/>
</mask>
<path d="M56 774H120V838H56V774Z" fill="#F2F4F7"/>
<path d="M120 838V839H121V838H120ZM119 774V838H121V774H119ZM120 837H56V839H120V837Z" fill="#D0D5DD" mask="url(#path-627-inside-313_25_2974)"/>
<mask id="path-629-inside-314_25_2974" fill="white">
<path d="M120 774H184V838H120V774Z"/>
</mask>
<path d="M184 838V839H185V838H184ZM183 774V838H185V774H183ZM184 837H120V839H184V837Z" fill="#D0D5DD" mask="url(#path-629-inside-314_25_2974)"/>
<mask id="path-631-inside-315_25_2974" fill="white">
<path d="M184 774H248V838H184V774Z"/>
</mask>
<path d="M248 838V839H249V838H248ZM247 774V838H249V774H247ZM248 837H184V839H248V837Z" fill="#D0D5DD" mask="url(#path-631-inside-315_25_2974)"/>
<mask id="path-633-inside-316_25_2974" fill="white">
<path d="M248 774H312V838H248V774Z"/>
</mask>
<path d="M248 774H312V838H248V774Z" fill="#F2F4F7"/>
<path d="M312 838V839H313V838H312ZM311 774V838H313V774H311ZM312 837H248V839H312V837Z" fill="#D0D5DD" mask="url(#path-633-inside-316_25_2974)"/>
<mask id="path-635-inside-317_25_2974" fill="white">
<path d="M312 774H376V838H312V774Z"/>
</mask>
<path d="M376 838V839H377V838H376ZM375 774V838H377V774H375ZM376 837H312V839H376V837Z" fill="#D0D5DD" mask="url(#path-635-inside-317_25_2974)"/>
<mask id="path-637-inside-318_25_2974" fill="white">
<path d="M376 774H440V838H376V774Z"/>
</mask>
<path d="M440 838V839H441V838H440ZM439 774V838H441V774H439ZM440 837H376V839H440V837Z" fill="#D0D5DD" mask="url(#path-637-inside-318_25_2974)"/>
<mask id="path-639-inside-319_25_2974" fill="white">
<path d="M440 774H504V838H440V774Z"/>
</mask>
<path d="M504 838V839H505V838H504ZM503 774V838H505V774H503ZM504 837H440V839H504V837Z" fill="#D0D5DD" mask="url(#path-639-inside-319_25_2974)"/>
<mask id="path-641-inside-320_25_2974" fill="white">
<path d="M504 774H568V838H504V774Z"/>
</mask>
<path d="M568 838V839H569V838H568ZM567 774V838H569V774H567ZM568 837H504V839H568V837Z" fill="#D0D5DD" mask="url(#path-641-inside-320_25_2974)"/>
<mask id="path-643-inside-321_25_2974" fill="white">
<path d="M568 774H632V838H568V774Z"/>
</mask>
<path d="M632 838V839H633V838H632ZM631 774V838H633V774H631ZM632 837H568V839H632V837Z" fill="#D0D5DD" mask="url(#path-643-inside-321_25_2974)"/>
<mask id="path-645-inside-322_25_2974" fill="white">
<path d="M632 774H696V838H632V774Z"/>
</mask>
<path d="M696 838V839H697V838H696ZM695 774V838H697V774H695ZM696 837H632V839H696V837Z" fill="#D0D5DD" mask="url(#path-645-inside-322_25_2974)"/>
<mask id="path-647-inside-323_25_2974" fill="white">
<path d="M696 774H760V838H696V774Z"/>
</mask>
<path d="M760 838V839H761V838H760ZM759 774V838H761V774H759ZM760 837H696V839H760V837Z" fill="#D0D5DD" mask="url(#path-647-inside-323_25_2974)"/>
<mask id="path-649-inside-324_25_2974" fill="white">
<path d="M760 774H824V838H760V774Z"/>
</mask>
<path d="M824 838V839H825V838H824ZM823 774V838H825V774H823ZM824 837H760V839H824V837Z" fill="#D0D5DD" mask="url(#path-649-inside-324_25_2974)"/>
<mask id="path-651-inside-325_25_2974" fill="white">
<path d="M824 774H888V838H824V774Z"/>
</mask>
<path d="M888 838V839H889V838H888ZM887 774V838H889V774H887ZM888 837H824V839H888V837Z" fill="#D0D5DD" mask="url(#path-651-inside-325_25_2974)"/>
<mask id="path-653-inside-326_25_2974" fill="white">
<path d="M888 774H952V838H888V774Z"/>
</mask>
<path d="M952 838V839H953V838H952ZM951 774V838H953V774H951ZM952 837H888V839H952V837Z" fill="#D0D5DD" mask="url(#path-653-inside-326_25_2974)"/>
<mask id="path-655-inside-327_25_2974" fill="white">
<path d="M952 774H1016V838H952V774Z"/>
</mask>
<path d="M1016 838V839H1017V838H1016ZM1015 774V838H1017V774H1015ZM1016 837H952V839H1016V837Z" fill="#D0D5DD" mask="url(#path-655-inside-327_25_2974)"/>
<mask id="path-657-inside-328_25_2974" fill="white">
<path d="M1016 774H1080V838H1016V774Z"/>
</mask>
<path d="M1080 838V839H1081V838H1080ZM1079 774V838H1081V774H1079ZM1080 837H1016V839H1080V837Z" fill="#D0D5DD" mask="url(#path-657-inside-328_25_2974)"/>
<mask id="path-659-inside-329_25_2974" fill="white">
<path d="M1080 774H1144V838H1080V774Z"/>
</mask>
<path d="M1144 838V839H1145V838H1144ZM1143 774V838H1145V774H1143ZM1144 837H1080V839H1144V837Z" fill="#D0D5DD" mask="url(#path-659-inside-329_25_2974)"/>
<mask id="path-661-inside-330_25_2974" fill="white">
<path d="M1144 774H1208V838H1144V774Z"/>
</mask>
<path d="M1144 774H1208V838H1144V774Z" fill="#F2F4F7"/>
<path d="M1208 838V839H1209V838H1208ZM1207 774V838H1209V774H1207ZM1208 837H1144V839H1208V837Z" fill="#D0D5DD" mask="url(#path-661-inside-330_25_2974)"/>
<mask id="path-663-inside-331_25_2974" fill="white">
<path d="M1208 774H1272V838H1208V774Z"/>
</mask>
<path d="M1272 838V839H1273V838H1272ZM1271 774V838H1273V774H1271ZM1272 837H1208V839H1272V837Z" fill="#D0D5DD" mask="url(#path-663-inside-331_25_2974)"/>
<mask id="path-665-inside-332_25_2974" fill="white">
<path d="M1272 774H1336V838H1272V774Z"/>
</mask>
<path d="M1336 838V839H1337V838H1336ZM1335 774V838H1337V774H1335ZM1336 837H1272V839H1336V837Z" fill="#D0D5DD" mask="url(#path-665-inside-332_25_2974)"/>
<mask id="path-667-inside-333_25_2974" fill="white">
<path d="M1336 774H1400V838H1336V774Z"/>
</mask>
<path d="M1400 838V839H1401V838H1400ZM1399 774V838H1401V774H1399ZM1400 837H1336V839H1400V837Z" fill="#D0D5DD" mask="url(#path-667-inside-333_25_2974)"/>
<mask id="path-669-inside-334_25_2974" fill="white">
<path d="M1400 774H1464V838H1400V774Z"/>
</mask>
<path d="M1464 838V839H1465V838H1464ZM1463 774V838H1465V774H1463ZM1464 837H1400V839H1464V837Z" fill="#D0D5DD" mask="url(#path-669-inside-334_25_2974)"/>
<mask id="path-671-inside-335_25_2974" fill="white">
<path d="M1464 774H1528V838H1464V774Z"/>
</mask>
<path d="M1528 838V839H1529V838H1528ZM1527 774V838H1529V774H1527ZM1528 837H1464V839H1528V837Z" fill="#D0D5DD" mask="url(#path-671-inside-335_25_2974)"/>
<mask id="path-673-inside-336_25_2974" fill="white">
<path d="M1528 774H1592V838H1528V774Z"/>
</mask>
<path d="M1592 838V839H1593V838H1592ZM1591 774V838H1593V774H1591ZM1592 837H1528V839H1592V837Z" fill="#D0D5DD" mask="url(#path-673-inside-336_25_2974)"/>
<mask id="path-675-inside-337_25_2974" fill="white">
<path d="M56 838H120V902H56V838Z"/>
</mask>
<path d="M120 902V903H121V902H120ZM119 838V902H121V838H119ZM120 901H56V903H120V901Z" fill="#D0D5DD" mask="url(#path-675-inside-337_25_2974)"/>
<mask id="path-677-inside-338_25_2974" fill="white">
<path d="M120 838H184V902H120V838Z"/>
</mask>
<path d="M184 902V903H185V902H184ZM183 838V902H185V838H183ZM184 901H120V903H184V901Z" fill="#D0D5DD" mask="url(#path-677-inside-338_25_2974)"/>
<mask id="path-679-inside-339_25_2974" fill="white">
<path d="M184 838H248V902H184V838Z"/>
</mask>
<path d="M248 902V903H249V902H248ZM247 838V902H249V838H247ZM248 901H184V903H248V901Z" fill="#D0D5DD" mask="url(#path-679-inside-339_25_2974)"/>
<mask id="path-681-inside-340_25_2974" fill="white">
<path d="M248 838H312V902H248V838Z"/>
</mask>
<path d="M312 902V903H313V902H312ZM311 838V902H313V838H311ZM312 901H248V903H312V901Z" fill="#D0D5DD" mask="url(#path-681-inside-340_25_2974)"/>
<mask id="path-683-inside-341_25_2974" fill="white">
<path d="M312 838H376V902H312V838Z"/>
</mask>
<path d="M376 902V903H377V902H376ZM375 838V902H377V838H375ZM376 901H312V903H376V901Z" fill="#D0D5DD" mask="url(#path-683-inside-341_25_2974)"/>
<mask id="path-685-inside-342_25_2974" fill="white">
<path d="M376 838H440V902H376V838Z"/>
</mask>
<path d="M376 838H440V902H376V838Z" fill="#F2F4F7"/>
<path d="M440 902V903H441V902H440ZM439 838V902H441V838H439ZM440 901H376V903H440V901Z" fill="#D0D5DD" mask="url(#path-685-inside-342_25_2974)"/>
<mask id="path-687-inside-343_25_2974" fill="white">
<path d="M440 838H504V902H440V838Z"/>
</mask>
<path d="M504 902V903H505V902H504ZM503 838V902H505V838H503ZM504 901H440V903H504V901Z" fill="#D0D5DD" mask="url(#path-687-inside-343_25_2974)"/>
<mask id="path-689-inside-344_25_2974" fill="white">
<path d="M504 838H568V902H504V838Z"/>
</mask>
<path d="M568 902V903H569V902H568ZM567 838V902H569V838H567ZM568 901H504V903H568V901Z" fill="#D0D5DD" mask="url(#path-689-inside-344_25_2974)"/>
<mask id="path-691-inside-345_25_2974" fill="white">
<path d="M568 838H632V902H568V838Z"/>
</mask>
<path d="M632 902V903H633V902H632ZM631 838V902H633V838H631ZM632 901H568V903H632V901Z" fill="#D0D5DD" mask="url(#path-691-inside-345_25_2974)"/>
<mask id="path-693-inside-346_25_2974" fill="white">
<path d="M632 838H696V902H632V838Z"/>
</mask>
<path d="M696 902V903H697V902H696ZM695 838V902H697V838H695ZM696 901H632V903H696V901Z" fill="#D0D5DD" mask="url(#path-693-inside-346_25_2974)"/>
<mask id="path-695-inside-347_25_2974" fill="white">
<path d="M696 838H760V902H696V838Z"/>
</mask>
<path d="M696 838H760V902H696V838Z" fill="#F2F4F7"/>
<path d="M760 902V903H761V902H760ZM759 838V902H761V838H759ZM760 901H696V903H760V901Z" fill="#D0D5DD" mask="url(#path-695-inside-347_25_2974)"/>
<mask id="path-697-inside-348_25_2974" fill="white">
<path d="M760 838H824V902H760V838Z"/>
</mask>
<path d="M824 902V903H825V902H824ZM823 838V902H825V838H823ZM824 901H760V903H824V901Z" fill="#D0D5DD" mask="url(#path-697-inside-348_25_2974)"/>
<mask id="path-699-inside-349_25_2974" fill="white">
<path d="M824 838H888V902H824V838Z"/>
</mask>
<path d="M888 902V903H889V902H888ZM887 838V902H889V838H887ZM888 901H824V903H888V901Z" fill="#D0D5DD" mask="url(#path-699-inside-349_25_2974)"/>
<mask id="path-701-inside-350_25_2974" fill="white">
<path d="M888 838H952V902H888V838Z"/>
</mask>
<path d="M952 902V903H953V902H952ZM951 838V902H953V838H951ZM952 901H888V903H952V901Z" fill="#D0D5DD" mask="url(#path-701-inside-350_25_2974)"/>
<mask id="path-703-inside-351_25_2974" fill="white">
<path d="M952 838H1016V902H952V838Z"/>
</mask>
<path d="M1016 902V903H1017V902H1016ZM1015 838V902H1017V838H1015ZM1016 901H952V903H1016V901Z" fill="#D0D5DD" mask="url(#path-703-inside-351_25_2974)"/>
<mask id="path-705-inside-352_25_2974" fill="white">
<path d="M1016 838H1080V902H1016V838Z"/>
</mask>
<path d="M1080 902V903H1081V902H1080ZM1079 838V902H1081V838H1079ZM1080 901H1016V903H1080V901Z" fill="#D0D5DD" mask="url(#path-705-inside-352_25_2974)"/>
<mask id="path-707-inside-353_25_2974" fill="white">
<path d="M1080 838H1144V902H1080V838Z"/>
</mask>
<path d="M1144 902V903H1145V902H1144ZM1143 838V902H1145V838H1143ZM1144 901H1080V903H1144V901Z" fill="#D0D5DD" mask="url(#path-707-inside-353_25_2974)"/>
<mask id="path-709-inside-354_25_2974" fill="white">
<path d="M1144 838H1208V902H1144V838Z"/>
</mask>
<path d="M1208 902V903H1209V902H1208ZM1207 838V902H1209V838H1207ZM1208 901H1144V903H1208V901Z" fill="#D0D5DD" mask="url(#path-709-inside-354_25_2974)"/>
<mask id="path-711-inside-355_25_2974" fill="white">
<path d="M1208 838H1272V902H1208V838Z"/>
</mask>
<path d="M1272 902V903H1273V902H1272ZM1271 838V902H1273V838H1271ZM1272 901H1208V903H1272V901Z" fill="#D0D5DD" mask="url(#path-711-inside-355_25_2974)"/>
<mask id="path-713-inside-356_25_2974" fill="white">
<path d="M1272 838H1336V902H1272V838Z"/>
</mask>
<path d="M1336 902V903H1337V902H1336ZM1335 838V902H1337V838H1335ZM1336 901H1272V903H1336V901Z" fill="#D0D5DD" mask="url(#path-713-inside-356_25_2974)"/>
<mask id="path-715-inside-357_25_2974" fill="white">
<path d="M1336 838H1400V902H1336V838Z"/>
</mask>
<path d="M1400 902V903H1401V902H1400ZM1399 838V902H1401V838H1399ZM1400 901H1336V903H1400V901Z" fill="#D0D5DD" mask="url(#path-715-inside-357_25_2974)"/>
<mask id="path-717-inside-358_25_2974" fill="white">
<path d="M1400 838H1464V902H1400V838Z"/>
</mask>
<path d="M1400 838H1464V902H1400V838Z" fill="#F2F4F7"/>
<path d="M1464 902V903H1465V902H1464ZM1463 838V902H1465V838H1463ZM1464 901H1400V903H1464V901Z" fill="#D0D5DD" mask="url(#path-717-inside-358_25_2974)"/>
<mask id="path-719-inside-359_25_2974" fill="white">
<path d="M1464 838H1528V902H1464V838Z"/>
</mask>
<path d="M1528 902V903H1529V902H1528ZM1527 838V902H1529V838H1527ZM1528 901H1464V903H1528V901Z" fill="#D0D5DD" mask="url(#path-719-inside-359_25_2974)"/>
<mask id="path-721-inside-360_25_2974" fill="white">
<path d="M1528 838H1592V902H1528V838Z"/>
</mask>
<path d="M1592 902V903H1593V902H1592ZM1591 838V902H1593V838H1591ZM1592 901H1528V903H1592V901Z" fill="#D0D5DD" mask="url(#path-721-inside-360_25_2974)"/>
</g>
<rect x="-135.5" y="-377.5" width="1919" height="1407" stroke="#D0D5DD"/>
</g>
</g>
<defs>
<radialGradient id="paint0_radial_25_2974" cx="0" cy="0" r="1" gradientUnits="userSpaceOnUse" gradientTransform="translate(720 -0.000171661) rotate(90) scale(1440 751.588)">
<stop/>
<stop offset="0.953125" stop-opacity="0"/>
</radialGradient>
<clipPath id="clip0_25_2974">
<rect width="1920" height="1275" fill="white" transform="translate(-136 -378)"/>
</clipPath>
<clipPath id="clip1_25_2974">
<rect x="-136" y="-378" width="1920" height="1408" fill="white"/>
</clipPath>
</defs>
</svg>
