<svg width="183" height="110" viewBox="0 0 183 110" fill="none" xmlns="http://www.w3.org/2000/svg">
<g opacity="0.1">
<path d="M178.95 76.0369C181.454 71.6753 181.454 66.3019 178.95 61.9403L163.812 35.5791C161.307 31.2175 156.679 28.5308 151.67 28.5308H121.394C116.385 28.5308 111.756 31.2175 109.251 35.5791L94.1137 61.9403C91.6091 66.3019 91.6091 71.6753 94.1137 76.0369L109.251 102.398C111.756 106.76 116.385 109.447 121.394 109.447H151.67C156.679 109.447 161.307 106.76 163.812 102.398L178.95 76.0369Z" fill="#86C7ED"/>
<path d="M76.196 -54.6883C71.1869 -54.65 66.5787 -51.9278 64.1073 -47.5472L49.9137 -22.3895C49.9035 -22.371 49.88 -22.3646 49.8616 -22.3751C49.8432 -22.3857 49.82 -22.379 49.8095 -22.3605L18.8297 32.5496C18.8198 32.5676 18.8259 32.5904 18.8438 32.6004C18.8616 32.6104 18.868 32.6333 18.858 32.6512L1.96742 62.5888C-0.503967 66.9694 -0.463394 72.3428 2.07411 76.6849L17.4111 102.93C19.9486 107.272 24.5974 109.923 29.6063 109.885L59.8812 109.653C64.8903 109.615 69.4985 106.893 71.9699 102.512L88.8608 72.5748C88.871 72.5566 88.8942 72.5502 88.9123 72.5607C88.9305 72.5712 88.9534 72.5648 88.9639 72.5466L119.944 17.636C119.954 17.618 119.948 17.5952 119.93 17.5852C119.912 17.5749 119.906 17.5523 119.916 17.5343L134.11 -7.62444C136.582 -12.005 136.541 -17.3784 134.003 -21.7205L118.666 -47.965C116.129 -52.3071 111.48 -54.9583 106.471 -54.92L76.196 -54.6883Z" fill="#1836B2"/>
</g>
</svg>
