<svg width="184" height="190" viewBox="0 0 184 190" fill="none" xmlns="http://www.w3.org/2000/svg">
<g opacity="0.1">
<path d="M-51.6659 172.333C-54.9642 166.597 -54.9642 159.53 -51.6659 153.794L-31.7302 119.125C-28.4318 113.389 -22.3364 109.855 -15.7396 109.855H24.1319C30.7287 109.855 36.8243 113.389 40.1227 119.125L60.0581 153.794C63.3565 159.53 63.3565 166.597 60.0581 172.333L40.1227 207.003C36.8243 212.738 30.7287 216.272 24.1319 216.272H-15.7396C-22.3364 216.272 -28.4318 212.738 -31.7302 207.003L-51.6659 172.333Z" fill="#86C7ED"/>
<path d="M83.6538 0.410237C90.2506 0.460653 96.3193 4.04073 99.574 9.80183L118.266 42.8881C118.28 42.9124 118.31 42.9208 118.335 42.907C118.359 42.8931 118.389 42.9019 118.403 42.9262L159.202 115.141C159.215 115.165 159.207 115.195 159.183 115.208C159.16 115.221 159.151 115.251 159.164 115.275L181.408 154.647C184.663 160.409 184.61 167.475 181.268 173.186L161.07 207.702C157.728 213.412 151.606 216.899 145.01 216.849L105.139 216.544C98.5427 216.494 92.474 212.914 89.2194 207.153L66.9751 167.781C66.9617 167.757 66.9311 167.748 66.9072 167.762C66.8833 167.776 66.8531 167.767 66.8393 167.743L26.0407 95.5276C26.0273 95.504 26.0354 95.4739 26.0589 95.4608C26.0824 95.4473 26.0905 95.4176 26.077 95.394L7.38424 62.3064C4.12957 56.5452 4.18334 49.4784 7.52508 43.7679L27.7234 9.25238C31.0651 3.54187 37.1872 0.0551053 43.7836 0.10552L83.6538 0.410237Z" fill="#1836B2"/>
</g>
</svg>
