<svg width="1728" height="1008" viewBox="0 0 1728 1008" fill="none" xmlns="http://www.w3.org/2000/svg">
<g clip-path="url(#clip0_14_1553)">
<rect width="1728" height="1008" fill="#F9F9F9"/>
<mask id="mask0_14_1553" style="mask-type:alpha" maskUnits="userSpaceOnUse" x="324" y="0" width="1080" height="1080">
<rect width="1080" height="1080" transform="translate(324)" fill="url(#paint0_radial_14_1553)"/>
</mask>
<g mask="url(#mask0_14_1553)">
<g clip-path="url(#clip1_14_1553)">
<g clip-path="url(#clip2_14_1553)">
<line x1="360.375" x2="360.375" y2="1080" stroke="#D0D5DD" stroke-width="0.75"/>
<line x1="432.375" x2="432.375" y2="1080" stroke="#D0D5DD" stroke-width="0.75"/>
<line x1="504.375" x2="504.375" y2="1080" stroke="#D0D5DD" stroke-width="0.75"/>
<line x1="576.375" x2="576.375" y2="1080" stroke="#D0D5DD" stroke-width="0.75"/>
<line x1="648.375" x2="648.375" y2="1080" stroke="#D0D5DD" stroke-width="0.75"/>
<line x1="720.375" x2="720.375" y2="1080" stroke="#D0D5DD" stroke-width="0.75"/>
<line x1="792.375" x2="792.375" y2="1080" stroke="#D0D5DD" stroke-width="0.75"/>
<line x1="864.375" x2="864.375" y2="1080" stroke="#D0D5DD" stroke-width="0.75"/>
<line x1="936.375" x2="936.375" y2="1080" stroke="#D0D5DD" stroke-width="0.75"/>
<line x1="1008.38" x2="1008.38" y2="1080" stroke="#D0D5DD" stroke-width="0.75"/>
<line x1="1080.38" x2="1080.38" y2="1080" stroke="#D0D5DD" stroke-width="0.75"/>
<line x1="1152.38" x2="1152.38" y2="1080" stroke="#D0D5DD" stroke-width="0.75"/>
<line x1="1224.38" x2="1224.38" y2="1080" stroke="#D0D5DD" stroke-width="0.75"/>
<line x1="1296.38" x2="1296.38" y2="1080" stroke="#D0D5DD" stroke-width="0.75"/>
<line x1="1368.38" x2="1368.38" y2="1080" stroke="#D0D5DD" stroke-width="0.75"/>
</g>
<g clip-path="url(#clip3_14_1553)">
<line x1="144" y1="71.625" x2="1584" y2="71.625" stroke="#D0D5DD" stroke-width="0.75"/>
<line x1="144" y1="143.625" x2="1584" y2="143.625" stroke="#D0D5DD" stroke-width="0.75"/>
<line x1="144" y1="215.625" x2="1584" y2="215.625" stroke="#D0D5DD" stroke-width="0.75"/>
<line x1="144" y1="287.625" x2="1584" y2="287.625" stroke="#D0D5DD" stroke-width="0.75"/>
<line x1="144" y1="359.625" x2="1584" y2="359.625" stroke="#D0D5DD" stroke-width="0.75"/>
<line x1="144" y1="431.625" x2="1584" y2="431.625" stroke="#D0D5DD" stroke-width="0.75"/>
<line x1="144" y1="503.625" x2="1584" y2="503.625" stroke="#D0D5DD" stroke-width="0.75"/>
<line x1="144" y1="575.625" x2="1584" y2="575.625" stroke="#D0D5DD" stroke-width="0.75"/>
<line x1="144" y1="647.625" x2="1584" y2="647.625" stroke="#D0D5DD" stroke-width="0.75"/>
<line x1="144" y1="719.625" x2="1584" y2="719.625" stroke="#D0D5DD" stroke-width="0.75"/>
<line x1="144" y1="791.625" x2="1584" y2="791.625" stroke="#D0D5DD" stroke-width="0.75"/>
<line x1="144" y1="863.625" x2="1584" y2="863.625" stroke="#D0D5DD" stroke-width="0.75"/>
<line x1="144" y1="935.625" x2="1584" y2="935.625" stroke="#D0D5DD" stroke-width="0.75"/>
<line x1="144" y1="1007.62" x2="1584" y2="1007.62" stroke="#D0D5DD" stroke-width="0.75"/>
</g>
</g>
</g>
</g>
<defs>
<radialGradient id="paint0_radial_14_1553" cx="0" cy="0" r="1" gradientUnits="userSpaceOnUse" gradientTransform="translate(540 -0.000128746) rotate(90) scale(1080 563.691)">
<stop/>
<stop offset="0.953125" stop-opacity="0"/>
</radialGradient>
<clipPath id="clip0_14_1553">
<rect width="1728" height="1008" fill="white"/>
</clipPath>
<clipPath id="clip1_14_1553">
<rect width="1440" height="1080" fill="white" transform="translate(144)"/>
</clipPath>
<clipPath id="clip2_14_1553">
<rect width="1440" height="1080" fill="white" transform="translate(144)"/>
</clipPath>
<clipPath id="clip3_14_1553">
<rect width="1440" height="1080" fill="white" transform="translate(144)"/>
</clipPath>
</defs>
</svg>
