<svg width="125" height="61" viewBox="0 0 125 61" fill="none" xmlns="http://www.w3.org/2000/svg">
<rect x="7.58732" y="0.382055" width="122.837" height="23.7161" rx="11.858" transform="rotate(17.6868 7.58732 0.382055)" fill="#86C7ED" fill-opacity="0.31" stroke="#1836B2" stroke-width="0.608105"/>
<path d="M30.5994 24.2799L32.7492 17.5382L36.7916 18.8273L36.5607 19.5515L33.3347 18.5228L32.6083 20.8007L35.5314 21.7328L35.3005 22.457L32.3773 21.5249L31.4158 24.5402L30.5994 24.2799ZM37.584 26.6232C37.1275 26.4776 36.7617 26.2413 36.4864 25.9142C36.2133 25.5877 36.0425 25.1984 35.974 24.7462C35.9076 24.2947 35.9577 23.8078 36.1243 23.2855C36.2922 22.7588 36.5343 22.3295 36.8505 21.9975C37.1689 21.6663 37.5339 21.4466 37.9455 21.3385C38.3593 21.2312 38.7945 21.2502 39.2509 21.3958C39.7074 21.5414 40.0722 21.7774 40.3452 22.1038C40.6205 22.4309 40.791 22.8213 40.8566 23.275C40.9245 23.7295 40.8744 24.22 40.7065 24.7467C40.5399 25.269 40.2978 25.6947 39.9801 26.0237C39.6646 26.3535 39.3 26.572 38.8861 26.6794C38.4745 26.7875 38.0405 26.7688 37.584 26.6232ZM37.8065 25.9253C38.1533 26.0359 38.4669 26.038 38.7474 25.9316C39.028 25.8253 39.2682 25.6444 39.4681 25.389C39.668 25.1336 39.8218 24.8369 39.9296 24.499C40.0374 24.161 40.084 23.8289 40.0696 23.5028C40.0551 23.1766 39.9647 22.8879 39.7982 22.6365C39.6317 22.3852 39.3751 22.2042 39.0284 22.0937C38.6817 21.9831 38.3677 21.9821 38.0865 22.0907C37.8052 22.1992 37.5643 22.3823 37.3637 22.6399C37.1631 22.8975 37.0089 23.1953 36.9011 23.5332C36.7934 23.8712 36.747 24.2021 36.7622 24.5261C36.7774 24.8501 36.8685 25.1366 37.0357 25.3858C37.2028 25.6349 37.4598 25.8148 37.8065 25.9253ZM41.0946 27.6266L42.7069 22.5704L43.4575 22.8097L43.2139 23.5734L43.2666 23.5902C43.4386 23.3694 43.6701 23.2196 43.9612 23.1408C44.2522 23.062 44.5492 23.0708 44.8521 23.1674C44.9091 23.1856 44.9801 23.2094 45.065 23.2389C45.1499 23.2684 45.2136 23.2924 45.256 23.3107L45.0041 24.1008C44.9799 24.0858 44.9227 24.0567 44.8325 24.0134C44.7452 23.9687 44.65 23.9298 44.5469 23.897C44.3011 23.8186 44.0652 23.8002 43.8392 23.8417C43.6161 23.8818 43.4199 23.974 43.2506 24.1182C43.0841 24.261 42.9645 24.4465 42.8918 24.6747L41.8714 27.8744L41.0946 27.6266ZM47.256 29.5914L49.4059 22.8498L53.4745 24.1472L53.2436 24.8714L49.9913 23.8343L49.2649 26.1123L52.3065 27.0822L52.0756 27.8064L49.0339 26.8365L48.3033 29.1276L51.6083 30.1815L51.3774 30.9057L47.256 29.5914ZM54.5665 32.0387C54.1451 31.9043 53.8071 31.6793 53.5524 31.3635C53.2984 31.0456 53.1426 30.6623 53.085 30.2136C53.0281 29.7627 53.085 29.2695 53.2558 28.734C53.4252 28.2029 53.6632 27.7711 53.9699 27.4386C54.2766 27.106 54.6263 26.8851 55.019 26.7758C55.4117 26.6665 55.8209 26.6797 56.2466 26.8155C56.5758 26.9205 56.8184 27.0583 56.9743 27.2289C57.1331 27.398 57.241 27.5678 57.2978 27.7382C57.3576 27.9072 57.402 28.0446 57.4311 28.1506L57.4969 28.1716L58.2905 25.683L59.0673 25.9307L56.9175 32.6724L56.167 32.433L56.4147 31.6562L56.3226 31.6268C56.2361 31.7007 56.1178 31.7912 55.9677 31.898C55.8183 32.0027 55.6284 32.0787 55.3981 32.1262C55.1685 32.1714 54.8913 32.1423 54.5665 32.0387ZM54.8944 31.3744C55.206 31.4738 55.4952 31.4766 55.7621 31.3828C56.0296 31.2868 56.2656 31.1118 56.4699 30.8578C56.6749 30.6016 56.8382 30.2826 56.96 29.9007C57.0804 29.5233 57.1308 29.1755 57.1114 28.8574C57.0926 28.5371 57.0009 28.2637 56.8362 28.0371C56.6723 27.8083 56.4323 27.6435 56.1162 27.5428C55.7871 27.4378 55.4858 27.4348 55.2125 27.5338C54.942 27.6313 54.7061 27.8063 54.5047 28.0588C54.3062 28.3098 54.1502 28.613 54.0369 28.9686C53.9221 29.3285 53.8727 29.673 53.8886 30.002C53.9075 30.3296 53.9979 30.6147 54.1599 30.8573C54.3247 31.0985 54.5696 31.2709 54.8944 31.3744ZM62.2939 32.1094L63.2471 29.1204L64.0239 29.3681L62.4116 34.4243L61.6347 34.1766L61.9076 33.3207L61.855 33.3039C61.6546 33.5229 61.4006 33.6825 61.093 33.7827C60.7862 33.8806 60.4418 33.8688 60.06 33.747C59.744 33.6462 59.4851 33.4875 59.2834 33.2709C59.0824 33.052 58.9565 32.7798 58.9056 32.4541C58.8554 32.1262 58.8989 31.7472 59.0361 31.3171L60.0606 28.1043L60.8375 28.352L59.8297 31.5121C59.7122 31.8808 59.7215 32.2078 59.8578 32.493C59.9963 32.779 60.2269 32.9734 60.5495 33.0762C60.7426 33.1378 60.9548 33.1511 61.186 33.116C61.4193 33.0816 61.6366 32.9841 61.8378 32.8234C62.0411 32.6634 62.1932 32.4254 62.2939 32.1094ZM65.855 35.6385C65.3809 35.4873 65.0085 35.2452 64.7375 34.9122C64.4665 34.5792 64.3015 34.1869 64.2424 33.7353C64.1833 33.2836 64.2343 32.8055 64.3952 32.3007C64.559 31.7872 64.7979 31.3641 65.1119 31.0315C65.4288 30.6973 65.7926 30.4737 66.2035 30.3605C66.6172 30.2458 67.0523 30.2613 67.5088 30.4068C67.8643 30.5202 68.1637 30.6882 68.407 30.9109C68.6503 31.1335 68.8252 31.3924 68.9318 31.6875C69.0384 31.9826 69.0632 32.2951 69.0063 32.6251L68.2294 32.3774C68.2437 32.1281 68.1771 31.882 68.0297 31.6392C67.8852 31.3948 67.6417 31.2181 67.2994 31.1089C66.9965 31.0123 66.7058 31.0067 66.4272 31.0919C66.1515 31.1756 65.9045 31.3398 65.6862 31.5845C65.4708 31.8277 65.3023 32.1403 65.1805 32.5221C65.0559 32.9128 65.0089 33.2725 65.0394 33.6014C65.0721 33.9309 65.176 34.2119 65.3509 34.4442C65.5281 34.6771 65.7703 34.8426 66.0775 34.9406C66.2794 35.005 66.4738 35.0283 66.6608 35.0105C66.8478 34.9928 67.0194 34.9363 67.1755 34.841C67.3316 34.7457 67.4632 34.6136 67.5702 34.4447L68.3471 34.6924C68.208 34.9769 68.0137 35.2111 67.764 35.395C67.5173 35.5774 67.2299 35.6937 66.9021 35.7439C66.5771 35.7926 66.228 35.7574 65.855 35.6385ZM70.4626 37.1223C70.1422 37.0201 69.8707 36.867 69.648 36.663C69.4261 36.4569 69.275 36.2141 69.1949 35.9347C69.1154 35.6531 69.1282 35.3477 69.2332 35.0185C69.3255 34.7288 69.4575 34.5122 69.629 34.3686C69.8012 34.2229 69.9992 34.1289 70.223 34.0866C70.4468 34.0443 70.682 34.0347 70.9285 34.0577C71.1779 34.0792 71.4249 34.1121 71.6696 34.1562C71.9894 34.2147 72.2479 34.2645 72.4451 34.3056C72.6453 34.3453 72.7973 34.3538 72.9011 34.3314C73.0072 34.3096 73.0802 34.2361 73.1201 34.111L73.1285 34.0847C73.2321 33.7599 73.2237 33.4792 73.1033 33.2426C72.9851 33.0066 72.7472 32.8316 72.3894 32.7176C72.0186 32.5993 71.7019 32.5878 71.4394 32.683C71.177 32.7782 70.9736 32.9043 70.8292 33.0614L70.1758 32.5629C70.4054 32.2976 70.6573 32.1144 70.9313 32.0132C71.2083 31.9105 71.4881 31.8668 71.771 31.8821C72.0567 31.8958 72.3269 31.9433 72.5815 32.0245C72.7438 32.0762 72.9241 32.1555 73.1222 32.2622C73.3231 32.3674 73.5035 32.5107 73.6632 32.6922C73.8251 32.8744 73.9338 33.1061 73.9892 33.3873C74.0446 33.6684 74.0082 34.0098 73.8802 34.4114L72.8178 37.7428L72.041 37.495L72.2593 36.8103L72.2198 36.7977C72.1322 36.8907 72.0069 36.9801 71.8441 37.066C71.6814 37.1519 71.4839 37.2062 71.2518 37.2289C71.0198 37.2516 70.7567 37.216 70.4626 37.1223ZM70.8037 36.4622C71.1109 36.5602 71.3891 36.5824 71.6383 36.5289C71.8896 36.4761 72.0995 36.3713 72.2679 36.2147C72.4385 36.0588 72.5574 35.8755 72.6246 35.6648L72.8514 34.9538C72.8058 34.9828 72.7219 34.9959 72.5995 34.9931C72.4799 34.9888 72.3439 34.9757 72.1914 34.9536C72.0417 34.9301 71.8961 34.9054 71.7544 34.8796C71.6156 34.8522 71.5028 34.8308 71.4159 34.8151C71.2056 34.7771 71.0032 34.7597 70.8088 34.763C70.6172 34.7647 70.4491 34.8066 70.3045 34.8887C70.1628 34.9692 70.0604 35.1082 69.9974 35.3057C69.9114 35.5756 69.9461 35.8116 70.1017 36.0135C70.2603 36.214 70.4942 36.3635 70.8037 36.4622ZM78.0471 33.8399L77.8372 34.4983L75.2169 33.6627L75.4268 33.0043L78.0471 33.8399ZM76.5768 32.0365L77.3537 32.2842L75.8169 37.1034C75.7469 37.3229 75.7262 37.4976 75.7549 37.6277C75.7864 37.7562 75.8467 37.8552 75.9358 37.9247C76.0277 37.9927 76.1308 38.0449 76.2449 38.0813C76.3305 38.1086 76.4021 38.1266 76.4598 38.1353C76.5181 38.1418 76.5648 38.147 76.5998 38.151L76.5353 38.8992C76.4763 38.9022 76.3965 38.8985 76.2959 38.8881C76.1945 38.88 76.0714 38.8528 75.9265 38.8066C75.7071 38.7366 75.5071 38.6209 75.3265 38.4593C75.1481 38.2985 75.0206 38.0995 74.9439 37.8622C74.8694 37.6257 74.8791 37.3605 74.9728 37.0664L76.5768 32.0365ZM79.5695 40.0118C79.1131 39.8663 78.7472 39.6299 78.4719 39.3028C78.1989 38.9764 78.028 38.5871 77.9595 38.1348C77.8931 37.6833 77.9432 37.1964 78.1098 36.6741C78.2777 36.1474 78.5198 35.7181 78.836 35.3862C79.1544 35.0549 79.5194 34.8353 79.931 34.7272C80.3449 34.6198 80.78 34.6389 81.2365 34.7844C81.6929 34.93 82.0577 35.166 82.3308 35.4924C82.606 35.8195 82.7765 36.21 82.8422 36.6637C82.91 37.1181 82.86 37.6086 82.692 38.1353C82.5254 38.6576 82.2833 39.0833 81.9656 39.4123C81.6501 39.7421 81.2855 39.9607 80.8717 40.068C80.46 40.1761 80.026 40.1574 79.5695 40.0118ZM79.7921 39.314C80.1388 39.4245 80.4524 39.4266 80.733 39.3203C81.0135 39.2139 81.2537 39.033 81.4536 38.7776C81.6535 38.5222 81.8074 38.2255 81.9151 37.8876C82.0229 37.5496 82.0696 37.2176 82.0551 36.8914C82.0406 36.5652 81.9502 36.2765 81.7837 36.0252C81.6173 35.7738 81.3607 35.5929 81.0139 35.4823C80.6672 35.3717 80.3532 35.3707 80.072 35.4793C79.7908 35.5879 79.5498 35.7709 79.3492 36.0285C79.1486 36.2861 78.9944 36.5839 78.8867 36.9218C78.7789 37.2598 78.7326 37.5908 78.7477 37.9147C78.7629 38.2387 78.8541 38.5253 79.0212 38.7744C79.1884 39.0236 79.4453 39.2034 79.7921 39.314ZM83.0801 41.0153L84.6925 35.959L85.443 36.1984L85.1995 36.9621L85.2521 36.9789C85.4241 36.7581 85.6556 36.6083 85.9467 36.5294C86.2378 36.4506 86.5347 36.4595 86.8376 36.556C86.8946 36.5742 86.9656 36.5981 87.0505 36.6276C87.1354 36.6571 87.1991 36.681 87.2416 36.6994L86.9896 37.4894C86.9654 37.4744 86.9082 37.4453 86.818 37.4021C86.7308 37.3573 86.6356 37.3185 86.5324 37.2856C86.2866 37.2072 86.0507 37.1888 85.8247 37.2304C85.6016 37.2704 85.4054 37.3626 85.2361 37.5068C85.0697 37.6496 84.9501 37.8351 84.8773 38.0634L83.857 41.263L83.0801 41.0153ZM91.3619 39.3334L90.601 39.3083C90.5942 39.178 90.5655 39.0444 90.5149 38.9073C90.4672 38.7688 90.3825 38.6403 90.2607 38.5216C90.139 38.403 89.9651 38.3077 89.7391 38.2356C89.4296 38.1369 89.149 38.126 88.8973 38.2029C88.6484 38.2783 88.4893 38.4246 88.42 38.6418C88.3584 38.835 88.38 39.0099 88.4848 39.1666C88.5895 39.3233 88.7793 39.4865 89.0539 39.6563L89.7457 40.08C90.1628 40.3339 90.4461 40.6092 90.5957 40.9059C90.7459 41.2005 90.7647 41.5244 90.6521 41.8777C90.5597 42.1674 90.3937 42.3997 90.1541 42.5748C89.9168 42.7505 89.629 42.857 89.2907 42.8942C88.9525 42.9314 88.5869 42.8874 88.1941 42.7621C87.6784 42.5976 87.2872 42.3496 87.0206 42.018C86.7541 41.6864 86.6444 41.2912 86.6916 40.8323L87.4877 40.8831C87.4712 41.1777 87.5388 41.4241 87.6908 41.6224C87.8449 41.8215 88.0811 41.9717 88.3993 42.0732C88.7614 42.1887 89.0733 42.2035 89.3352 42.1178C89.6 42.0306 89.767 41.8783 89.8363 41.6611C89.8922 41.4855 89.8777 41.3189 89.7926 41.1612C89.7082 41.0013 89.5481 40.8511 89.3125 40.7107L88.5327 40.2445C88.1047 39.9871 87.8188 39.7085 87.675 39.4088C87.5341 39.1076 87.5193 38.7825 87.6306 38.4336C87.7215 38.1483 87.8821 37.9215 88.1123 37.7531C88.3447 37.5855 88.6202 37.4835 88.9388 37.4473C89.2595 37.4118 89.5977 37.4507 89.9532 37.5641C90.4536 37.7236 90.8114 37.9586 91.0267 38.2691C91.2442 38.5802 91.3559 38.935 91.3619 39.3334Z" fill="#1836B2"/>
</svg>
