<svg width="125" height="61" viewBox="0 0 125 61" fill="none" xmlns="http://www.w3.org/2000/svg">
<rect x="7.58744" y="0.382055" width="122.837" height="23.7161" rx="11.858" transform="rotate(17.6868 7.58744 0.382055)" fill="#86C7ED" fill-opacity="0.31" stroke="#1836B2" stroke-width="0.608105"/>
<path d="M33.5062 25.2066L35.656 18.4649L39.6984 19.754L39.4675 20.4782L36.2415 19.4494L35.5151 21.7274L38.4382 22.6595L38.2073 23.3837L35.2841 22.4516L34.3226 25.4669L33.5062 25.2066ZM40.4908 27.5499C40.0343 27.4043 39.6685 27.168 39.3932 26.8409C39.1201 26.5144 38.9493 26.1251 38.8808 25.6729C38.8144 25.2214 38.8645 24.7345 39.0311 24.2122C39.199 23.6855 39.4411 23.2562 39.7573 22.9242C40.0757 22.593 40.4407 22.3733 40.8523 22.2652C41.2661 22.1578 41.7013 22.1769 42.1577 22.3225C42.6142 22.468 42.979 22.704 43.252 23.0305C43.5273 23.3576 43.6978 23.748 43.7634 24.2017C43.8313 24.6561 43.7812 25.1467 43.6133 25.6734C43.4467 26.1957 43.2046 26.6214 42.8869 26.9504C42.5714 27.2801 42.2068 27.4987 41.7929 27.6061C41.3813 27.7142 40.9473 27.6955 40.4908 27.5499ZM40.7133 26.852C41.0601 26.9626 41.3737 26.9647 41.6542 26.8583C41.9348 26.7519 42.175 26.5711 42.3749 26.3157C42.5748 26.0603 42.7286 25.7636 42.8364 25.4256C42.9442 25.0877 42.9908 24.7556 42.9764 24.4295C42.9619 24.1033 42.8715 23.8145 42.705 23.5632C42.5385 23.3119 42.2819 23.1309 41.9352 23.0203C41.5885 22.9098 41.2745 22.9088 40.9933 23.0174C40.712 23.1259 40.4711 23.309 40.2705 23.5666C40.0699 23.8242 39.9157 24.1219 39.8079 24.4599C39.7002 24.7979 39.6539 25.1288 39.669 25.4528C39.6842 25.7768 39.7753 26.0633 39.9425 26.3125C40.1096 26.5616 40.3666 26.7415 40.7133 26.852ZM44.0014 28.5533L45.6137 23.4971L46.3643 23.7364L46.1207 24.5001L46.1734 24.5169C46.3454 24.2961 46.5769 24.1463 46.868 24.0675C47.159 23.9887 47.456 23.9975 47.7589 24.0941C47.8159 24.1123 47.8869 24.1361 47.9718 24.1656C48.0567 24.1951 48.1204 24.219 48.1628 24.2374L47.9109 25.0275C47.8867 25.0125 47.8295 24.9834 47.7393 24.9401C47.652 24.8954 47.5568 24.8565 47.4537 24.8236C47.2079 24.7453 46.972 24.7269 46.746 24.7684C46.5229 24.8085 46.3267 24.9006 46.1574 25.0449C45.9909 25.1877 45.8713 25.3732 45.7986 25.6014L44.7782 28.8011L44.0014 28.5533ZM55.462 26.6376C55.5289 26.2914 55.4513 25.9814 55.2292 25.7074C55.007 25.4335 54.6919 25.2315 54.2837 25.1013C53.9853 25.0062 53.7087 24.9712 53.4541 24.9963C53.2016 25.0222 52.9859 25.0997 52.8069 25.2288C52.6302 25.3586 52.5075 25.531 52.4389 25.7461C52.3815 25.926 52.375 26.0944 52.4193 26.2512C52.4665 26.4064 52.5444 26.5486 52.6532 26.6775C52.7627 26.8043 52.8833 26.9189 53.015 27.0214C53.1475 27.1216 53.271 27.2082 53.3856 27.281L54.0115 27.6837C54.1723 27.7857 54.3474 27.9117 54.5365 28.0614C54.7279 28.2119 54.8999 28.3889 55.0527 28.5923C55.2083 28.7942 55.3162 29.0245 55.3764 29.283C55.4366 29.5416 55.4163 29.8289 55.3155 30.1449C55.1994 30.5092 54.9989 30.8079 54.7142 31.0411C54.4317 31.275 54.0807 31.4205 53.6611 31.4777C53.2437 31.5356 52.7761 31.482 52.2581 31.3169C51.7753 31.1629 51.3821 30.9517 51.0785 30.6832C50.777 30.4154 50.5698 30.11 50.4568 29.7669C50.346 29.4245 50.3362 29.0648 50.4274 28.6877L51.2701 28.9564C51.2109 29.218 51.2293 29.4559 51.3253 29.6703C51.4243 29.8832 51.576 30.067 51.7805 30.2216C51.988 30.3748 52.2255 30.4941 52.4933 30.5795C52.8049 30.6789 53.1008 30.7176 53.381 30.6957C53.6619 30.6717 53.9038 30.5917 54.1067 30.4557C54.3103 30.3175 54.4513 30.1256 54.5297 29.8798C54.6011 29.6559 54.5966 29.4539 54.5163 29.2735C54.436 29.0932 54.3078 28.9266 54.1317 28.7737C53.9556 28.6208 53.7595 28.4737 53.5435 28.3323L52.7896 27.8307C52.3112 27.5114 51.9631 27.1622 51.7455 26.7834C51.5278 26.4045 51.4914 25.9879 51.6363 25.5336C51.7566 25.1562 51.9637 24.8595 52.2573 24.6437C52.5539 24.4264 52.9004 24.2951 53.2968 24.2499C53.6961 24.2031 54.1109 24.2484 54.541 24.3855C54.9755 24.5241 55.3369 24.7252 55.6252 24.9887C55.9141 25.2501 56.1147 25.5462 56.2268 25.8769C56.3412 26.2083 56.3496 26.5459 56.2521 26.8895L55.462 26.6376ZM59.7801 28.0145L59.5701 28.6729L56.9499 27.8373L57.1598 27.179L59.7801 28.0145ZM58.3098 26.2111L59.0867 26.4588L57.5499 31.2781C57.4799 31.4975 57.4592 31.6723 57.4879 31.8023C57.5194 31.9308 57.5797 32.0298 57.6688 32.0993C57.7607 32.1673 57.8638 32.2195 57.9779 32.2559C58.0635 32.2832 58.1351 32.3012 58.1927 32.3099C58.2511 32.3165 58.2978 32.3217 58.3328 32.3256L58.2683 33.0738C58.2093 33.0768 58.1295 33.0731 58.0288 33.0628C57.9275 33.0546 57.8044 33.0274 57.6595 32.9813C57.4401 32.9113 57.2401 32.7955 57.0595 32.634C56.8811 32.4731 56.7536 32.2741 56.6769 32.0369C56.6024 31.8004 56.612 31.5351 56.7058 31.241L58.3098 26.2111ZM63.182 32.3923L64.1352 29.4033L64.912 29.6511L63.2997 34.7073L62.5228 34.4596L62.7957 33.6037L62.7431 33.5869C62.5427 33.8059 62.2887 33.9654 61.9811 34.0656C61.6743 34.1636 61.3299 34.1517 60.9481 34.0299C60.632 33.9292 60.3732 33.7705 60.1715 33.5538C59.9705 33.335 59.8445 33.0627 59.7937 32.737C59.7435 32.4092 59.787 32.0301 59.9242 31.6L60.9487 28.3872L61.7256 28.6349L60.7178 31.7951C60.6003 32.1638 60.6096 32.4907 60.7459 32.776C60.8844 33.0619 61.115 33.2563 61.4376 33.3592C61.6307 33.4208 61.8429 33.434 62.0741 33.3989C62.3074 33.3646 62.5247 33.267 62.7259 33.1063C62.9292 32.9463 63.0812 32.7083 63.182 32.3923ZM66.5982 35.8752C66.1769 35.7408 65.8388 35.5158 65.5841 35.2C65.3301 34.8821 65.1743 34.4988 65.1167 34.0501C65.0598 33.5992 65.1168 33.106 65.2875 32.5705C65.4569 32.0394 65.6949 31.6076 66.0016 31.2751C66.3083 30.9425 66.658 30.7216 67.0507 30.6123C67.4434 30.503 67.8526 30.5162 68.2783 30.652C68.6075 30.757 68.8501 30.8948 69.006 31.0654C69.1648 31.2345 69.2727 31.4043 69.3296 31.5747C69.3893 31.7437 69.4337 31.8811 69.4628 31.9871L69.5286 32.0081L70.3222 29.5195L71.0991 29.7672L68.9493 36.5089L68.1987 36.2695L68.4465 35.4927L68.3543 35.4633C68.2678 35.5373 68.1495 35.6277 67.9994 35.7345C67.85 35.8392 67.6601 35.9152 67.4298 35.9627C67.2002 36.0079 66.923 35.9788 66.5982 35.8752ZM66.9261 35.2109C67.2377 35.3103 67.527 35.3131 67.7938 35.2193C68.0614 35.1233 68.2973 34.9483 68.5016 34.6943C68.7066 34.4381 68.87 34.1191 68.9917 33.7372C69.1121 33.3598 69.1626 33.012 69.1431 32.6939C69.1244 32.3736 69.0326 32.1002 68.868 31.8736C68.704 31.6448 68.464 31.48 68.148 31.3793C67.8188 31.2743 67.5175 31.2713 67.2442 31.3703C66.9737 31.4678 66.7378 31.6428 66.5364 31.8953C66.3379 32.1463 66.182 32.4496 66.0686 32.8051C65.9538 33.165 65.9044 33.5095 65.9204 33.8385C65.9392 34.1661 66.0296 34.4512 66.1916 34.6938C66.3565 34.935 66.6013 35.1074 66.9261 35.2109ZM72.5663 37.7783C72.0791 37.623 71.6931 37.3814 71.4084 37.0537C71.1266 36.7245 70.9521 36.3352 70.885 35.8859C70.8209 35.4351 70.8714 34.9507 71.0365 34.4328C71.2017 33.9149 71.4416 33.4885 71.7563 33.1537C72.0739 32.8173 72.4381 32.5926 72.8489 32.4794C73.2627 32.3647 73.6978 32.3802 74.1542 32.5257C74.4176 32.6097 74.6636 32.7365 74.8924 32.9062C75.1212 33.0759 75.3094 33.293 75.4571 33.5577C75.6055 33.8202 75.6908 34.1327 75.713 34.4952C75.7352 34.8577 75.6711 35.2748 75.5207 35.7467L75.4157 36.0759L71.5182 34.833L71.7323 34.1615L74.8398 35.1524C74.9308 34.8671 74.9549 34.5943 74.9122 34.3341C74.8716 34.0746 74.7677 33.8468 74.6006 33.6509C74.4356 33.4556 74.2126 33.3132 73.9317 33.2236C73.6223 33.1249 73.33 33.1164 73.055 33.1979C72.7829 33.2779 72.5476 33.4205 72.3493 33.6256C72.1509 33.8307 72.0072 34.0726 71.9184 34.3513L71.7756 34.799C71.6538 35.1809 71.6165 35.5256 71.6634 35.8331C71.7133 36.1391 71.8347 36.3991 72.0277 36.6129C72.2213 36.8246 72.475 36.9804 72.7888 37.0805C72.9929 37.1456 73.1864 37.1758 73.3692 37.1712C73.5548 37.1652 73.7266 37.1232 73.8844 37.0454C74.0428 36.9654 74.183 36.8481 74.3048 36.6935L74.9882 37.1435C74.828 37.3729 74.6238 37.5544 74.3757 37.6881C74.1283 37.8195 73.8503 37.8953 73.5417 37.9153C73.2338 37.9332 72.9086 37.8875 72.5663 37.7783ZM77.6221 35.9236L76.6521 38.9652L75.8752 38.7175L77.4876 33.6612L78.2381 33.9006L77.9862 34.6906L78.0521 34.7116C78.2524 34.4926 78.4982 34.3437 78.7893 34.2649C79.081 34.1839 79.4179 34.2042 79.7997 34.326C80.1421 34.4352 80.4192 34.6009 80.6312 34.8233C80.8439 35.0434 80.9764 35.3178 81.0288 35.6463C81.0818 35.9727 81.0398 36.351 80.9026 36.7811L79.8781 39.9939L79.1012 39.7462L80.109 36.5861C80.2356 36.1888 80.2312 35.8465 80.0955 35.5591C79.9606 35.2695 79.7132 35.0673 79.3533 34.9525C79.1053 34.8734 78.8666 34.8565 78.6369 34.9018C78.4095 34.9477 78.207 35.056 78.0293 35.2266C77.8516 35.3972 77.7158 35.6295 77.6221 35.9236ZM85.109 36.0916L84.8991 36.75L82.2788 35.9144L82.4887 35.256L85.109 36.0916ZM83.6387 34.2882L84.4156 34.5359L82.8788 39.3551C82.8088 39.5746 82.7881 39.7493 82.8168 39.8793C82.8483 40.0079 82.9086 40.1069 82.9977 40.1764C83.0896 40.2444 83.1927 40.2966 83.3068 40.333C83.3924 40.3603 83.464 40.3783 83.5217 40.387C83.58 40.3935 83.6267 40.3987 83.6617 40.4026L83.5972 41.1509C83.5382 41.1539 83.4584 41.1502 83.3578 41.1398C83.2564 41.1317 83.1333 41.1045 82.9884 41.0583C82.769 40.9883 82.569 40.8726 82.3884 40.711C82.21 40.5502 82.0825 40.3511 82.0058 40.1139C81.9313 39.8774 81.941 39.6121 82.0347 39.3181L83.6387 34.2882ZM89.4075 38.7099L88.6466 38.6848C88.6398 38.5545 88.6111 38.4209 88.5605 38.2838C88.5128 38.1453 88.4281 38.0168 88.3063 37.8982C88.1846 37.7796 88.0107 37.6842 87.7847 37.6121C87.4752 37.5135 87.1946 37.5025 86.9429 37.5794C86.694 37.6548 86.5349 37.8011 86.4656 38.0184C86.404 38.2115 86.4256 38.3864 86.5304 38.5431C86.6351 38.6998 86.8249 38.8631 87.0995 39.0328L87.7913 39.4565C88.2084 39.7104 88.4917 39.9857 88.6413 40.2824C88.7915 40.577 88.8103 40.9009 88.6977 41.2542C88.6053 41.5439 88.4393 41.7763 88.1997 41.9513C87.9624 42.127 87.6746 42.2335 87.3363 42.2707C86.9981 42.3079 86.6325 42.2639 86.2397 42.1386C85.724 41.9742 85.3328 41.7261 85.0662 41.3945C84.7997 41.0629 84.69 40.6677 84.7372 40.2089L85.5333 40.2596C85.5168 40.5542 85.5844 40.8006 85.7364 40.9989C85.8905 41.198 86.1267 41.3482 86.4449 41.4497C86.807 41.5652 87.1189 41.5801 87.3808 41.4943C87.6456 41.4071 87.8126 41.2548 87.8819 41.0376C87.9378 40.862 87.9233 40.6954 87.8382 40.5377C87.7538 40.3778 87.5937 40.2276 87.3581 40.0872L86.5783 39.621C86.1503 39.3636 85.8644 39.085 85.7206 38.7853C85.5797 38.4841 85.5649 38.1591 85.6762 37.8101C85.7671 37.5248 85.9277 37.298 86.1579 37.1296C86.3903 36.962 86.6658 36.86 86.9844 36.8238C87.3051 36.7883 87.6433 36.8272 87.9988 36.9406C88.4992 37.1002 88.857 37.3351 89.0723 37.6456C89.2898 37.9567 89.4015 38.3115 89.4075 38.7099Z" fill="#1836B2"/>
</svg>
