<svg width="554" height="135" viewBox="0 0 554 135" fill="none" xmlns="http://www.w3.org/2000/svg">
<path d="M3.31773 106.772C1.26471 103.216 1.26471 98.8349 3.31774 95.2789L15.7266 73.7861C17.7796 70.2301 21.5738 68.0396 25.6799 68.0396H50.4975C54.6035 68.0396 58.3977 70.2301 60.4508 73.7861L72.8596 95.2789C74.9126 98.8349 74.9126 103.216 72.8596 106.772L60.4508 128.265C58.3977 131.821 54.6036 134.011 50.4975 134.011H25.6799C21.5738 134.011 17.7796 131.821 15.7266 128.265L3.31773 106.772Z" fill="#86C7ED"/>
<path d="M87.5474 0.189316C91.6535 0.220584 95.431 2.44011 97.4568 6.01177L109.09 26.5222C109.099 26.5373 109.118 26.5427 109.133 26.5343C109.148 26.5259 109.167 26.5313 109.176 26.5463L134.57 71.3142C134.578 71.3292 134.573 71.3482 134.558 71.3565C134.543 71.3649 134.538 71.3839 134.546 71.3989L148.392 95.8072C150.417 99.3786 150.384 103.76 148.304 107.3L135.733 128.697C133.653 132.238 129.842 134.399 125.736 134.368L100.919 134.179C96.8129 134.148 93.0355 131.928 91.0096 128.357L77.1629 103.947C77.1546 103.933 77.1359 103.928 77.1214 103.936C77.107 103.945 77.0883 103.94 77.08 103.925L51.6853 59.1559C51.677 59.1413 51.6821 59.1227 51.6966 59.1144C51.7112 59.106 51.7163 59.0874 51.708 59.0728L40.0738 38.5612C38.048 34.9897 38.0815 30.6089 40.1615 27.0687L52.7337 5.67093C54.8137 2.13068 58.6245 -0.0309323 62.7304 0.000334657L87.5474 0.189316Z" fill="#1836B2"/>
<path d="M260.774 105.908H242.076L238.676 95.809H210.98L207.58 105.908H188.882L213.979 39.2159H235.577L260.774 105.908ZM234.177 81.3107L224.778 54.2141L215.479 81.3107H234.177ZM293.673 107.108C273.676 107.108 258.078 93.1093 258.078 72.6118C258.078 52.0143 273.676 38.116 293.673 38.116C310.271 38.116 318.87 47.2149 323.27 56.0138L308.472 63.013C306.272 57.7136 300.573 53.3142 293.673 53.3142C283.275 53.3142 275.576 61.7131 275.576 72.6118C275.576 83.5105 283.275 91.9094 293.673 91.9094C300.573 91.9094 306.272 87.51 308.472 82.2106L323.27 89.2098C318.97 97.8087 310.271 107.108 293.673 107.108ZM393.718 105.908H375.021L371.621 95.809H343.924L340.525 105.908H321.827L346.924 39.2159H368.521L393.718 105.908ZM367.122 81.3107L357.723 54.2141L348.424 81.3107H367.122ZM425.741 105.908H397.644V39.2159H425.641C446.638 39.2159 461.736 51.8144 461.736 72.5118C461.736 93.2093 446.638 105.908 425.741 105.908ZM414.842 54.2141V90.9096H425.641C437.339 90.9096 444.139 82.4106 444.139 72.5118C444.139 62.2131 437.939 54.2141 425.741 54.2141H414.842Z" fill="#1836B2"/>
<path d="M529.284 105.908H518.286L512.886 92.1094H480.19L474.791 105.908H463.792L490.289 39.2159H502.788L529.284 105.908ZM509.987 83.2105L496.488 47.9148L483.09 83.2105H509.987ZM546.284 105.908H536.285V39.2159H546.284V105.908Z" fill="#86C7ED"/>
</svg>
