<svg width="150" height="135" viewBox="0 0 150 135" fill="none" xmlns="http://www.w3.org/2000/svg">
<path d="M3.31773 106.771C1.26471 103.216 1.26471 98.8344 3.31774 95.2785L15.7266 73.7856C17.7796 70.2296 21.5738 68.0391 25.6799 68.0391H50.4975C54.6035 68.0391 58.3977 70.2296 60.4508 73.7856L72.8596 95.2784C74.9126 98.8344 74.9126 103.216 72.8596 106.771L60.4508 128.264C58.3977 131.82 54.6036 134.011 50.4975 134.011H25.6799C21.5738 134.011 17.7796 131.82 15.7266 128.264L3.31773 106.771Z" fill="#86C7ED"/>
<path d="M87.5475 0.189317C91.6535 0.220584 95.4309 2.44004 97.4568 6.01161L109.09 26.5213C109.099 26.5363 109.118 26.5417 109.133 26.5333C109.148 26.5249 109.167 26.5303 109.176 26.5454L134.57 71.3142C134.578 71.3292 134.573 71.3482 134.558 71.3565C134.543 71.3649 134.537 71.3839 134.546 71.3989L148.391 95.8061C150.417 99.3776 150.384 103.759 148.304 107.299L135.732 128.697C133.652 132.237 129.841 134.398 125.735 134.367L100.919 134.179C96.8129 134.148 93.0354 131.928 91.0095 128.357L77.1629 103.947C77.1546 103.933 77.1359 103.928 77.1214 103.936C77.1069 103.945 77.0882 103.94 77.0799 103.925L51.6852 59.155C51.6769 59.1403 51.682 59.1218 51.6966 59.1134C51.7112 59.105 51.7162 59.0864 51.7079 59.0718L40.0739 38.5612C38.048 34.9898 38.0814 30.6088 40.1615 27.0686L52.7336 5.67093C54.8137 2.13068 58.6244 -0.0309323 62.7304 0.000334657L87.5475 0.189317Z" fill="#1836B2"/>
</svg>
