<?xml version="1.0" encoding="UTF-8"?>
<svg xmlns="http://www.w3.org/2000/svg" xmlns:xlink="http://www.w3.org/1999/xlink" width="1440px" height="432px" viewBox="0 0 1441 432" version="1.1">
<defs>
<filter id="alpha" filterUnits="objectBoundingBox" x="0%" y="0%" width="100%" height="100%">
  <feColorMatrix type="matrix" in="SourceGraphic" values="0 0 0 0 1 0 0 0 0 1 0 0 0 0 1 0 0 0 1 0"/>
</filter>
<mask id="mask0">
  <g filter="url(#alpha)">
<rect x="0" y="0" width="1441" height="432" style="fill:rgb(0%,0%,0%);fill-opacity:0.101961;stroke:none;"/>
  </g>
</mask>
<clipPath id="clip1">
  <rect x="0" y="0" width="1441" height="432"/>
</clipPath>
<g id="surface5" clip-path="url(#clip1)">
<path style=" stroke:none;fill-rule:nonzero;fill:rgb(52.549022%,78.039217%,92.941177%);fill-opacity:1;" d="M 5.445312 161.164062 C 2.078125 155.300781 2.078125 148.074219 5.445312 142.210938 L 25.792969 106.769531 C 29.160156 100.90625 35.382812 97.292969 42.117188 97.292969 L 82.816406 97.292969 C 89.546875 97.292969 95.769531 100.90625 99.136719 106.769531 L 119.488281 142.210938 C 122.855469 148.074219 122.855469 155.300781 119.488281 161.164062 L 99.136719 196.605469 C 95.769531 202.46875 89.546875 206.082031 82.816406 206.082031 L 42.117188 206.082031 C 35.382812 206.082031 29.160156 202.46875 25.792969 196.605469 Z M 5.445312 161.164062 "/>
<path style=" stroke:none;fill-rule:nonzero;fill:rgb(9.411765%,21.176471%,69.803923%);fill-opacity:1;" d="M 143.574219 -14.59375 C 150.308594 -14.539062 156.503906 -10.878906 159.824219 -4.992188 L 178.90625 28.832031 C 178.921875 28.859375 178.953125 28.867188 178.976562 28.851562 C 179 28.839844 179.03125 28.847656 179.046875 28.871094 L 220.691406 102.695312 C 220.703125 102.722656 220.695312 102.75 220.671875 102.765625 C 220.648438 102.777344 220.640625 102.808594 220.652344 102.832031 L 243.359375 143.082031 C 246.683594 148.972656 246.628906 156.199219 243.214844 162.035156 L 222.597656 197.320312 C 219.1875 203.160156 212.9375 206.722656 206.203125 206.671875 L 165.507812 206.359375 C 158.773438 206.308594 152.578125 202.648438 149.257812 196.761719 L 126.550781 156.511719 C 126.535156 156.484375 126.503906 156.476562 126.480469 156.492188 C 126.457031 156.503906 126.425781 156.496094 126.410156 156.472656 L 84.765625 82.644531 C 84.753906 82.621094 84.761719 82.589844 84.785156 82.578125 C 84.808594 82.5625 84.816406 82.535156 84.804688 82.507812 L 65.722656 48.683594 C 62.398438 42.792969 62.453125 35.570312 65.867188 29.730469 L 86.484375 -5.554688 C 89.894531 -11.390625 96.144531 -14.953125 102.878906 -14.902344 Z M 143.574219 -14.59375 "/>
</g>
<clipPath id="clip2">
  <path d="M 1325.085938 213.5 L 1441 213.5 L 1441 394.472656 L 1325.085938 394.472656 Z M 1325.085938 213.5 "/>
</clipPath>
<mask id="mask1">
  <g filter="url(#alpha)">
<rect x="0" y="0" width="1441" height="432" style="fill:rgb(0%,0%,0%);fill-opacity:0.2;stroke:none;"/>
  </g>
</mask>
<clipPath id="clip3">
  <rect x="0" y="0" width="1441" height="432"/>
</clipPath>
<g id="surface8" clip-path="url(#clip3)">
<path style=" stroke:none;fill-rule:nonzero;fill:rgb(52.549022%,78.039217%,92.941177%);fill-opacity:1;" d="M 1329.539062 357.21875 C 1326.789062 352.4375 1326.789062 346.542969 1329.539062 341.757812 L 1346.160156 312.84375 C 1348.910156 308.0625 1353.988281 305.113281 1359.492188 305.113281 L 1392.742188 305.113281 C 1398.246094 305.113281 1403.332031 308.0625 1406.074219 312.84375 L 1422.703125 341.757812 C 1425.457031 346.542969 1425.457031 352.4375 1422.703125 357.21875 L 1406.074219 386.132812 C 1403.332031 390.917969 1398.246094 393.863281 1392.742188 393.863281 L 1359.492188 393.863281 C 1353.988281 393.863281 1348.910156 390.917969 1346.160156 386.132812 Z M 1329.539062 357.21875 "/>
<path style=" stroke:none;fill-rule:nonzero;fill:rgb(9.411765%,21.176471%,69.803923%);fill-opacity:1;" d="M 1457.019531 213.839844 C 1462.515625 213.882812 1467.578125 216.867188 1470.296875 221.671875 L 1485.882812 249.265625 C 1485.890625 249.285156 1485.914062 249.292969 1485.941406 249.28125 C 1485.957031 249.269531 1485.980469 249.277344 1485.996094 249.296875 L 1520.011719 309.523438 C 1520.03125 309.542969 1520.023438 309.566406 1520.003906 309.578125 C 1519.980469 309.589844 1519.972656 309.613281 1519.988281 309.632812 L 1538.535156 342.46875 C 1541.253906 347.273438 1541.203125 353.167969 1538.417969 357.929688 L 1521.574219 386.714844 C 1518.789062 391.480469 1513.683594 394.386719 1508.179688 394.34375 L 1474.933594 394.089844 C 1469.4375 394.050781 1464.375 391.0625 1461.65625 386.257812 L 1443.109375 353.421875 C 1443.09375 353.402344 1443.066406 353.394531 1443.050781 353.40625 C 1443.035156 353.417969 1443.007812 353.410156 1442.992188 353.390625 L 1408.96875 293.164062 C 1408.960938 293.144531 1408.96875 293.121094 1408.984375 293.109375 C 1409.011719 293.097656 1409.011719 293.074219 1409.003906 293.054688 L 1393.417969 265.460938 C 1390.699219 260.65625 1390.75 254.761719 1393.535156 250 L 1410.378906 221.214844 C 1413.164062 216.453125 1418.265625 213.542969 1423.769531 213.585938 Z M 1457.019531 213.839844 "/>
</g>
</defs>
<g id="surface1">
<rect x="0" y="0" width="1441" height="432" style="fill:rgb(9.411765%,21.176471%,69.803923%);fill-opacity:1;stroke:none;"/>
<use xlink:href="#surface5" mask="url(#mask0)"/>
<g clip-path="url(#clip2)" clip-rule="nonzero">
<use xlink:href="#surface8" mask="url(#mask1)"/>
</g>
</g>
</svg>
