<svg width="88" height="114" viewBox="0 0 88 114" fill="none" xmlns="http://www.w3.org/2000/svg">
<path d="M35.47 69.3503L24.5901 80.5303L11.9001 93.5803C11.7501 93.7803 11.5701 93.9303 11.3801 94.0603L11.2601 94.1203C10.9401 94.2903 10.5701 94.3703 10.1501 94.3603C9.40006 94.3603 8.60002 94.1203 7.77002 93.6403C5.76002 92.4803 4.30004 90.6003 3.38004 88.0103C2.46004 85.4203 2.59004 83.5003 3.76004 82.2603L23.1901 62.2603L3.76004 19.8303C2.59004 17.2303 2.44004 15.1603 3.32004 13.6003C3.63004 13.0503 4.02004 12.6803 4.48004 12.4703C5.33004 12.1003 6.42002 12.3003 7.77002 13.0803C8.60002 13.5603 9.40006 14.2403 10.1501 15.1003C10.9001 15.9703 11.4901 16.9103 11.9001 17.9203L32.6201 63.1403L35.47 69.3503Z" stroke="#1836B2" stroke-width="2"/>
<path d="M45.9704 64.0998L35.4704 69.3498L32.6205 63.1398L11.9005 17.9198C11.4905 16.9098 10.9005 15.9698 10.1505 15.0998C9.40048 14.2398 8.60044 13.5598 7.77044 13.0798C6.42044 12.2998 5.33047 12.0998 4.48047 12.4698L24.4205 2.49977C25.2705 2.08977 26.3905 2.27977 27.7705 3.07977C28.6005 3.55977 29.4005 4.23977 30.1505 5.09977C30.9005 5.96977 31.4905 6.90977 31.9005 7.91977L40.4704 26.6298L34.4005 29.6698H34.3705C33.9405 29.8398 33.5805 30.1598 33.2805 30.6198C33.2305 30.6798 33.1905 30.7598 33.1505 30.8298C32.2805 32.3898 32.4205 34.4598 33.5905 37.0498L41.4005 54.0998L45.9704 64.0998Z" stroke="#1836B2" stroke-width="2"/>
<path d="M47.5305 67.5101L31.9005 83.5801C31.7105 83.8301 31.4705 84.0201 31.2005 84.1501H31.1704L11.3804 94.0601C11.5704 93.9301 11.7505 93.7801 11.9005 93.5801L24.5905 80.5301L35.4704 69.3501L45.9704 64.1001L47.5305 67.5101Z" stroke="#1836B2" stroke-width="2"/>
<path d="M85.3102 76.5801L61.7402 100.8C61.5602 101.03 61.3502 101.21 61.1102 101.33L61.0302 101.37L41.2002 111.28C41.4002 111.16 41.5802 111 41.7402 110.8L54.4302 97.7601L65.3102 86.5801L85.3102 76.5801Z" stroke="#1836B2" stroke-width="2"/>
<path d="M85.3103 76.58L65.3103 86.58L62.4604 80.36L53.6803 61.19L53.3204 60.42L41.7403 35.14C41.3203 34.13 40.7403 33.19 39.9903 32.33C39.2303 31.46 38.4403 30.79 37.6003 30.31C36.3003 29.55 35.2304 29.34 34.4004 29.67L40.4703 26.63L54.0304 19.84L54.3304 19.69C55.1704 19.33 56.2603 19.53 57.6003 20.31C58.4403 20.79 59.2303 21.46 59.9903 22.33C60.7403 23.19 61.3203 24.13 61.7403 25.14L85.3103 76.58Z" stroke="#1836B2" stroke-width="2"/>
<path d="M65.3103 86.5801L54.4303 97.7601L41.7403 110.8C41.5803 111 41.4003 111.16 41.2003 111.28L41.1103 111.33C40.7903 111.51 40.4203 111.59 39.9903 111.59C39.2303 111.59 38.4403 111.34 37.6003 110.86C35.6003 109.7 34.1403 107.83 33.2203 105.24C32.3003 102.64 32.4203 100.73 33.5903 99.4801L53.0203 79.4901L47.5303 67.5101L45.9703 64.1001L41.4003 54.1001L33.5903 37.0501C32.4203 34.4601 32.2803 32.3901 33.1503 30.8301C33.1903 30.7601 33.2303 30.6801 33.2803 30.6201C33.5803 30.1601 33.9403 29.8401 34.3703 29.6801H34.4003C35.2303 29.3401 36.3003 29.5501 37.6003 30.3101C38.4403 30.7901 39.2303 31.4601 39.9903 32.3301C40.7403 33.1901 41.3203 34.1301 41.7403 35.1401L53.3203 60.4201L53.6803 61.1901L62.4603 80.3601L65.3103 86.5801Z" stroke="#1836B2" stroke-width="2"/>
</svg>
