<svg width="93" height="103" viewBox="0 0 93 103" fill="none" xmlns="http://www.w3.org/2000/svg">
<path d="M78.8906 88.52C79.3506 88.33 79.8007 88.1001 80.2407 87.8501L78.8906 88.52Z" stroke="#1836B2" stroke-width="2"/>
<path d="M66.7703 50.7198C66.7703 53.9698 65.7803 56.1497 63.8003 57.2797C61.8203 58.4097 59.4203 58.1597 56.5903 56.5197C53.7603 54.8897 51.3601 52.3698 49.3801 48.9598C47.4001 45.5398 46.4102 42.2198 46.4102 38.9698C46.4102 35.7198 47.4001 33.5397 49.3801 32.4097L49.7903 32.1997C51.6903 31.3297 53.9503 31.6497 56.5903 33.1697C59.4203 34.7997 61.8203 37.3198 63.8003 40.7398C65.7803 44.1498 66.7703 47.4798 66.7703 50.7198Z" stroke="#1836B2" stroke-width="2"/>
<path d="M70.1604 76.1298C70.1604 81.5098 69.2705 86.0298 67.5005 89.6998C67.5005 89.7098 67.4905 89.7098 67.4905 89.7198C65.7105 93.3998 63.2905 96.1098 60.2405 97.8498C57.1805 99.5898 53.5904 100.29 49.4604 99.9498C45.3404 99.6098 40.9305 98.0898 36.2305 95.3798C31.5405 92.6698 27.1305 89.0997 23.0105 84.6697C18.8805 80.2497 15.2905 75.3998 12.2305 70.1298C9.18047 64.8698 6.76047 59.3498 4.98047 53.5898C3.20047 47.8298 2.31055 42.2498 2.31055 36.8698C2.31055 31.4898 3.20047 26.9398 4.98047 23.2298C6.76047 19.5198 9.18047 16.7997 12.2305 15.0497L13.6504 14.3398C16.3804 13.1198 19.4804 12.6597 22.9604 12.9297C23.6304 12.9797 24.3105 13.0697 25.0005 13.1897C28.5105 13.7797 32.2304 15.2098 36.1504 17.4798C38.1904 18.6498 39.6305 19.6498 40.4805 20.4598C41.3205 21.2698 41.8904 22.2197 42.1704 23.2897C42.4004 23.9997 42.4704 24.6597 42.3804 25.2597C42.3004 25.8597 42.0905 26.3898 41.7505 26.8398C41.0105 27.7798 40.4804 28.9297 40.1404 30.2897C39.8004 31.6497 39.6304 33.2397 39.6304 35.0497C39.6304 40.4397 41.2806 45.9797 44.5906 51.6897C47.9006 57.3897 51.9006 61.5997 56.5906 64.3097C58.0606 65.1597 59.4904 65.7898 60.8704 66.1998C62.2604 66.6098 63.5705 66.7498 64.8105 66.6298C65.3805 66.6298 65.9505 66.7398 66.5105 66.9698C67.0805 67.1998 67.5805 67.5798 68.0405 68.0998C68.8305 68.8798 69.3804 69.8498 69.6904 70.9998C70.0004 72.1498 70.1604 73.8598 70.1604 76.1298Z" stroke="#1836B2" stroke-width="2"/>
<path d="M86.771 40.7198C86.771 43.9698 85.781 46.1497 83.801 47.2797L83.3909 47.4898L73.6609 52.3498L63.801 57.2797C65.781 56.1497 66.771 53.9698 66.771 50.7198C66.771 47.4698 65.781 44.1498 63.801 40.7398C61.821 37.3198 59.4211 34.7997 56.5911 33.1697C53.9511 31.6497 51.691 31.3297 49.791 32.1997L59.7209 27.2398L69.3809 22.4097C71.3609 21.2897 73.7611 21.5397 76.5911 23.1697C79.4211 24.7997 81.821 27.3198 83.801 30.7398C85.781 34.1498 86.771 37.4798 86.771 40.7198Z" stroke="#1836B2" stroke-width="2"/>
<path d="M90.1604 66.1298C90.1604 71.5198 89.2705 76.0498 87.4905 79.7198C85.7105 83.3998 83.2905 86.1098 80.2405 87.8498L78.8904 88.5197L60.2405 97.8498C63.2905 96.1098 65.7105 93.3998 67.4905 89.7198C67.4905 89.7098 67.5005 89.7098 67.5005 89.6998C69.2705 86.0298 70.1604 81.5098 70.1604 76.1298C70.1604 73.8598 70.0004 72.1498 69.6904 70.9998C69.3804 69.8498 68.8305 68.8798 68.0405 68.0998C67.5805 67.5798 67.0805 67.1998 66.5105 66.9698C65.9505 66.7398 65.3805 66.6298 64.8105 66.6298C63.5705 66.7498 62.2604 66.6098 60.8704 66.1998C59.4904 65.7898 58.0606 65.1598 56.5906 64.3098C51.9006 61.5998 47.9006 57.3898 44.5906 51.6898C41.2806 45.9798 39.6304 40.4397 39.6304 35.0497C39.6304 33.2397 39.8004 31.6497 40.1404 30.2897C40.4804 28.9297 41.0105 27.7798 41.7505 26.8398C42.0905 26.3898 42.3004 25.8597 42.3804 25.2597C42.4704 24.6597 42.4004 23.9997 42.1704 23.2897C41.8904 22.2197 41.3205 21.2698 40.4805 20.4598C39.6305 19.6498 38.1904 18.6498 36.1504 17.4798C32.2304 15.2098 28.5105 13.7798 25.0005 13.1898C24.3105 13.0698 23.6304 12.9798 22.9604 12.9298C19.4804 12.6598 16.3804 13.1198 13.6504 14.3398L32.2305 5.04971C35.2905 3.30971 38.8604 2.60971 42.9604 2.92971C47.0604 3.24971 51.4604 4.76976 56.1504 7.47976C58.1904 8.64976 59.6305 9.64974 60.4805 10.4598C61.3205 11.2698 61.8904 12.2197 62.1704 13.2897C62.4004 13.9997 62.4704 14.6597 62.3804 15.2597C62.3004 15.8597 62.0905 16.3898 61.7505 16.8398C61.0105 17.7798 60.4804 18.9297 60.1404 20.2897C59.8004 21.6497 59.6304 23.2397 59.6304 25.0497C59.6304 25.7797 59.6605 26.4998 59.7205 27.2398L49.7905 32.1998L49.3804 32.4097C47.4004 33.5397 46.4104 35.7298 46.4104 38.9698C46.4104 42.2098 47.4004 45.5398 49.3804 48.9598C51.3604 52.3698 53.7606 54.8897 56.5906 56.5197C59.4206 58.1597 61.8205 58.4097 63.8005 57.2797L73.6604 52.3498C74.6004 53.0698 75.5806 53.7298 76.5906 54.3098C78.0606 55.1598 79.4904 55.7898 80.8704 56.1998C82.2604 56.6098 83.5705 56.7498 84.8105 56.6298C85.3805 56.6298 85.9505 56.7398 86.5105 56.9698C87.0805 57.1998 87.5805 57.5798 88.0405 58.0998C88.8305 58.8798 89.3804 59.8498 89.6904 60.9998C90.0004 62.1498 90.1604 63.8598 90.1604 66.1298Z" stroke="#1836B2" stroke-width="2"/>
</svg>
