<svg width="86" height="105" viewBox="0 0 86 105" fill="none" xmlns="http://www.w3.org/2000/svg">
<path d="M82.555 63.6104L46.645 92.2204L26.645 102.22L40.865 90.8904L62.555 73.6104C63.785 72.6604 64.025 71.0004 63.265 68.6404C62.495 66.2804 61.165 64.5504 59.275 63.4604L42.365 53.6904L62.365 43.6904L79.275 53.4604C81.165 54.5504 82.495 56.2804 83.265 58.6404C84.025 61.0004 83.785 62.6604 82.555 63.6104Z" stroke="#1836B2" stroke-width="2"/>
<path d="M46.645 92.2207C46.335 92.4607 46.005 92.6307 45.645 92.7207L46.645 92.2207Z" stroke="#1836B2" stroke-width="2"/>
<path d="M62.555 73.6105L40.8649 90.8905L26.645 102.22C25.845 102.85 24.865 102.99 23.705 102.65C22.535 102.31 21.415 101.54 20.315 100.32C19.225 99.1105 18.375 97.7205 17.755 96.1505C17.135 94.5805 16.8949 93.1305 17.0449 91.8005L20.5349 66.1405L7.00496 58.3305C5.25496 57.3205 3.96497 55.6705 3.13497 53.4005C2.29497 51.1205 2.38493 49.4405 3.40493 48.3605L36.0349 13.3505C36.2149 13.1605 36.4049 13.0105 36.6149 12.8805L36.685 12.8405L36.9849 12.7005C37.5249 12.4605 38.155 12.4205 38.875 12.5505C40.035 12.7605 41.2349 13.4705 42.4749 14.6905C43.0149 15.2205 43.485 15.7805 43.895 16.3805C44.435 17.1505 44.875 17.9905 45.205 18.8905C45.785 20.4805 46.0049 21.9405 45.8549 23.2805L42.3649 53.6905L59.275 63.4605C61.165 64.5505 62.495 66.2805 63.265 68.6405C64.025 71.0005 63.785 72.6605 62.555 73.6105Z" stroke="#1836B2" stroke-width="2"/>
<path d="M65.8549 13.2804L62.3649 43.6904L42.3649 53.6904L45.8549 23.2804C46.0049 21.9404 45.7849 20.4804 45.2049 18.8904C44.8749 17.9904 44.4349 17.1504 43.8949 16.3804C43.4849 15.7804 43.0149 15.2204 42.4749 14.6904C41.2349 13.4704 40.0349 12.7604 38.8749 12.5504C38.1549 12.4204 37.5249 12.4604 36.9849 12.7004L56.7249 2.82043C57.3349 2.48043 58.0449 2.39043 58.8749 2.55043C60.0349 2.76043 61.2349 3.47043 62.4749 4.69043C63.7049 5.90043 64.6149 7.30043 65.2049 8.89043C65.7849 10.4804 66.0049 11.9404 65.8549 13.2804Z" stroke="#1836B2" stroke-width="2"/>
<path d="M56.8351 2.76025L56.7251 2.82025" stroke="#1836B2" stroke-width="2"/>
</svg>
